<?xml version="1.0" encoding="UTF-8"?>
<svg xmlns="http://www.w3.org/2000/svg" xmlns:xlink="http://www.w3.org/1999/xlink" width="1022pt" height="262pt" viewBox="0 0 1022 262" version="1.1">
<g id="surface1">
<path style=" stroke:none;fill-rule:nonzero;fill:rgb(13.699341%,12.199402%,12.5%);fill-opacity:1;" d="M 300.375 11.414063 L 222.097656 11.414063 L 165.109375 131.28125 L 135.304688 78.550781 L 172.96875 11.085938 L 97.640625 11.085938 L 65.871094 71.675781 L 65.871094 11.085938 L 0.691406 10.757813 L 0.691406 147.332031 L 65.210938 147.332031 L 65.210938 87.722656 L 102.222656 146.675781 L 232.246094 145.691406 L 237.816406 131.28125 L 283.671875 131.28125 L 289.894531 146.019531 L 364.566406 146.019531 Z M 246.914063 111.585938 L 261.722656 80.09375 L 276.363281 111.585938 L 246.914063 111.585938 "/>
<path style="fill:none;stroke-width:5.6693;stroke-linecap:butt;stroke-linejoin:miter;stroke:rgb(13.699341%,12.199402%,12.5%);stroke-opacity:1;stroke-miterlimit:22.9256;" d="M 3003.75 2505.859375 L 2220.976563 2505.859375 L 1651.09375 1307.1875 L 1353.046875 1834.492188 L 1729.6875 2509.140625 L 976.40625 2509.140625 L 658.710938 1903.242188 L 658.710938 2509.140625 L 6.914063 2512.421875 L 6.914063 1146.679688 L 652.109375 1146.679688 L 652.109375 1742.773438 L 1022.226563 1153.242188 L 2322.460938 1163.085938 L 2378.164063 1307.1875 L 2836.71875 1307.1875 L 2898.945313 1159.804688 L 3645.664063 1159.804688 Z M 2469.140625 1504.140625 L 2617.226563 1819.0625 L 2763.632813 1504.140625 Z M 2469.140625 1504.140625 " transform="matrix(0.1,0,0,-0.1,0,262)"/>
<path style=" stroke:none;fill-rule:nonzero;fill:rgb(13.699341%,12.199402%,12.5%);fill-opacity:1;" d="M 376.484375 11.195313 L 376.484375 147.105469 L 505.738281 147.105469 L 505.738281 113.421875 L 443.460938 113.421875 L 443.460938 93.445313 L 495.945313 93.445313 L 495.945313 63.289063 L 443.851563 63.289063 L 443.851563 46.445313 L 506.519531 46.445313 L 506.519531 11.195313 L 376.484375 11.195313 "/>
<path style="fill:none;stroke-width:5.6693;stroke-linecap:butt;stroke-linejoin:miter;stroke:rgb(13.699341%,12.199402%,12.5%);stroke-opacity:1;stroke-miterlimit:22.9256;" d="M 3764.84375 2508.046875 L 3764.84375 1148.945313 L 5057.382813 1148.945313 L 5057.382813 1485.78125 L 4434.609375 1485.78125 L 4434.609375 1685.546875 L 4959.453125 1685.546875 L 4959.453125 1987.109375 L 4438.515625 1987.109375 L 4438.515625 2155.546875 L 5065.195313 2155.546875 L 5065.195313 2508.046875 Z M 3764.84375 2508.046875 " transform="matrix(0.1,0,0,-0.1,0,262)"/>
<path style=" stroke:none;fill-rule:nonzero;fill:rgb(13.699341%,12.199402%,12.5%);fill-opacity:1;" d="M 691 11.195313 L 691 147.105469 L 820.253906 147.105469 L 820.253906 113.421875 L 757.976563 113.421875 L 757.976563 93.445313 L 810.460938 93.445313 L 810.460938 63.289063 L 758.367188 63.289063 L 758.367188 46.445313 L 821.035156 46.445313 L 821.035156 11.195313 L 691 11.195313 "/>
<path style="fill:none;stroke-width:5.6693;stroke-linecap:butt;stroke-linejoin:miter;stroke:rgb(13.699341%,12.199402%,12.5%);stroke-opacity:1;stroke-miterlimit:22.9256;" d="M 6910 2508.046875 L 6910 1148.945313 L 8202.539063 1148.945313 L 8202.539063 1485.78125 L 7579.765625 1485.78125 L 7579.765625 1685.546875 L 8104.609375 1685.546875 L 8104.609375 1987.109375 L 7583.671875 1987.109375 L 7583.671875 2155.546875 L 8210.351563 2155.546875 L 8210.351563 2508.046875 Z M 6910 2508.046875 " transform="matrix(0.1,0,0,-0.1,0,262)"/>
<path style=" stroke:none;fill-rule:evenodd;fill:rgb(13.699341%,12.199402%,12.5%);fill-opacity:1;" d="M 654.523438 51.683594 L 669.527344 23.5 C 669.527344 23.5 648.660156 1.175781 590.476563 1.175781 C 590.476563 1.175781 537.039063 3.007813 528.257813 40.335938 C 523.316406 61.335938 534.476563 74.808594 545.179688 82.574219 C 553.507813 88.613281 565.3125 91.632813 570.382813 93.015625 C 582.457031 96.3125 602.414063 101.714844 600.355469 109.875 C 597.796875 120.03125 576.203125 117.191406 576.203125 117.191406 C 576.203125 117.191406 553.082031 114.007813 539.972656 103.652344 L 523.136719 133.296875 C 523.136719 133.296875 559.730469 160.742188 617.191406 154.519531 C 617.191406 154.519531 666.179688 152.199219 667.511719 104.199219 C 667.511719 104.199219 669.476563 82.351563 648.226563 70.261719 C 644.753906 68.285156 640.960938 66.875 636.164063 65.589844 C 633.390625 64.847656 624.609375 63.628906 618.863281 62.984375 C 609.808594 62.160156 595.714844 59.714844 592.304688 52.410156 C 592.304688 52.410156 586.453125 35.582031 612.4375 38.140625 C 612.4375 38.140625 619.03125 38.136719 641.71875 46.554688 L 654.523438 51.683594 "/>
<path style="fill:none;stroke-width:5.6693;stroke-linecap:butt;stroke-linejoin:miter;stroke:rgb(13.699341%,12.199402%,12.5%);stroke-opacity:1;stroke-miterlimit:22.9256;" d="M 6545.234375 2103.164063 L 6695.273438 2385 C 6695.273438 2385 6486.601563 2608.242188 5904.765625 2608.242188 C 5904.765625 2608.242188 5370.390625 2589.921875 5282.578125 2216.640625 C 5233.164063 2006.640625 5344.765625 1871.914063 5451.796875 1794.257813 C 5535.078125 1733.867188 5653.125 1703.671875 5703.828125 1689.84375 C 5824.570313 1656.875 6024.140625 1602.851563 6003.554688 1521.25 C 5977.96875 1419.6875 5762.03125 1448.085938 5762.03125 1448.085938 C 5762.03125 1448.085938 5530.820313 1479.921875 5399.726563 1583.476563 L 5231.367188 1287.03125 C 5231.367188 1287.03125 5597.304688 1012.578125 6171.914063 1074.804688 C 6171.914063 1074.804688 6661.796875 1098.007813 6675.117188 1578.007813 C 6675.117188 1578.007813 6694.765625 1796.484375 6482.265625 1917.382813 C 6447.539063 1937.148438 6409.609375 1951.25 6361.640625 1964.101563 C 6333.90625 1971.523438 6246.09375 1983.710938 6188.632813 1990.15625 C 6098.085938 1998.398438 5957.148438 2022.851563 5923.046875 2095.898438 C 5923.046875 2095.898438 5864.53125 2264.179688 6124.375 2238.59375 C 6124.375 2238.59375 6190.3125 2238.632813 6417.1875 2154.453125 Z M 6545.234375 2103.164063 " transform="matrix(0.1,0,0,-0.1,0,262)"/>
<path style=" stroke:none;fill-rule:nonzero;fill:rgb(13.699341%,12.199402%,12.5%);fill-opacity:1;" d="M 992.886719 100.222656 C 992.886719 100.222656 1020.078125 96.960938 1020.078125 54.535156 C 1020.078125 54.535156 1021.390625 19.511719 986.359375 11.027344 L 845.828125 10.8125 L 845.828125 146.339844 L 913.699219 146.339844 L 913.699219 105.882813 L 921.96875 105.882813 L 943.503906 146.339844 L 1021.171875 146.339844 Z M 948.09375 60.804688 C 948.09375 66.128906 943.777344 70.441406 938.453125 70.441406 L 911.023438 70.441406 L 911.023438 46.578125 L 938.453125 46.578125 C 943.777344 46.578125 948.09375 50.894531 948.09375 56.21875 L 948.09375 60.804688 "/>
<path style="fill:none;stroke-width:5.6693;stroke-linecap:butt;stroke-linejoin:miter;stroke:rgb(13.699341%,12.199402%,12.5%);stroke-opacity:1;stroke-miterlimit:22.9256;" d="M 9928.867188 1617.773438 C 9928.867188 1617.773438 10200.78125 1650.390625 10200.78125 2074.648438 C 10200.78125 2074.648438 10213.90625 2424.882813 9863.59375 2509.726563 L 8458.28125 2511.875 L 8458.28125 1156.601563 L 9136.992188 1156.601563 L 9136.992188 1561.171875 L 9219.6875 1561.171875 L 9435.039063 1156.601563 L 10211.71875 1156.601563 Z M 9480.9375 2011.953125 C 9480.9375 1958.710938 9437.773438 1915.585938 9384.53125 1915.585938 L 9110.234375 1915.585938 L 9110.234375 2154.21875 L 9384.53125 2154.21875 C 9437.773438 2154.21875 9480.9375 2111.054688 9480.9375 2057.8125 Z M 9480.9375 2011.953125 " transform="matrix(0.1,0,0,-0.1,0,262)"/>
<path style=" stroke:none;fill-rule:nonzero;fill:rgb(13.699341%,12.199402%,12.5%);fill-opacity:1;" d="M 60.542969 228.882813 L 77.3125 234.117188 C 74.742188 243.3125 70.46875 250.144531 64.488281 254.609375 C 58.511719 259.074219 50.925781 261.304688 41.734375 261.304688 C 30.359375 261.304688 21.015625 257.484375 13.691406 249.839844 C 6.367188 242.191406 2.710938 231.742188 2.710938 218.480469 C 2.710938 204.457031 6.390625 193.5625 13.75 185.800781 C 21.109375 178.042969 30.789063 174.160156 42.785156 174.160156 C 53.261719 174.160156 61.773438 177.207031 68.316406 183.300781 C 72.210938 186.90625 75.128906 192.078125 77.078125 198.824219 L 59.960938 202.84375 C 58.949219 198.476563 56.835938 195.027344 53.621094 192.5 C 50.410156 189.96875 46.503906 188.707031 41.910156 188.707031 C 35.558594 188.707031 30.410156 190.949219 26.457031 195.429688 C 22.503906 199.914063 20.527344 207.175781 20.527344 217.21875 C 20.527344 227.867188 22.472656 235.460938 26.371094 239.980469 C 30.265625 244.503906 35.328125 246.761719 41.558594 246.761719 C 46.15625 246.761719 50.105469 245.328125 53.417969 242.453125 C 56.726563 239.578125 59.105469 235.058594 60.542969 228.882813 "/>
<path style="fill:none;stroke-width:5.6693;stroke-linecap:butt;stroke-linejoin:miter;stroke:rgb(13.699341%,12.199402%,12.5%);stroke-opacity:1;stroke-miterlimit:22.9256;" d="M 605.429688 331.171875 L 773.125 278.828125 C 747.421875 186.875 704.6875 118.554688 644.882813 73.90625 C 585.117188 29.257813 509.257813 6.953125 417.34375 6.953125 C 303.59375 6.953125 210.15625 45.15625 136.914063 121.601563 C 63.671875 198.085938 27.109375 302.578125 27.109375 435.195313 C 27.109375 575.429688 63.90625 684.375 137.5 761.992188 C 211.09375 839.570313 307.890625 878.398438 427.851563 878.398438 C 532.617188 878.398438 617.734375 847.929688 683.164063 786.992188 C 722.109375 750.9375 751.289063 699.21875 770.78125 631.757813 L 599.609375 591.5625 C 589.492188 635.234375 568.359375 669.726563 536.210938 695 C 504.101563 720.3125 465.039063 732.929688 419.101563 732.929688 C 355.585938 732.929688 304.101563 710.507813 264.570313 665.703125 C 225.039063 620.859375 205.273438 548.242188 205.273438 447.8125 C 205.273438 341.328125 224.726563 265.390625 263.710938 220.195313 C 302.65625 174.960938 353.28125 152.382813 415.585938 152.382813 C 461.5625 152.382813 501.054688 166.71875 534.179688 195.46875 C 567.265625 224.21875 591.054688 269.414063 605.429688 331.171875 Z M 605.429688 331.171875 " transform="matrix(0.1,0,0,-0.1,0,262)"/>
<path style=" stroke:none;fill-rule:nonzero;fill:rgb(13.699341%,12.199402%,12.5%);fill-opacity:1;" d="M 88.648438 218.25 C 88.648438 209.667969 89.953125 202.460938 92.558594 196.636719 C 94.507813 192.34375 97.167969 188.496094 100.535156 185.085938 C 103.902344 181.671875 107.59375 179.144531 111.605469 177.496094 C 116.941406 175.273438 123.09375 174.160156 130.066406 174.160156 C 142.6875 174.160156 152.785156 178.011719 160.359375 185.714844 C 167.933594 193.417969 171.722656 204.128906 171.722656 217.847656 C 171.722656 231.453125 167.964844 242.097656 160.445313 249.777344 C 152.929688 257.460938 142.882813 261.304688 130.300781 261.304688 C 117.566406 261.304688 107.441406 257.484375 99.921875 249.839844 C 92.40625 242.191406 88.648438 231.664063 88.648438 218.25 Z M 106.464844 217.675781 C 106.464844 227.21875 108.703125 234.453125 113.183594 239.375 C 117.664063 244.300781 123.347656 246.761719 130.242188 246.761719 C 137.136719 246.761719 142.792969 244.320313 147.214844 239.433594 C 151.632813 234.550781 153.84375 227.21875 153.84375 217.449219 C 153.84375 207.789063 151.691406 200.585938 147.390625 195.832031 C 143.085938 191.082031 137.371094 188.707031 130.242188 188.707031 C 123.117188 188.707031 117.371094 191.109375 113.007813 195.917969 C 108.644531 200.730469 106.464844 207.980469 106.464844 217.675781 "/>
<path style="fill:none;stroke-width:5.6693;stroke-linecap:butt;stroke-linejoin:miter;stroke:rgb(13.699341%,12.199402%,12.5%);stroke-opacity:1;stroke-miterlimit:22.9256;" d="M 886.484375 437.5 C 886.484375 523.320313 899.53125 595.390625 925.585938 653.632813 C 945.078125 696.5625 971.679688 735.039063 1005.351563 769.140625 C 1039.023438 803.28125 1075.9375 828.554688 1116.054688 845.039063 C 1169.414063 867.265625 1230.9375 878.398438 1300.664063 878.398438 C 1426.875 878.398438 1527.851563 839.882813 1603.59375 762.851563 C 1679.335938 685.820313 1717.226563 578.710938 1717.226563 441.523438 C 1717.226563 305.46875 1679.648438 199.023438 1604.453125 122.226563 C 1529.296875 45.390625 1428.828125 6.953125 1303.007813 6.953125 C 1175.664063 6.953125 1074.414063 45.15625 999.21875 121.601563 C 924.0625 198.085938 886.484375 303.359375 886.484375 437.5 Z M 1064.648438 443.242188 C 1064.648438 347.8125 1087.03125 275.46875 1131.835938 226.25 C 1176.640625 176.992188 1233.476563 152.382813 1302.421875 152.382813 C 1371.367188 152.382813 1427.929688 176.796875 1472.148438 225.664063 C 1516.328125 274.492188 1538.4375 347.8125 1538.4375 445.507813 C 1538.4375 542.109375 1516.914063 614.140625 1473.90625 661.679688 C 1430.859375 709.179688 1373.710938 732.929688 1302.421875 732.929688 C 1231.171875 732.929688 1173.710938 708.90625 1130.078125 660.820313 C 1086.445313 612.695313 1064.648438 540.195313 1064.648438 443.242188 Z M 1064.648438 443.242188 " transform="matrix(0.1,0,0,-0.1,0,262)"/>
<path style=" stroke:none;fill-rule:nonzero;fill:rgb(13.699341%,12.199402%,12.5%);fill-opacity:1;" d="M 184.980469 259.867188 L 184.980469 175.601563 L 210.863281 175.601563 L 226.402344 233.082031 L 241.769531 175.601563 L 267.707031 175.601563 L 267.707031 259.867188 L 251.640625 259.867188 L 251.640625 193.53125 L 234.640625 259.867188 L 217.992188 259.867188 L 201.050781 193.53125 L 201.050781 259.867188 L 184.980469 259.867188 "/>
<path style="fill:none;stroke-width:5.6693;stroke-linecap:butt;stroke-linejoin:miter;stroke:rgb(13.699341%,12.199402%,12.5%);stroke-opacity:1;stroke-miterlimit:22.9256;" d="M 1849.804688 21.328125 L 1849.804688 863.984375 L 2108.632813 863.984375 L 2264.023438 289.179688 L 2417.695313 863.984375 L 2677.070313 863.984375 L 2677.070313 21.328125 L 2516.40625 21.328125 L 2516.40625 684.6875 L 2346.40625 21.328125 L 2179.921875 21.328125 L 2010.507813 684.6875 L 2010.507813 21.328125 Z M 1849.804688 21.328125 " transform="matrix(0.1,0,0,-0.1,0,262)"/>
<path style=" stroke:none;fill-rule:nonzero;fill:rgb(13.699341%,12.199402%,12.5%);fill-opacity:1;" d="M 284.882813 259.867188 L 284.882813 175.601563 L 312.632813 175.601563 C 323.148438 175.601563 330.003906 176.019531 333.195313 176.863281 C 338.105469 178.125 342.214844 180.878906 345.523438 185.113281 C 348.832031 189.347656 350.488281 194.816406 350.488281 201.523438 C 350.488281 206.695313 349.535156 211.050781 347.628906 214.574219 C 345.71875 218.097656 343.292969 220.867188 340.355469 222.878906 C 337.414063 224.890625 334.425781 226.222656 331.386719 226.875 C 327.257813 227.679688 321.277344 228.082031 313.449219 228.082031 L 302.175781 228.082031 L 302.175781 259.867188 Z M 302.175781 189.855469 L 302.175781 213.769531 L 311.640625 213.769531 C 318.453125 213.769531 323.011719 213.328125 325.308594 212.445313 C 327.605469 211.566406 329.410156 210.183594 330.714844 208.308594 C 332.019531 206.429688 332.671875 204.246094 332.671875 201.753906 C 332.671875 198.691406 331.757813 196.160156 329.925781 194.164063 C 328.09375 192.171875 325.777344 190.925781 322.972656 190.429688 C 320.910156 190.046875 316.761719 189.855469 310.53125 189.855469 L 302.175781 189.855469 "/>
<path style="fill:none;stroke-width:5.6693;stroke-linecap:butt;stroke-linejoin:miter;stroke:rgb(13.699341%,12.199402%,12.5%);stroke-opacity:1;stroke-miterlimit:22.9256;" d="M 2848.828125 21.328125 L 2848.828125 863.984375 L 3126.328125 863.984375 C 3231.484375 863.984375 3300.039063 859.804688 3331.953125 851.367188 C 3381.054688 838.75 3422.148438 811.210938 3455.234375 768.867188 C 3488.320313 726.523438 3504.882813 671.835938 3504.882813 604.765625 C 3504.882813 553.046875 3495.351563 509.492188 3476.289063 474.257813 C 3457.1875 439.023438 3432.929688 411.328125 3403.554688 391.210938 C 3374.140625 371.09375 3344.257813 357.773438 3313.867188 351.25 C 3272.578125 343.203125 3212.773438 339.179688 3134.492188 339.179688 L 3021.757813 339.179688 L 3021.757813 21.328125 Z M 3021.757813 721.445313 L 3021.757813 482.304688 L 3116.40625 482.304688 C 3184.53125 482.304688 3230.117188 486.71875 3253.085938 495.546875 C 3276.054688 504.335938 3294.101563 518.164063 3307.148438 536.914063 C 3320.195313 555.703125 3326.71875 577.539063 3326.71875 602.460938 C 3326.71875 633.085938 3317.578125 658.398438 3299.257813 678.359375 C 3280.9375 698.28125 3257.773438 710.742188 3229.726563 715.703125 C 3209.101563 719.53125 3167.617188 721.445313 3105.3125 721.445313 Z M 3021.757813 721.445313 " transform="matrix(0.1,0,0,-0.1,0,262)"/>
<path style=" stroke:none;fill-rule:nonzero;fill:rgb(13.699341%,12.199402%,12.5%);fill-opacity:1;" d="M 364.742188 259.867188 L 364.742188 175.601563 L 401.140625 175.601563 C 410.292969 175.601563 416.941406 176.355469 421.089844 177.871094 C 425.238281 179.386719 428.558594 182.074219 431.050781 185.945313 C 433.542969 189.820313 434.789063 194.242188 434.789063 199.222656 C 434.789063 205.546875 432.902344 210.769531 429.121094 214.890625 C 425.34375 219.011719 419.699219 221.601563 412.179688 222.675781 C 415.921875 224.824219 419.007813 227.179688 421.441406 229.75 C 423.875 232.316406 427.15625 236.875 431.285156 243.429688 L 441.742188 259.867188 L 421.0625 259.867188 L 408.558594 241.53125 C 404.117188 234.976563 401.082031 230.847656 399.445313 229.144531 C 397.808594 227.441406 396.078125 226.269531 394.246094 225.636719 C 392.414063 225.007813 389.511719 224.6875 385.539063 224.6875 L 382.035156 224.6875 L 382.035156 259.867188 Z M 382.035156 211.238281 L 394.828125 211.238281 C 403.125 211.238281 408.304688 210.894531 410.371094 210.207031 C 412.433594 209.511719 414.050781 208.324219 415.21875 206.636719 C 416.386719 204.957031 416.972656 202.84375 416.972656 200.316406 C 416.972656 197.480469 416.203125 195.191406 414.664063 193.449219 C 413.125 191.703125 410.953125 190.601563 408.148438 190.140625 C 406.75 189.953125 402.539063 189.855469 395.53125 189.855469 L 382.035156 189.855469 L 382.035156 211.238281 "/>
<path style="fill:none;stroke-width:5.6693;stroke-linecap:butt;stroke-linejoin:miter;stroke:rgb(13.699341%,12.199402%,12.5%);stroke-opacity:1;stroke-miterlimit:22.9256;" d="M 3647.421875 21.328125 L 3647.421875 863.984375 L 4011.40625 863.984375 C 4102.929688 863.984375 4169.414063 856.445313 4210.898438 841.289063 C 4252.382813 826.132813 4285.585938 799.257813 4310.507813 760.546875 C 4335.429688 721.796875 4347.890625 677.578125 4347.890625 627.773438 C 4347.890625 564.53125 4329.023438 512.304688 4291.210938 471.09375 C 4253.4375 429.882813 4196.992188 403.984375 4121.796875 393.242188 C 4159.21875 371.757813 4190.078125 348.203125 4214.414063 322.5 C 4238.75 296.835938 4271.5625 251.25 4312.851563 185.703125 L 4417.421875 21.328125 L 4210.625 21.328125 L 4085.585938 204.6875 C 4041.171875 270.234375 4010.820313 311.523438 3994.453125 328.554688 C 3978.085938 345.585938 3960.78125 357.304688 3942.460938 363.632813 C 3924.140625 369.921875 3895.117188 373.125 3855.390625 373.125 L 3820.351563 373.125 L 3820.351563 21.328125 Z M 3820.351563 507.617188 L 3948.28125 507.617188 C 4031.25 507.617188 4083.046875 511.054688 4103.710938 517.929688 C 4124.335938 524.882813 4140.507813 536.757813 4152.1875 553.632813 C 4163.867188 570.429688 4169.726563 591.5625 4169.726563 616.835938 C 4169.726563 645.195313 4162.03125 668.085938 4146.640625 685.507813 C 4131.25 702.96875 4109.53125 713.984375 4081.484375 718.59375 C 4067.5 720.46875 4025.390625 721.445313 3955.3125 721.445313 L 3820.351563 721.445313 Z M 3820.351563 507.617188 " transform="matrix(0.1,0,0,-0.1,0,262)"/>
<path style=" stroke:none;fill-rule:nonzero;fill:rgb(13.699341%,12.199402%,12.5%);fill-opacity:1;" d="M 451.089844 259.867188 L 451.089844 175.601563 L 514.59375 175.601563 L 514.59375 189.855469 L 468.382813 189.855469 L 468.382813 208.535156 L 511.378906 208.535156 L 511.378906 222.734375 L 468.382813 222.734375 L 468.382813 245.671875 L 516.230469 245.671875 L 516.230469 259.867188 L 451.089844 259.867188 "/>
<path style="fill:none;stroke-width:5.6693;stroke-linecap:butt;stroke-linejoin:miter;stroke:rgb(13.699341%,12.199402%,12.5%);stroke-opacity:1;stroke-miterlimit:22.9256;" d="M 4510.898438 21.328125 L 4510.898438 863.984375 L 5145.9375 863.984375 L 5145.9375 721.445313 L 4683.828125 721.445313 L 4683.828125 534.648438 L 5113.789063 534.648438 L 5113.789063 392.65625 L 4683.828125 392.65625 L 4683.828125 163.28125 L 5162.304688 163.28125 L 5162.304688 21.328125 Z M 4510.898438 21.328125 " transform="matrix(0.1,0,0,-0.1,0,262)"/>
<path style=" stroke:none;fill-rule:nonzero;fill:rgb(13.699341%,12.199402%,12.5%);fill-opacity:1;" d="M 526.511719 232.453125 L 543.335938 230.839844 C 544.351563 236.394531 546.402344 240.480469 549.5 243.085938 C 552.597656 245.691406 556.773438 246.992188 562.03125 246.992188 C 567.601563 246.992188 571.796875 245.835938 574.621094 243.511719 C 577.445313 241.195313 578.855469 238.484375 578.855469 235.378906 C 578.855469 233.386719 578.261719 231.691406 577.074219 230.292969 C 575.890625 228.898438 573.8125 227.679688 570.851563 226.644531 C 568.828125 225.953125 564.214844 224.730469 557.007813 222.960938 C 547.738281 220.707031 541.234375 217.925781 537.492188 214.628906 C 532.234375 209.996094 529.609375 204.339844 529.609375 197.675781 C 529.609375 193.382813 530.84375 189.363281 533.316406 185.628906 C 535.789063 181.894531 539.351563 179.050781 544.011719 177.09375 C 548.660156 175.136719 554.28125 174.160156 560.863281 174.160156 C 571.613281 174.160156 579.703125 176.480469 585.136719 181.117188 C 590.570313 185.757813 593.421875 191.945313 593.695313 199.683594 L 576.402344 200.433594 C 575.660156 196.101563 574.074219 192.988281 571.640625 191.089844 C 569.207031 189.195313 565.558594 188.246094 560.6875 188.246094 C 555.664063 188.246094 551.730469 189.261719 548.886719 191.289063 C 547.058594 192.597656 546.144531 194.335938 546.144531 196.523438 C 546.144531 198.519531 546.996094 200.222656 548.710938 201.640625 C 550.894531 203.441406 556.1875 205.316406 564.605469 207.273438 C 573.015625 209.226563 579.238281 211.25 583.265625 213.335938 C 587.300781 215.425781 590.453125 218.277344 592.734375 221.902344 C 595.011719 225.523438 596.148438 229.996094 596.148438 235.320313 C 596.148438 240.152344 594.785156 244.675781 592.0625 248.890625 C 589.335938 253.105469 585.476563 256.238281 580.492188 258.289063 C 575.507813 260.335938 569.296875 261.359375 561.855469 261.359375 C 551.027344 261.359375 542.714844 258.902344 536.910156 253.976563 C 531.105469 249.050781 527.640625 241.875 526.511719 232.453125 "/>
<path style="fill:none;stroke-width:5.6693;stroke-linecap:butt;stroke-linejoin:miter;stroke:rgb(13.699341%,12.199402%,12.5%);stroke-opacity:1;stroke-miterlimit:22.9256;" d="M 5265.117188 295.46875 L 5433.359375 311.601563 C 5443.515625 256.054688 5464.023438 215.195313 5495 189.140625 C 5525.976563 163.085938 5567.734375 150.078125 5620.3125 150.078125 C 5676.015625 150.078125 5717.96875 161.640625 5746.210938 184.882813 C 5774.453125 208.046875 5788.554688 235.15625 5788.554688 266.210938 C 5788.554688 286.132813 5782.617188 303.085938 5770.742188 317.070313 C 5758.90625 331.015625 5738.125 343.203125 5708.515625 353.554688 C 5688.28125 360.46875 5642.148438 372.695313 5570.078125 390.390625 C 5477.382813 412.929688 5412.34375 440.742188 5374.921875 473.710938 C 5322.34375 520.039063 5296.09375 576.601563 5296.09375 643.242188 C 5296.09375 686.171875 5308.4375 726.367188 5333.164063 763.710938 C 5357.890625 801.054688 5393.515625 829.492188 5440.117188 849.0625 C 5486.601563 868.632813 5542.8125 878.398438 5608.632813 878.398438 C 5716.132813 878.398438 5797.03125 855.195313 5851.367188 808.828125 C 5905.703125 762.421875 5934.21875 700.546875 5936.953125 623.164063 L 5764.023438 615.664063 C 5756.601563 658.984375 5740.742188 690.117188 5716.40625 709.101563 C 5692.070313 728.046875 5655.585938 737.539063 5606.875 737.539063 C 5556.640625 737.539063 5517.304688 727.382813 5488.867188 707.109375 C 5470.585938 694.023438 5461.445313 676.640625 5461.445313 654.765625 C 5461.445313 634.804688 5469.960938 617.773438 5487.109375 603.59375 C 5508.945313 585.585938 5561.875 566.835938 5646.054688 547.265625 C 5730.15625 527.734375 5792.382813 507.5 5832.65625 486.640625 C 5873.007813 465.742188 5904.53125 437.226563 5927.34375 400.976563 C 5950.117188 364.765625 5961.484375 320.039063 5961.484375 266.796875 C 5961.484375 218.476563 5947.851563 173.242188 5920.625 131.09375 C 5893.359375 88.945313 5854.765625 57.617188 5804.921875 37.109375 C 5755.078125 16.640625 5692.96875 6.40625 5618.554688 6.40625 C 5510.273438 6.40625 5427.148438 30.976563 5369.101563 80.234375 C 5311.054688 129.492188 5276.40625 201.25 5265.117188 295.46875 Z M 5265.117188 295.46875 " transform="matrix(0.1,0,0,-0.1,0,262)"/>
<path style=" stroke:none;fill-rule:nonzero;fill:rgb(13.699341%,12.199402%,12.5%);fill-opacity:1;" d="M 606.429688 232.015625 L 623.253906 230.40625 C 624.269531 235.960938 626.320313 240.042969 629.417969 242.652344 C 632.515625 245.257813 636.691406 246.558594 641.949219 246.558594 C 647.519531 246.558594 651.714844 245.398438 654.539063 243.078125 C 657.363281 240.761719 658.773438 238.050781 658.773438 234.945313 C 658.773438 232.953125 658.179688 231.257813 656.992188 229.859375 C 655.808594 228.460938 653.730469 227.246094 650.769531 226.207031 C 648.746094 225.519531 644.132813 224.292969 636.925781 222.527344 C 627.65625 220.269531 621.152344 217.492188 617.410156 214.191406 C 612.152344 209.558594 609.527344 203.902344 609.527344 197.238281 C 609.527344 192.945313 610.761719 188.929688 613.234375 185.195313 C 615.710938 181.460938 619.269531 178.613281 623.929688 176.65625 C 628.578125 174.703125 634.199219 173.726563 640.78125 173.726563 C 651.53125 173.726563 659.621094 176.046875 665.054688 180.683594 C 670.492188 185.320313 673.339844 191.511719 673.613281 199.25 L 656.324219 199.996094 C 655.578125 195.664063 653.992188 192.550781 651.558594 190.65625 C 649.125 188.757813 645.476563 187.808594 640.605469 187.808594 C 635.585938 187.808594 631.648438 188.824219 628.804688 190.855469 C 626.976563 192.160156 626.0625 193.902344 626.0625 196.089844 C 626.0625 198.082031 626.917969 199.785156 628.628906 201.207031 C 630.8125 203.003906 636.109375 204.882813 644.523438 206.835938 C 652.933594 208.792969 659.15625 210.816406 663.183594 212.902344 C 667.21875 214.992188 670.371094 217.84375 672.652344 221.464844 C 674.929688 225.085938 676.066406 229.5625 676.066406 234.886719 C 676.066406 239.71875 674.703125 244.242188 671.980469 248.453125 C 669.253906 252.671875 665.394531 255.800781 660.410156 257.855469 C 655.425781 259.902344 649.214844 260.925781 641.773438 260.925781 C 630.945313 260.925781 622.632813 258.46875 616.828125 253.539063 C 611.023438 248.617188 607.558594 241.441406 606.429688 232.015625 "/>
<path style="fill:none;stroke-width:5.6693;stroke-linecap:butt;stroke-linejoin:miter;stroke:rgb(13.699341%,12.199402%,12.5%);stroke-opacity:1;stroke-miterlimit:22.9256;" d="M 6064.296875 299.84375 L 6232.539063 315.9375 C 6242.695313 260.390625 6263.203125 219.570313 6294.179688 193.476563 C 6325.15625 167.421875 6366.914063 154.414063 6419.492188 154.414063 C 6475.195313 154.414063 6517.148438 166.015625 6545.390625 189.21875 C 6573.632813 212.382813 6587.734375 239.492188 6587.734375 270.546875 C 6587.734375 290.46875 6581.796875 307.421875 6569.921875 321.40625 C 6558.085938 335.390625 6537.304688 347.539063 6507.695313 357.929688 C 6487.460938 364.804688 6441.328125 377.070313 6369.257813 394.726563 C 6276.5625 417.304688 6211.523438 445.078125 6174.101563 478.085938 C 6121.523438 524.414063 6095.273438 580.976563 6095.273438 647.617188 C 6095.273438 690.546875 6107.617188 730.703125 6132.34375 768.046875 C 6157.109375 805.390625 6192.695313 833.867188 6239.296875 853.4375 C 6285.78125 872.96875 6341.992188 882.734375 6407.8125 882.734375 C 6515.3125 882.734375 6596.210938 859.53125 6650.546875 813.164063 C 6704.921875 766.796875 6733.398438 704.882813 6736.132813 627.5 L 6563.242188 620.039063 C 6555.78125 663.359375 6539.921875 694.492188 6515.585938 713.4375 C 6491.25 732.421875 6454.765625 741.914063 6406.054688 741.914063 C 6355.859375 741.914063 6316.484375 731.757813 6288.046875 711.445313 C 6269.765625 698.398438 6260.625 680.976563 6260.625 659.101563 C 6260.625 639.179688 6269.179688 622.148438 6286.289063 607.929688 C 6308.125 589.960938 6361.09375 571.171875 6445.234375 551.640625 C 6529.335938 532.070313 6591.5625 511.835938 6631.835938 490.976563 C 6672.1875 470.078125 6703.710938 441.5625 6726.523438 405.351563 C 6749.296875 369.140625 6760.664063 324.375 6760.664063 271.132813 C 6760.664063 222.8125 6747.03125 177.578125 6719.804688 135.46875 C 6692.539063 93.28125 6653.945313 61.992188 6604.101563 41.445313 C 6554.257813 20.976563 6492.148438 10.742188 6417.734375 10.742188 C 6309.453125 10.742188 6226.328125 35.3125 6168.28125 84.609375 C 6110.234375 133.828125 6075.585938 205.585938 6064.296875 299.84375 Z M 6064.296875 299.84375 " transform="matrix(0.1,0,0,-0.1,0,262)"/>
<path style=" stroke:none;fill-rule:nonzero;fill:rgb(13.699341%,12.199402%,12.5%);fill-opacity:1;" d="M 687.109375 217.816406 C 687.109375 209.230469 688.414063 202.027344 691.023438 196.203125 C 692.972656 191.910156 695.628906 188.0625 698.996094 184.648438 C 702.367188 181.238281 706.058594 178.707031 710.070313 177.0625 C 715.402344 174.835938 721.558594 173.726563 728.53125 173.726563 C 741.148438 173.726563 751.246094 177.578125 758.820313 185.277344 C 766.394531 192.984375 770.183594 203.695313 770.183594 217.414063 C 770.183594 231.019531 766.425781 241.664063 758.90625 249.34375 C 751.390625 257.027344 741.34375 260.871094 728.765625 260.871094 C 716.027344 260.871094 705.902344 257.050781 698.386719 249.402344 C 690.863281 241.757813 687.109375 231.226563 687.109375 217.816406 Z M 704.925781 217.238281 C 704.925781 226.78125 707.164063 234.019531 711.644531 238.941406 C 716.125 243.867188 721.8125 246.328125 728.703125 246.328125 C 735.597656 246.328125 741.253906 243.882813 745.675781 239 C 750.097656 234.113281 752.308594 226.78125 752.308594 217.015625 C 752.308594 207.351563 750.152344 200.152344 745.851563 195.398438 C 741.546875 190.644531 735.832031 188.269531 728.703125 188.269531 C 721.574219 188.269531 715.828125 190.675781 711.46875 195.484375 C 707.109375 200.292969 704.925781 207.546875 704.925781 217.238281 "/>
<path style="fill:none;stroke-width:5.6693;stroke-linecap:butt;stroke-linejoin:miter;stroke:rgb(13.699341%,12.199402%,12.5%);stroke-opacity:1;stroke-miterlimit:22.9256;" d="M 6871.09375 441.835938 C 6871.09375 527.695313 6884.140625 599.726563 6910.234375 657.96875 C 6929.726563 700.898438 6956.289063 739.375 6989.960938 773.515625 C 7023.671875 807.617188 7060.585938 832.929688 7100.703125 849.375 C 7154.023438 871.640625 7215.585938 882.734375 7285.3125 882.734375 C 7411.484375 882.734375 7512.460938 844.21875 7588.203125 767.226563 C 7663.945313 690.15625 7701.835938 583.046875 7701.835938 445.859375 C 7701.835938 309.804688 7664.257813 203.359375 7589.0625 126.5625 C 7513.90625 49.726563 7413.4375 11.289063 7287.65625 11.289063 C 7160.273438 11.289063 7059.023438 49.492188 6983.867188 125.976563 C 6908.632813 202.421875 6871.09375 307.734375 6871.09375 441.835938 Z M 7049.257813 447.617188 C 7049.257813 352.1875 7071.640625 279.804688 7116.445313 230.585938 C 7161.25 181.328125 7218.125 156.71875 7287.03125 156.71875 C 7355.976563 156.71875 7412.539063 181.171875 7456.757813 230 C 7500.976563 278.867188 7523.085938 352.1875 7523.085938 449.84375 C 7523.085938 546.484375 7501.523438 618.476563 7458.515625 666.015625 C 7415.46875 713.554688 7358.320313 737.304688 7287.03125 737.304688 C 7215.742188 737.304688 7158.28125 713.242188 7114.6875 665.15625 C 7071.09375 617.070313 7049.257813 544.53125 7049.257813 447.617188 Z M 7049.257813 447.617188 " transform="matrix(0.1,0,0,-0.1,0,262)"/>
<path style=" stroke:none;fill-rule:nonzero;fill:rgb(13.699341%,12.199402%,12.5%);fill-opacity:1;" d="M 783.734375 259.433594 L 783.734375 175.164063 L 820.132813 175.164063 C 829.285156 175.164063 835.9375 175.921875 840.082031 177.433594 C 844.230469 178.949219 847.550781 181.640625 850.046875 185.507813 C 852.535156 189.382813 853.785156 193.804688 853.785156 198.785156 C 853.785156 205.113281 851.890625 210.332031 848.113281 214.453125 C 844.339844 218.574219 838.6875 221.167969 831.171875 222.242188 C 834.914063 224.386719 837.996094 226.746094 840.433594 229.3125 C 842.863281 231.882813 846.148438 236.441406 850.277344 242.992188 L 860.734375 259.433594 L 840.054688 259.433594 L 827.550781 241.097656 C 823.113281 234.542969 820.074219 230.414063 818.4375 228.710938 C 816.800781 227.003906 815.066406 225.835938 813.238281 225.203125 C 811.40625 224.570313 808.507813 224.253906 804.535156 224.253906 L 801.027344 224.253906 L 801.027344 259.433594 Z M 801.027344 210.800781 L 813.824219 210.800781 C 822.117188 210.800781 827.300781 210.457031 829.363281 209.769531 C 831.425781 209.078125 833.046875 207.890625 834.210938 206.203125 C 835.378906 204.519531 835.96875 202.410156 835.96875 199.882813 C 835.96875 197.046875 835.195313 194.753906 833.660156 193.011719 C 832.117188 191.269531 829.949219 190.167969 827.144531 189.707031 C 825.738281 189.515625 821.535156 189.421875 814.523438 189.421875 L 801.027344 189.421875 L 801.027344 210.800781 "/>
<path style="fill:none;stroke-width:5.6693;stroke-linecap:butt;stroke-linejoin:miter;stroke:rgb(13.699341%,12.199402%,12.5%);stroke-opacity:1;stroke-miterlimit:22.9256;" d="M 7837.34375 25.664063 L 7837.34375 868.359375 L 8201.328125 868.359375 C 8292.851563 868.359375 8359.375 860.78125 8400.820313 845.664063 C 8442.304688 830.507813 8475.507813 803.59375 8500.46875 764.921875 C 8525.351563 726.171875 8537.851563 681.953125 8537.851563 632.148438 C 8537.851563 568.867188 8518.90625 516.679688 8481.132813 475.46875 C 8443.398438 434.257813 8386.875 408.320313 8311.71875 397.578125 C 8349.140625 376.132813 8379.960938 352.539063 8404.335938 326.875 C 8428.632813 301.171875 8461.484375 255.585938 8502.773438 190.078125 L 8607.34375 25.664063 L 8400.546875 25.664063 L 8275.507813 209.023438 C 8231.132813 274.570313 8200.742188 315.859375 8184.375 332.890625 C 8168.007813 349.960938 8150.664063 361.640625 8132.382813 367.96875 C 8114.0625 374.296875 8085.078125 377.460938 8045.351563 377.460938 L 8010.273438 377.460938 L 8010.273438 25.664063 Z M 8010.273438 511.992188 L 8138.242188 511.992188 C 8221.171875 511.992188 8273.007813 515.429688 8293.632813 522.304688 C 8314.257813 529.21875 8330.46875 541.09375 8342.109375 557.96875 C 8353.789063 574.804688 8359.6875 595.898438 8359.6875 621.171875 C 8359.6875 649.53125 8351.953125 672.460938 8336.601563 689.882813 C 8321.171875 707.304688 8299.492188 718.320313 8271.445313 722.929688 C 8257.382813 724.84375 8215.351563 725.78125 8145.234375 725.78125 L 8010.273438 725.78125 Z M 8010.273438 511.992188 " transform="matrix(0.1,0,0,-0.1,0,262)"/>
<path style=" stroke:none;fill-rule:nonzero;fill:rgb(13.699341%,12.199402%,12.5%);fill-opacity:1;" d="M 870.078125 259.433594 L 870.078125 175.164063 L 933.582031 175.164063 L 933.582031 189.421875 L 887.375 189.421875 L 887.375 208.097656 L 930.371094 208.097656 L 930.371094 222.300781 L 887.375 222.300781 L 887.375 245.234375 L 935.21875 245.234375 L 935.21875 259.433594 L 870.078125 259.433594 "/>
<path style="fill:none;stroke-width:5.6693;stroke-linecap:butt;stroke-linejoin:miter;stroke:rgb(13.699341%,12.199402%,12.5%);stroke-opacity:1;stroke-miterlimit:22.9256;" d="M 8700.78125 25.664063 L 8700.78125 868.359375 L 9335.820313 868.359375 L 9335.820313 725.78125 L 8873.75 725.78125 L 8873.75 539.023438 L 9303.710938 539.023438 L 9303.710938 396.992188 L 8873.75 396.992188 L 8873.75 167.65625 L 9352.1875 167.65625 L 9352.1875 25.664063 Z M 8700.78125 25.664063 " transform="matrix(0.1,0,0,-0.1,0,262)"/>
<path style=" stroke:none;fill-rule:nonzero;fill:rgb(13.699341%,12.199402%,12.5%);fill-opacity:1;" d="M 945.5 232.015625 L 962.324219 230.40625 C 963.339844 235.960938 965.390625 240.042969 968.488281 242.652344 C 971.589844 245.257813 975.761719 246.558594 981.019531 246.558594 C 986.589844 246.558594 990.785156 245.398438 993.609375 243.078125 C 996.433594 240.761719 997.847656 238.050781 997.847656 234.945313 C 997.847656 232.953125 997.253906 231.257813 996.066406 229.859375 C 994.878906 228.460938 992.800781 227.246094 989.84375 226.207031 C 987.820313 225.519531 983.203125 224.292969 975.996094 222.527344 C 966.726563 220.269531 960.222656 217.492188 956.484375 214.191406 C 951.226563 209.558594 948.597656 203.902344 948.597656 197.238281 C 948.597656 192.945313 949.832031 188.929688 952.308594 185.195313 C 954.78125 181.460938 958.34375 178.613281 963 176.65625 C 967.652344 174.703125 973.269531 173.726563 979.855469 173.726563 C 990.601563 173.726563 998.691406 176.046875 1004.128906 180.683594 C 1009.558594 185.320313 1012.410156 191.511719 1012.679688 199.25 L 995.394531 199.996094 C 994.652344 195.664063 993.066406 192.550781 990.628906 190.65625 C 988.195313 188.757813 984.546875 187.808594 979.679688 187.808594 C 974.65625 187.808594 970.71875 188.824219 967.878906 190.855469 C 966.046875 192.160156 965.132813 193.902344 965.132813 196.089844 C 965.132813 198.082031 965.988281 199.785156 967.703125 201.207031 C 969.882813 203.003906 975.179688 204.882813 983.59375 206.835938 C 992.003906 208.792969 998.226563 210.816406 1002.261719 212.902344 C 1006.289063 214.992188 1009.441406 217.84375 1011.71875 221.464844 C 1014 225.085938 1015.140625 229.5625 1015.140625 234.886719 C 1015.140625 239.71875 1013.78125 244.242188 1011.050781 248.453125 C 1008.320313 252.671875 1004.46875 255.800781 999.480469 257.855469 C 994.496094 259.902344 988.285156 260.925781 980.84375 260.925781 C 970.019531 260.925781 961.703125 258.46875 955.898438 253.539063 C 950.097656 248.617188 946.628906 241.441406 945.5 232.015625 "/>
<path style="fill:none;stroke-width:5.6693;stroke-linecap:butt;stroke-linejoin:miter;stroke:rgb(13.699341%,12.199402%,12.5%);stroke-opacity:1;stroke-miterlimit:22.9256;" d="M 9455 299.84375 L 9623.242188 315.9375 C 9633.398438 260.390625 9653.90625 219.570313 9684.882813 193.476563 C 9715.898438 167.421875 9757.617188 154.414063 9810.195313 154.414063 C 9865.898438 154.414063 9907.851563 166.015625 9936.09375 189.21875 C 9964.335938 212.382813 9978.476563 239.492188 9978.476563 270.546875 C 9978.476563 290.46875 9972.539063 307.421875 9960.664063 321.40625 C 9948.789063 335.390625 9928.007813 347.539063 9898.4375 357.929688 C 9878.203125 364.804688 9832.03125 377.070313 9759.960938 394.726563 C 9667.265625 417.304688 9602.226563 445.078125 9564.84375 478.085938 C 9512.265625 524.414063 9485.976563 580.976563 9485.976563 647.617188 C 9485.976563 690.546875 9498.320313 730.703125 9523.085938 768.046875 C 9547.8125 805.390625 9583.4375 833.867188 9630 853.4375 C 9676.523438 872.96875 9732.695313 882.734375 9798.554688 882.734375 C 9906.015625 882.734375 9986.914063 859.53125 10041.289063 813.164063 C 10095.585938 766.796875 10124.101563 704.882813 10126.796875 627.5 L 9953.945313 620.039063 C 9946.523438 663.359375 9930.664063 694.492188 9906.289063 713.4375 C 9881.953125 732.421875 9845.46875 741.914063 9796.796875 741.914063 C 9746.5625 741.914063 9707.1875 731.757813 9678.789063 711.445313 C 9660.46875 698.398438 9651.328125 680.976563 9651.328125 659.101563 C 9651.328125 639.179688 9659.882813 622.148438 9677.03125 607.929688 C 9698.828125 589.960938 9751.796875 571.171875 9835.9375 551.640625 C 9920.039063 532.070313 9982.265625 511.835938 10022.617188 490.976563 C 10062.890625 470.078125 10094.414063 441.5625 10117.1875 405.351563 C 10140 369.140625 10151.40625 324.375 10151.40625 271.132813 C 10151.40625 222.8125 10137.8125 177.578125 10110.507813 135.46875 C 10083.203125 93.28125 10044.6875 61.992188 9994.804688 41.445313 C 9944.960938 20.976563 9882.851563 10.742188 9808.4375 10.742188 C 9700.195313 10.742188 9617.03125 35.3125 9558.984375 84.609375 C 9500.976563 133.828125 9466.289063 205.585938 9455 299.84375 Z M 9455 299.84375 " transform="matrix(0.1,0,0,-0.1,0,262)"/>
</g>
</svg>
