<?xml version="1.0" encoding="UTF-8" standalone="no"?>
<svg
   width="167"
   height="80"
   viewBox="0 0 167 80"
   fill="none"
   version="1.1"
   id="svg76"
   sodipodi:docname="atlas_copco.svg"
   inkscape:version="1.4.3 (0d15f75, 2025-12-25)"
   xmlns:inkscape="http://www.inkscape.org/namespaces/inkscape"
   xmlns:sodipodi="http://sodipodi.sourceforge.net/DTD/sodipodi-0.dtd"
   xmlns="http://www.w3.org/2000/svg"
   xmlns:svg="http://www.w3.org/2000/svg">
  <sodipodi:namedview
     id="namedview76"
     pagecolor="#a7cf21"
     bordercolor="#000000"
     borderopacity="0.25"
     inkscape:showpageshadow="2"
     inkscape:pageopacity="0.0"
     inkscape:pagecheckerboard="0"
     inkscape:deskcolor="#d1d1d1"
     inkscape:zoom="6.8324193"
     inkscape:cx="89.353416"
     inkscape:cy="35.346191"
     inkscape:window-width="1920"
     inkscape:window-height="991"
     inkscape:window-x="-9"
     inkscape:window-y="-9"
     inkscape:window-maximized="1"
     inkscape:current-layer="svg76" />
  <path
     d="M0 0H166.667V16.6667H0V0Z"
     fill="url(#paint0_linear_8620_16943)"
     id="path1"
     style="fill:#ffffff;fill-opacity:1" />
  <path
     d="M165.608 36.4793C164.669 35.2422 163.243 34.5615 161.592 34.5615C158.504 34.5615 155.917 36.3212 152.943 40.4442C150.412 43.9542 147.262 48.3214 144.956 48.3214C144.402 48.3214 143.991 48.1408 143.698 47.7678C142.987 46.8648 142.993 44.8673 143.717 41.9907C144.537 38.7332 146.11 36.4584 147.543 36.4584C148.576 36.4584 148.956 37.0339 149.093 37.3879C148.667 37.3585 148.2 37.4908 147.826 37.7632C147.333 38.1241 147.062 38.6855 147.062 39.3449C147.062 39.9347 147.269 40.4651 147.646 40.8391C148.011 41.2009 148.504 41.3923 149.07 41.3923C150.509 41.3923 151.515 40.2038 151.515 38.5019C151.515 37.4196 151.106 36.3934 150.395 35.6873C149.611 34.9123 148.506 34.5184 147.107 34.5184C143.675 34.5184 140.656 37.4297 139.161 39.1646C137.483 41.1137 135.563 43.0567 134.62 43.994C135.533 40.9795 135.335 38.1626 134.045 36.3428C133.224 35.1824 132.003 34.5439 130.61 34.5439C128.493 34.5439 127.084 35.4884 126.364 36.1367L126.718 34.828H119.489L119.056 36.5822H121.073C120.136 39.6209 117.57 42.4211 116.348 43.6305C116.499 43.1481 116.657 42.4681 116.73 41.5821C116.914 39.3253 116.326 37.2844 115.114 35.9822C114.238 35.041 113.109 34.5439 111.846 34.5439C108.232 34.5439 105.093 36.7177 102.519 41.0053L101.741 42.3342C100.075 45.2197 98.3516 48.2029 95.5562 48.2029C94.7881 48.2029 94.1693 47.9031 93.7164 47.31C92.5643 45.8027 92.5043 42.4064 93.5639 38.6551C94.9001 33.9263 97.7633 29.1393 100.652 29.1393C101.14 29.1393 101.542 29.3249 101.882 29.706C102.991 30.9477 103.049 33.9269 102.905 35.0949L102.877 35.3179H104.984L107.188 27.3793H105.176L104.293 28.5782C103.825 28.024 102.359 26.6667 99.2135 26.6667C95.6261 26.6667 89.3243 30.4833 87.1943 38.676C86.1624 42.6439 86.6119 46.1332 88.461 48.4988C89.7804 50.1873 91.7257 51.155 93.8 51.155C97.3101 51.155 100.441 48.5079 101.771 46.4245C101.977 47.8511 102.899 51.156 107.008 51.156C110.692 51.156 115 48.3887 119.499 43.1455L116.018 56.6667H121.226L122.941 49.698C123.371 50.2484 124.374 51.156 126.341 51.156C129.122 51.156 133.742 47.9935 137.745 43.3954C137.193 45.69 137.509 47.7567 138.648 49.2555C139.565 50.4603 140.924 51.1504 142.377 51.1504C147.208 51.1504 150.589 47.1444 151.731 45.5695C151.708 47.0297 152.185 48.4064 153.09 49.4296C154.072 50.54 155.489 51.1504 157.081 51.1504C161.317 51.1504 164.793 48.5084 166.059 44.1525C166.941 41.1214 166.922 38.2129 165.608 36.4793ZM112.595 43.2347C111.894 45.9435 110.309 49.1069 108.151 49.1069C107.657 49.1069 107.296 48.9475 107.048 48.6209C106.367 47.727 106.511 45.5731 107.475 42.2167C108.561 38.4389 109.857 36.6024 111.439 36.6024C111.841 36.6024 112.161 36.7631 112.42 37.0936C113.201 38.0924 113.273 40.618 112.595 43.2347ZM129.488 43.3251C128.656 46.8465 127.235 48.8662 125.592 48.8662C124.308 48.8662 123.726 47.6679 123.612 47.4014C123.732 46.8935 124.571 43.3147 124.992 41.6641C125.648 39.0885 127.153 37.1465 128.491 37.1465C128.896 37.1465 129.226 37.301 129.468 37.6054C129.951 38.2096 130.347 39.6921 129.488 43.3251ZM162.738 43.2347C162.036 45.9435 160.452 49.1069 158.293 49.1069C157.8 49.1069 157.439 48.9475 157.19 48.6209C156.51 47.727 156.654 45.5731 157.618 42.2167C158.703 38.4389 159.999 36.6024 161.582 36.6024C161.983 36.6024 162.304 36.7631 162.564 37.0936C163.344 38.0924 163.416 40.618 162.738 43.2347ZM80.3458 39.9567C80.7048 40.3138 81.1834 40.5022 81.7312 40.5022C82.7194 40.5022 83.7758 39.8842 83.7758 38.1484C83.7758 37.2857 83.452 36.5072 82.8386 35.8968C81.946 35.0061 80.4969 34.5161 78.7584 34.5161C75.278 34.5161 72.8671 35.9313 71.9712 38.4996C71.3051 40.4083 72.3279 42.4453 74.8501 44.2362L75.1937 44.4797C76.6598 45.5115 77.5439 46.1344 77.3206 47.4586C77.1424 48.5108 76.001 49.2659 74.6044 49.2538C72.4673 49.2341 72.1145 48.1298 72.0568 47.7494C72.4356 47.5791 73.3942 47.0317 73.3942 45.8401C73.3942 45.274 73.2203 44.8125 72.8757 44.4696C72.347 43.9435 71.6105 43.8867 71.318 43.8867C70.6312 43.8867 69.4503 44.1283 69.2589 45.7534C69.2316 45.9841 69.257 46.2434 69.2728 46.3707C69.1127 46.6031 68.4391 47.4892 67.3402 47.8361C67.0895 47.9158 66.7216 47.8843 66.4627 47.6352C66.1142 47.2985 66.0509 46.6562 66.2845 45.825C66.522 44.9835 69.056 34.7675 69.056 34.7675H63.9086L63.5176 36.1649C63.121 35.5253 62.1381 34.5161 59.882 34.5161C56.4197 34.5161 53.4993 37.8902 52.049 40.7785C50.8319 43.2061 48.5633 47.7232 46.8047 47.7232C46.6166 47.7232 46.4746 47.6592 46.3728 47.5272C46.1838 47.2818 45.9509 46.5568 46.5158 44.4574C46.9783 42.7355 50.6606 27.6847 50.6606 27.6847H41.8763L41.4023 29.7463H44.7015L42.426 38.8242C40.7474 45.3927 37.8168 47.7232 35.8167 47.7232C35.398 47.7232 35.1012 47.608 34.9112 47.371C34.3746 46.7035 34.7313 45.121 34.9912 43.9645C35.3555 42.3498 36.514 37.6965 36.7291 36.8315H40.368L40.898 34.7327H37.2809L38.5342 29.6295L36.5591 29.6288L36.4992 29.7181C33.9013 33.6054 32.7352 34.8624 28.85 34.8624H28.6928L28.2083 36.8288H31.3198C31.1841 37.4753 30.823 39.2036 30.825 39.1954C29.1079 45.6454 25.8245 48.3231 24.4469 48.3231C23.7703 48.3231 23.3942 48.2099 23.189 47.9447C22.8494 47.5049 22.8935 46.5381 23.3273 44.8998C24.1129 41.9416 27.4392 30.0972 27.8404 28.6683H31.1564L31.7628 26.6834L24.696 26.6667C22.155 26.6667 19.1634 26.8806 16.2371 28.4667C12.5765 30.4519 9.92946 34.1709 8.36713 39.5265C8.35725 39.5646 7.3908 43.3583 6.53009 46.181C5.62096 49.159 3.22263 49.4806 2.23312 49.4806C1.61814 49.4806 0.960006 49.1823 0.430338 48.6624L0 48.3287V50.9657L0.242253 51.0434C1.16127 51.2629 2.25618 51.3726 3.49603 51.3726C6.89539 51.3726 9.91398 48.9256 11.4648 46.8279C12.7293 45.121 13.1477 43.5986 13.7794 41.2928L13.9191 40.7815H19.0313C18.8139 41.5103 18.1716 43.6809 17.61 45.7393C17.1294 47.5023 17.2529 48.8751 17.9779 49.8189C18.6914 50.7487 19.9721 51.2199 21.7857 51.2199C23.6231 51.2199 26.9424 50.771 29.1965 47.8994C29.2512 48.6001 29.4676 49.5124 30.1435 50.2095C30.7875 50.8724 31.7236 51.2088 32.9256 51.2088C35.7169 51.2088 38.8732 49.3874 40.4058 47.5292C40.4408 48.2355 40.6239 49.3995 41.3934 50.2364C41.9873 50.8816 42.8164 51.2088 43.8586 51.2088C46.9737 51.2088 49.8282 48.7248 51.127 46.7065C51.351 48.05 52.273 51.2088 56.0245 51.2088C58.4248 51.2088 60.1999 49.6991 61.1733 48.603C61.3788 49.4369 62.0679 51.2088 64.2452 51.2088C66.5427 51.2088 68.8413 49.6749 69.8973 48.4767C70.8759 50.3637 71.9781 51.2088 75.7217 51.2088C79.2726 51.2088 82.2082 48.7973 82.7217 46.5463C83.2774 44.1079 81.9295 43.1188 79.6962 41.4785L79.4258 41.2796L78.9643 40.9469C77.8618 40.155 76.9079 39.472 76.9079 38.2988C76.9079 37.0247 77.9451 36.4547 78.9728 36.4547C79.824 36.4547 80.2914 36.7888 80.4917 36.9808C80.2371 37.2217 79.7815 37.7599 79.7815 38.539C79.7815 39.0903 79.9818 39.5941 80.3458 39.9567ZM19.6186 38.6384H14.4465C16.4535 31.85 18.8446 28.8524 22.3717 28.7083L19.6186 38.6384ZM61.8762 42.3498C60.8597 46.2395 59.6501 47.9736 57.956 47.9736C57.5789 47.9736 57.2824 47.8256 57.0476 47.5207C56.3101 46.5568 56.3377 44.1896 57.122 41.3469C58.2196 37.3638 59.6093 36.8265 60.8244 36.8265C61.1947 36.8265 61.5089 36.9893 61.7576 37.3096C62.4404 38.1901 62.4843 40.0273 61.8762 42.3498Z"
     fill="url(#paint1_linear_8620_16943)"
     id="path2"
     style="fill:#ffffff;fill-opacity:1" />
  <path
     d="M0 63.3333H166.667V80H0V63.3333Z"
     fill="url(#paint2_linear_8620_16943)"
     id="path3"
     style="fill:#ffffff;fill-opacity:1" />
  <defs
     id="defs76">
    <linearGradient
       id="paint0_linear_8620_16943"
       x1="2.99816e-06"
       y1="16.6667"
       x2="166.667"
       y2="63.3333"
       gradientUnits="userSpaceOnUse">
      <stop
         offset="0.04"
         stop-color="#0092BC"
         id="stop65" />
      <stop
         offset="0.4"
         stop-color="#5CB9D4"
         id="stop66" />
      <stop
         offset="0.72"
         stop-color="#0092BC"
         id="stop67" />
      <stop
         offset="0.96"
         stop-color="#006F8F"
         id="stop68" />
    </linearGradient>
    <linearGradient
       id="paint1_linear_8620_16943"
       x1="2.99816e-06"
       y1="16.6667"
       x2="166.667"
       y2="63.3333"
       gradientUnits="userSpaceOnUse">
      <stop
         offset="0.04"
         stop-color="#0092BC"
         id="stop69" />
      <stop
         offset="0.4"
         stop-color="#5CB9D4"
         id="stop70" />
      <stop
         offset="0.72"
         stop-color="#0092BC"
         id="stop71" />
      <stop
         offset="0.96"
         stop-color="#006F8F"
         id="stop72" />
    </linearGradient>
    <linearGradient
       id="paint2_linear_8620_16943"
       x1="2.99816e-06"
       y1="16.6667"
       x2="166.667"
       y2="63.3333"
       gradientUnits="userSpaceOnUse">
      <stop
         offset="0.04"
         stop-color="#0092BC"
         id="stop73"
         style="stop-color:#ffffff;stop-opacity:1;" />
      <stop
         offset="0.4"
         stop-color="#5CB9D4"
         id="stop74" />
      <stop
         offset="0.72"
         stop-color="#0092BC"
         id="stop75" />
      <stop
         offset="0.96"
         stop-color="#006F8F"
         id="stop76" />
    </linearGradient>
  </defs>
</svg>
