<svg width="167" height="80" viewBox="0 0 167 80" fill="none" xmlns="http://www.w3.org/2000/svg">
<path d="M0 0H166.667V16.6667H0V0Z" fill="url(#paint0_linear_8620_16943)"/>
<path d="M165.608 36.4793C164.669 35.2422 163.243 34.5615 161.592 34.5615C158.504 34.5615 155.917 36.3212 152.943 40.4442C150.412 43.9542 147.262 48.3214 144.956 48.3214C144.402 48.3214 143.991 48.1408 143.698 47.7678C142.987 46.8648 142.993 44.8673 143.717 41.9907C144.537 38.7332 146.11 36.4584 147.543 36.4584C148.576 36.4584 148.956 37.0339 149.093 37.3879C148.667 37.3585 148.2 37.4908 147.826 37.7632C147.333 38.1241 147.062 38.6855 147.062 39.3449C147.062 39.9347 147.269 40.4651 147.646 40.8391C148.011 41.2009 148.504 41.3923 149.07 41.3923C150.509 41.3923 151.515 40.2038 151.515 38.5019C151.515 37.4196 151.106 36.3934 150.395 35.6873C149.611 34.9123 148.506 34.5184 147.107 34.5184C143.675 34.5184 140.656 37.4297 139.161 39.1646C137.483 41.1137 135.563 43.0567 134.62 43.994C135.533 40.9795 135.335 38.1626 134.045 36.3428C133.224 35.1824 132.003 34.5439 130.61 34.5439C128.493 34.5439 127.084 35.4884 126.364 36.1367L126.718 34.828H119.489L119.056 36.5822H121.073C120.136 39.6209 117.57 42.4211 116.348 43.6305C116.499 43.1481 116.657 42.4681 116.73 41.5821C116.914 39.3253 116.326 37.2844 115.114 35.9822C114.238 35.041 113.109 34.5439 111.846 34.5439C108.232 34.5439 105.093 36.7177 102.519 41.0053L101.741 42.3342C100.075 45.2197 98.3516 48.2029 95.5562 48.2029C94.7881 48.2029 94.1693 47.9031 93.7164 47.31C92.5643 45.8027 92.5043 42.4064 93.5639 38.6551C94.9001 33.9263 97.7633 29.1393 100.652 29.1393C101.14 29.1393 101.542 29.3249 101.882 29.706C102.991 30.9477 103.049 33.9269 102.905 35.0949L102.877 35.3179H104.984L107.188 27.3793H105.176L104.293 28.5782C103.825 28.024 102.359 26.6667 99.2135 26.6667C95.6261 26.6667 89.3243 30.4833 87.1943 38.676C86.1624 42.6439 86.6119 46.1332 88.461 48.4988C89.7804 50.1873 91.7257 51.155 93.8 51.155C97.3101 51.155 100.441 48.5079 101.771 46.4245C101.977 47.8511 102.899 51.156 107.008 51.156C110.692 51.156 115 48.3887 119.499 43.1455L116.018 56.6667H121.226L122.941 49.698C123.371 50.2484 124.374 51.156 126.341 51.156C129.122 51.156 133.742 47.9935 137.745 43.3954C137.193 45.69 137.509 47.7567 138.648 49.2555C139.565 50.4603 140.924 51.1504 142.377 51.1504C147.208 51.1504 150.589 47.1444 151.731 45.5695C151.708 47.0297 152.185 48.4064 153.09 49.4296C154.072 50.54 155.489 51.1504 157.081 51.1504C161.317 51.1504 164.793 48.5084 166.059 44.1525C166.941 41.1214 166.922 38.2129 165.608 36.4793ZM112.595 43.2347C111.894 45.9435 110.309 49.1069 108.151 49.1069C107.657 49.1069 107.296 48.9475 107.048 48.6209C106.367 47.727 106.511 45.5731 107.475 42.2167C108.561 38.4389 109.857 36.6024 111.439 36.6024C111.841 36.6024 112.161 36.7631 112.42 37.0936C113.201 38.0924 113.273 40.618 112.595 43.2347ZM129.488 43.3251C128.656 46.8465 127.235 48.8662 125.592 48.8662C124.308 48.8662 123.726 47.6679 123.612 47.4014C123.732 46.8935 124.571 43.3147 124.992 41.6641C125.648 39.0885 127.153 37.1465 128.491 37.1465C128.896 37.1465 129.226 37.301 129.468 37.6054C129.951 38.2096 130.347 39.6921 129.488 43.3251ZM162.738 43.2347C162.036 45.9435 160.452 49.1069 158.293 49.1069C157.8 49.1069 157.439 48.9475 157.19 48.6209C156.51 47.727 156.654 45.5731 157.618 42.2167C158.703 38.4389 159.999 36.6024 161.582 36.6024C161.983 36.6024 162.304 36.7631 162.564 37.0936C163.344 38.0924 163.416 40.618 162.738 43.2347ZM80.3458 39.9567C80.7048 40.3138 81.1834 40.5022 81.7312 40.5022C82.7194 40.5022 83.7758 39.8842 83.7758 38.1484C83.7758 37.2857 83.452 36.5072 82.8386 35.8968C81.946 35.0061 80.4969 34.5161 78.7584 34.5161C75.278 34.5161 72.8671 35.9313 71.9712 38.4996C71.3051 40.4083 72.3279 42.4453 74.8501 44.2362L75.1937 44.4797C76.6598 45.5115 77.5439 46.1344 77.3206 47.4586C77.1424 48.5108 76.001 49.2659 74.6044 49.2538C72.4673 49.2341 72.1145 48.1298 72.0568 47.7494C72.4356 47.5791 73.3942 47.0317 73.3942 45.8401C73.3942 45.274 73.2203 44.8125 72.8757 44.4696C72.347 43.9435 71.6105 43.8867 71.318 43.8867C70.6312 43.8867 69.4503 44.1283 69.2589 45.7534C69.2316 45.9841 69.257 46.2434 69.2728 46.3707C69.1127 46.6031 68.4391 47.4892 67.3402 47.8361C67.0895 47.9158 66.7216 47.8843 66.4627 47.6352C66.1142 47.2985 66.0509 46.6562 66.2845 45.825C66.522 44.9835 69.056 34.7675 69.056 34.7675H63.9086L63.5176 36.1649C63.121 35.5253 62.1381 34.5161 59.882 34.5161C56.4197 34.5161 53.4993 37.8902 52.049 40.7785C50.8319 43.2061 48.5633 47.7232 46.8047 47.7232C46.6166 47.7232 46.4746 47.6592 46.3728 47.5272C46.1838 47.2818 45.9509 46.5568 46.5158 44.4574C46.9783 42.7355 50.6606 27.6847 50.6606 27.6847H41.8763L41.4023 29.7463H44.7015L42.426 38.8242C40.7474 45.3927 37.8168 47.7232 35.8167 47.7232C35.398 47.7232 35.1012 47.608 34.9112 47.371C34.3746 46.7035 34.7313 45.121 34.9912 43.9645C35.3555 42.3498 36.514 37.6965 36.7291 36.8315H40.368L40.898 34.7327H37.2809L38.5342 29.6295L36.5591 29.6288L36.4992 29.7181C33.9013 33.6054 32.7352 34.8624 28.85 34.8624H28.6928L28.2083 36.8288H31.3198C31.1841 37.4753 30.823 39.2036 30.825 39.1954C29.1079 45.6454 25.8245 48.3231 24.4469 48.3231C23.7703 48.3231 23.3942 48.2099 23.189 47.9447C22.8494 47.5049 22.8935 46.5381 23.3273 44.8998C24.1129 41.9416 27.4392 30.0972 27.8404 28.6683H31.1564L31.7628 26.6834L24.696 26.6667C22.155 26.6667 19.1634 26.8806 16.2371 28.4667C12.5765 30.4519 9.92946 34.1709 8.36713 39.5265C8.35725 39.5646 7.3908 43.3583 6.53009 46.181C5.62096 49.159 3.22263 49.4806 2.23312 49.4806C1.61814 49.4806 0.960006 49.1823 0.430338 48.6624L0 48.3287V50.9657L0.242253 51.0434C1.16127 51.2629 2.25618 51.3726 3.49603 51.3726C6.89539 51.3726 9.91398 48.9256 11.4648 46.8279C12.7293 45.121 13.1477 43.5986 13.7794 41.2928L13.9191 40.7815H19.0313C18.8139 41.5103 18.1716 43.6809 17.61 45.7393C17.1294 47.5023 17.2529 48.8751 17.9779 49.8189C18.6914 50.7487 19.9721 51.2199 21.7857 51.2199C23.6231 51.2199 26.9424 50.771 29.1965 47.8994C29.2512 48.6001 29.4676 49.5124 30.1435 50.2095C30.7875 50.8724 31.7236 51.2088 32.9256 51.2088C35.7169 51.2088 38.8732 49.3874 40.4058 47.5292C40.4408 48.2355 40.6239 49.3995 41.3934 50.2364C41.9873 50.8816 42.8164 51.2088 43.8586 51.2088C46.9737 51.2088 49.8282 48.7248 51.127 46.7065C51.351 48.05 52.273 51.2088 56.0245 51.2088C58.4248 51.2088 60.1999 49.6991 61.1733 48.603C61.3788 49.4369 62.0679 51.2088 64.2452 51.2088C66.5427 51.2088 68.8413 49.6749 69.8973 48.4767C70.8759 50.3637 71.9781 51.2088 75.7217 51.2088C79.2726 51.2088 82.2082 48.7973 82.7217 46.5463C83.2774 44.1079 81.9295 43.1188 79.6962 41.4785L79.4258 41.2796L78.9643 40.9469C77.8618 40.155 76.9079 39.472 76.9079 38.2988C76.9079 37.0247 77.9451 36.4547 78.9728 36.4547C79.824 36.4547 80.2914 36.7888 80.4917 36.9808C80.2371 37.2217 79.7815 37.7599 79.7815 38.539C79.7815 39.0903 79.9818 39.5941 80.3458 39.9567ZM19.6186 38.6384H14.4465C16.4535 31.85 18.8446 28.8524 22.3717 28.7083L19.6186 38.6384ZM61.8762 42.3498C60.8597 46.2395 59.6501 47.9736 57.956 47.9736C57.5789 47.9736 57.2824 47.8256 57.0476 47.5207C56.3101 46.5568 56.3377 44.1896 57.122 41.3469C58.2196 37.3638 59.6093 36.8265 60.8244 36.8265C61.1947 36.8265 61.5089 36.9893 61.7576 37.3096C62.4404 38.1901 62.4843 40.0273 61.8762 42.3498Z" fill="url(#paint1_linear_8620_16943)"/>
<path d="M0 63.3333H166.667V80H0V63.3333Z" fill="url(#paint2_linear_8620_16943)"/>
<path d="M0 16.25V16.6667H166.667V16.25H0Z" fill="#006F8F"/>
<path d="M143.172 45.8486C143.196 44.9091 143.378 43.7546 143.717 42.4073C144.537 39.1498 146.11 36.8751 147.543 36.8751C148.217 36.8751 148.613 37.12 148.845 37.3886C148.929 37.3826 149.012 37.3823 149.093 37.3879C148.956 37.0339 148.576 36.4584 147.543 36.4584C146.11 36.4584 144.537 38.7332 143.717 41.9907C143.326 43.5444 143.144 44.8417 143.172 45.8486Z" fill="#006F8F"/>
<path d="M147.071 39.5559C147.065 39.6233 147.062 39.6919 147.062 39.7615C147.062 40.3514 147.269 40.8818 147.646 41.2557C148.011 41.6176 148.504 41.809 149.07 41.809C150.509 41.809 151.515 40.6205 151.515 38.9186C151.515 38.8487 151.514 38.7791 151.51 38.7097C151.432 40.2998 150.45 41.3923 149.07 41.3923C148.504 41.3923 148.011 41.2009 147.646 40.8391C147.315 40.5103 147.114 40.0606 147.071 39.5559Z" fill="#006F8F"/>
<path d="M134.782 43.8325C135.07 42.717 135.203 41.6364 135.182 40.6321C135.16 41.6924 134.973 42.8284 134.62 43.994C134.671 43.9431 134.726 43.8892 134.782 43.8325Z" fill="#006F8F"/>
<path d="M126.512 36.0082L126.829 34.8292H126.717L126.364 36.1367C126.411 36.095 126.46 36.052 126.512 36.0082Z" fill="#006F8F"/>
<path d="M119.057 36.5822L118.954 36.9989H120.934C120.983 36.8606 121.03 36.7216 121.073 36.5822H119.057Z" fill="#006F8F"/>
<path d="M116.503 43.475C116.598 43.0694 116.682 42.5781 116.73 41.9987C116.758 41.6551 116.768 41.3164 116.761 40.9846C116.756 41.1818 116.746 41.3811 116.73 41.5821C116.657 42.4681 116.499 43.1481 116.348 43.6305C116.397 43.5813 116.449 43.5294 116.503 43.475Z" fill="#006F8F"/>
<path d="M92.8105 43.8118C92.8333 42.4001 93.0835 40.7724 93.5639 39.0718C94.9001 34.343 97.7633 29.556 100.652 29.556C101.14 29.556 101.542 29.7415 101.882 30.1227C102.686 31.0226 102.937 32.8354 102.96 34.2096C102.984 32.8093 102.77 30.7004 101.882 29.706C101.542 29.3249 101.14 29.1393 100.652 29.1393C97.7633 29.1393 94.9001 33.9263 93.5639 38.6551C93.0355 40.5257 92.7855 42.308 92.8105 43.8118Z" fill="#006F8F"/>
<path d="M102.876 35.3179C102.862 35.4782 102.828 35.7346 102.828 35.7346H104.984L107.188 27.796V27.3779L107.072 27.796L104.984 35.3179H102.876Z" fill="#006F8F"/>
<path d="M86.6533 42.8643C86.6154 45.2545 87.2261 47.3356 88.461 48.9154C89.7804 50.604 91.7257 51.5717 93.8 51.5717C97.3101 51.5717 100.441 48.9246 101.771 46.8412C101.977 48.2678 102.899 51.5726 107.008 51.5726C110.651 51.5726 114.903 48.8678 119.346 43.7395L119.499 43.1455C115 48.3887 110.692 51.156 107.008 51.156C102.899 51.156 101.977 47.8511 101.771 46.4245C100.441 48.5079 97.3101 51.155 93.8 51.155C91.7257 51.155 89.7804 50.1873 88.461 48.4988C87.2984 47.0114 86.6891 45.0798 86.6533 42.8643Z" fill="#006F8F"/>
<path d="M116.018 56.6667V57.0833H121.226L122.941 50.1147C123.371 50.665 124.374 51.5726 126.341 51.5726C129.095 51.5726 133.653 48.4711 137.628 43.9451C137.662 43.7634 137.7 43.5801 137.745 43.3954C133.742 47.9935 129.122 51.156 126.341 51.156C124.374 51.156 123.371 50.2484 122.941 49.698L121.226 56.6667H116.018Z" fill="#006F8F"/>
<path d="M137.483 45.7284C137.443 47.2492 137.837 48.6047 138.648 49.6722C139.565 50.877 140.924 51.5671 142.377 51.5671C147.208 51.5671 150.589 47.561 151.731 45.9862C151.708 47.4464 152.185 48.823 153.09 49.8463C154.072 50.9567 155.489 51.5671 157.081 51.5671C161.317 51.5671 164.793 48.9251 166.059 44.5692C166.475 43.1398 166.691 41.7376 166.665 40.4731C166.641 41.6258 166.43 42.8783 166.059 44.1526C164.793 48.5084 161.317 51.1504 157.081 51.1504C155.489 51.1504 154.072 50.54 153.09 49.4296C152.185 48.4064 151.708 47.0297 151.731 45.5695C150.589 47.1444 147.208 51.1504 142.377 51.1504C140.924 51.1504 139.565 50.4603 138.648 49.2555C137.912 48.2866 137.519 47.0802 137.483 45.7284Z" fill="#006F8F"/>
<path d="M113.057 40.0467C113.083 38.7408 112.868 37.6663 112.42 37.0936C112.161 36.7631 111.841 36.6024 111.439 36.6024C109.857 36.6024 108.561 38.4389 107.475 42.2167C106.875 44.3075 106.592 45.9317 106.629 47.0754C106.662 45.9659 106.944 44.482 107.475 42.6333C108.561 38.8556 109.857 37.0191 111.439 37.0191C111.841 37.0191 112.161 37.1798 112.42 37.5103C112.819 38.0208 113.033 38.9302 113.057 40.0467Z" fill="#006F8F"/>
<path d="M123.677 47.541C123.913 46.5368 124.618 43.5475 124.992 42.0807C125.648 39.5052 127.153 37.5632 128.491 37.5632C128.896 37.5632 129.226 37.7177 129.468 38.0221C129.728 38.3473 129.963 38.9269 129.99 39.9594C130.022 38.6619 129.761 37.972 129.468 37.6054C129.226 37.301 128.896 37.1465 128.491 37.1465C127.153 37.1465 125.648 39.0885 124.992 41.6641C124.581 43.2733 123.773 46.7154 123.623 47.3575L123.612 47.4014C123.627 47.4347 123.648 47.4826 123.677 47.541Z" fill="#006F8F"/>
<path d="M163.2 40.0458C163.226 38.7403 163.011 37.6661 162.564 37.0936C162.304 36.7631 161.983 36.6024 161.582 36.6024C159.999 36.6024 158.703 38.4389 157.618 42.2167C157.017 44.3081 156.735 45.9326 156.772 47.0763C156.805 45.9668 157.087 44.4825 157.618 42.6333C158.703 38.8556 159.999 37.0191 161.582 37.0191C161.983 37.0191 162.304 37.1798 162.564 37.5103C162.963 38.0206 163.176 38.9297 163.2 40.0458Z" fill="#006F8F"/>
<path d="M80.3458 39.9567C80.7048 40.3138 81.1834 40.5022 81.7312 40.5022C82.6768 40.5022 83.6849 39.9363 83.77 38.3666C83.7738 38.4322 83.7758 38.4984 83.7758 38.5651C83.7758 40.3009 82.7194 40.9188 81.7312 40.9188C81.1834 40.9188 80.7048 40.7305 80.3458 40.3734C79.9818 40.0108 79.7815 39.507 79.7815 38.9557C79.7815 38.8865 79.7851 38.8192 79.7918 38.7539C79.837 39.2204 80.0296 39.6418 80.3458 39.9567Z" fill="#006F8F"/>
<path d="M80.2696 37.2208C80.3494 37.1223 80.427 37.0419 80.4917 36.9808C80.2914 36.7888 79.824 36.4547 78.9728 36.4547C77.9451 36.4547 76.9079 37.0247 76.9079 38.2988C76.9079 38.3687 76.9112 38.4369 76.9178 38.5035C77.0266 37.378 78.0039 36.8714 78.9728 36.8714C79.5949 36.8714 80.012 37.0498 80.2696 37.2208Z" fill="#006F8F"/>
<path d="M82.8407 45.7381C82.8626 46.1052 82.8251 46.5089 82.7217 46.963C82.2082 49.214 79.2726 51.6255 75.7217 51.6255C71.9781 51.6255 70.8759 50.7804 69.8973 48.8933C68.8413 50.0915 66.5427 51.6255 64.2452 51.6255C62.0679 51.6255 61.3788 49.8536 61.1733 49.0197C60.1999 50.1158 58.4248 51.6255 56.0245 51.6255C52.273 51.6255 51.351 48.4667 51.127 47.1231C49.8282 49.1414 46.9737 51.6255 43.8586 51.6255C42.8164 51.6255 41.9873 51.2983 41.3934 50.653C40.6239 49.8162 40.4408 48.6521 40.4058 47.9459C38.8732 49.804 35.7169 51.6255 32.9256 51.6255C31.7236 51.6255 30.7875 51.2891 30.1435 50.6261C29.4676 49.9291 29.2512 49.0167 29.1965 48.3161C26.9424 51.1877 23.6231 51.6366 21.7857 51.6366C19.9721 51.6366 18.6914 51.1653 17.9779 50.2356C17.5067 49.6222 17.2896 48.8276 17.3273 47.8625C17.3593 48.6418 17.5764 49.2962 17.9779 49.8189C18.6914 50.7487 19.9721 51.2199 21.7857 51.2199C23.6231 51.2199 26.9424 50.771 29.1965 47.8994C29.2512 48.6001 29.4676 49.5124 30.1435 50.2095C30.7875 50.8724 31.7236 51.2088 32.9256 51.2088C35.7169 51.2088 38.8732 49.3874 40.4058 47.5292C40.4408 48.2355 40.6239 49.3995 41.3934 50.2364C41.9873 50.8816 42.8164 51.2088 43.8586 51.2088C46.9737 51.2088 49.8282 48.7248 51.127 46.7065C51.351 48.05 52.273 51.2088 56.0245 51.2088C58.4248 51.2088 60.1999 49.6991 61.1733 48.603C61.3788 49.4369 62.0679 51.2088 64.2452 51.2088C66.5427 51.2088 68.8413 49.6749 69.8973 48.4767C70.8759 50.3637 71.9781 51.2088 75.7217 51.2088C79.2726 51.2088 82.2082 48.7973 82.7217 46.5463C82.7874 46.2578 82.8265 45.9895 82.8407 45.7381Z" fill="#006F8F"/>
<path d="M19.0313 40.7815C18.9989 40.8901 18.9571 41.0307 18.9075 41.1981H13.9191L13.7794 41.7094C13.1477 44.0152 12.7293 45.5377 11.4648 47.2446C9.91398 49.3423 6.89539 51.7892 3.49603 51.7892C2.25618 51.7892 1.16127 51.6796 0.242252 51.4601L0 51.3823V50.9657L0.242252 51.0434C1.16127 51.2629 2.25618 51.3726 3.49603 51.3726C6.89539 51.3726 9.91398 48.9256 11.4648 46.8279C12.7293 45.121 13.1477 43.5986 13.7794 41.2928L13.9191 40.7815H19.0313Z" fill="#006F8F"/>
<path d="M31.6356 27.0998L31.1564 28.6683H27.8404C26.3226 34.0743 24.7685 39.4728 23.3273 44.8998C23.0525 45.9376 22.9341 46.706 22.9705 47.2416C22.9984 46.7466 23.1171 46.1104 23.3273 45.3165C24.7685 39.8895 26.3226 34.4909 27.8404 29.0849H31.1564L31.7628 27.1001L31.7625 26.6833L31.6356 27.0998Z" fill="#006F8F"/>
<path d="M31.3198 36.8288C31.2964 36.9404 31.2663 37.0841 31.2325 37.2455H28.2083V36.8288H31.3198Z" fill="#006F8F"/>
<path d="M38.4319 30.0461L37.2809 34.7327H37.3832L38.5342 30.0462L38.5333 29.6292L38.4319 30.0461Z" fill="#006F8F"/>
<path d="M40.898 34.7383L40.368 36.8315H36.7291L36.7047 36.9297L36.7044 36.9308C36.4374 38.0045 35.3433 42.4039 34.9912 43.9645L34.99 43.9701C34.8141 44.7529 34.5946 45.7294 34.6376 46.4852C34.6704 45.8088 34.845 45.032 34.99 44.3868L34.9912 44.3812C35.3428 42.8228 36.4342 38.4341 36.7032 37.3522L36.704 37.3489L36.7043 37.3477L36.7047 37.3463L36.7291 37.2481H40.368L40.898 35.1494V34.7383Z" fill="#006F8F"/>
<path d="M44.7015 29.7463L44.597 30.163H41.4023V29.7463H44.7015Z" fill="#006F8F"/>
<path d="M50.5586 28.1014C49.9617 30.5397 46.9324 42.9063 46.5158 44.4574C46.2095 45.5956 46.1378 46.3298 46.1664 46.8027C46.1898 46.3443 46.2879 45.7211 46.5158 44.8741C46.9783 43.1521 50.6606 28.1014 50.6606 28.1014V27.6839L50.5586 28.1014Z" fill="#006F8F"/>
<path d="M66.2845 45.825C66.4932 45.0857 68.4746 37.1099 68.9526 35.1842L69.056 34.7656V35.1842C69.056 35.1842 66.522 45.4002 66.2845 46.2416C66.2163 46.4842 66.1735 46.7106 66.1556 46.9181C66.1249 46.611 66.1674 46.2417 66.2845 45.825Z" fill="#006F8F"/>
<path d="M73.3851 46.038C73.3911 46.1091 73.3942 46.182 73.3942 46.2567C73.3942 47.3465 72.5924 47.8975 72.1657 48.114C72.1002 47.9681 72.0704 47.8388 72.0568 47.7494C72.414 47.5888 73.2866 47.093 73.3851 46.038Z" fill="#006F8F"/>
<path d="M75.1937 44.4797C76.5933 45.4647 77.4624 46.077 77.3442 47.2826C77.2424 46.3387 76.4224 45.7612 75.1937 44.8964L74.8501 44.6529C72.7409 43.1552 71.6803 41.4855 71.779 39.8625C71.8691 41.3527 72.921 42.8665 74.8501 44.2362L75.1937 44.4797Z" fill="#006F8F"/>
<path d="M14.5716 38.6384H14.4465C16.4535 31.85 18.8446 28.8524 22.3717 28.7083L22.2546 29.1308C18.864 29.3318 16.5305 32.2175 14.5716 38.6384Z" fill="#006F8F"/>
<path d="M62.2999 39.6649C62.3289 38.6265 62.1474 37.8122 61.7576 37.3096C61.5089 36.9893 61.1947 36.8265 60.8244 36.8265C59.6093 36.8265 58.2196 37.3638 57.122 41.3469C56.6908 42.9098 56.4883 44.329 56.516 45.4502C56.5403 44.4026 56.7426 43.1388 57.122 41.7636C58.2196 37.7804 59.6093 37.2432 60.8244 37.2432C61.1947 37.2432 61.5089 37.406 61.7576 37.7263C62.0936 38.1596 62.2749 38.8245 62.2999 39.6649Z" fill="#006F8F"/>
<path d="M0 79.5833V80H166.667V79.5833H0Z" fill="#006F8F"/>
<path d="M0 0H166.667V0.416667H0V0Z" fill="#B8E0EC"/>
<path d="M165.608 36.4793C164.669 35.2422 163.243 34.5615 161.592 34.5615C158.504 34.5615 155.917 36.3212 152.943 40.4442C150.412 43.9542 147.262 48.3214 144.956 48.3214C144.402 48.3214 143.991 48.1408 143.698 47.7678C143.371 47.3526 143.196 46.7058 143.172 45.8486C143.145 46.915 143.32 47.7044 143.698 48.1845C143.991 48.5575 144.402 48.7381 144.956 48.7381C147.262 48.7381 150.412 44.3708 152.943 40.8609C155.917 36.7379 158.504 34.9782 161.592 34.9782C163.243 34.9782 164.669 35.6588 165.608 36.896C166.303 37.812 166.635 39.0562 166.665 40.4731C166.696 38.8837 166.37 37.4841 165.608 36.4793Z" fill="#B8E0EC"/>
<path d="M137.483 45.7284C137.499 45.1139 137.586 44.4724 137.745 43.812L137.829 43.3958H137.746C137.727 43.4171 137.628 43.9451 137.628 43.9451C137.516 44.5609 137.468 45.1576 137.483 45.7284Z" fill="#B8E0EC"/>
<path d="M116.125 56.6667L119.499 43.5622C119.583 43.3333 119.528 43.1136 119.5 43.1458L119.346 43.7395L116.018 56.6667H116.125Z" fill="#B8E0EC"/>
<path d="M86.6533 42.8643C86.6722 41.6757 86.8515 40.4105 87.1943 39.0927C89.3243 30.9 95.6261 27.0833 99.2135 27.0833C102.359 27.0833 103.825 28.4407 104.293 28.9949L105.176 27.796H107.072L107.188 27.3793H105.176L104.293 28.5782C103.825 28.024 102.359 26.6667 99.2135 26.6667C95.6261 26.6667 89.3243 30.4833 87.1943 38.676C86.8112 40.1491 86.6323 41.5562 86.6533 42.8643Z" fill="#B8E0EC"/>
<path d="M92.8105 43.8118C92.7831 45.5142 93.0866 46.9027 93.7164 47.7266C94.1693 48.3197 94.7881 48.6195 95.5562 48.6195C98.3516 48.6195 100.075 45.6364 101.741 42.7509L102.519 41.422C105.093 37.1344 108.232 34.9606 111.846 34.9606C113.109 34.9606 114.238 35.4576 115.114 36.3989C116.141 37.5028 116.72 39.1375 116.761 40.9846C116.804 38.9676 116.218 37.1684 115.114 35.9822C114.238 35.041 113.109 34.5439 111.846 34.5439C108.232 34.5439 105.093 36.7177 102.519 41.0053L101.741 42.3342C100.075 45.2197 98.3516 48.2029 95.5562 48.2029C94.7881 48.2029 94.1693 47.9031 93.7164 47.31C93.1388 46.5543 92.8357 45.3238 92.8105 43.8118Z" fill="#B8E0EC"/>
<path d="M116.503 43.475L116.346 43.6292C116.317 43.7354 116.25 43.9583 116.348 44.0472C117.57 42.8378 120.136 40.0375 121.073 36.9989L121.208 36.5833H121.071L120.934 36.9989C119.947 39.7518 117.716 42.254 116.503 43.475Z" fill="#B8E0EC"/>
<path d="M119.159 36.5822L119.489 35.2447H126.606L126.718 34.828H119.489L119.056 36.5822H119.159Z" fill="#B8E0EC"/>
<path d="M126.512 36.0081L126.362 36.1375L126.237 36.5534C126.957 35.9051 128.493 34.9606 130.61 34.9606C132.003 34.9606 133.224 35.5991 134.045 36.7595C134.77 37.7825 135.15 39.1208 135.182 40.6321C135.217 38.9502 134.836 37.459 134.045 36.3428C133.224 35.1824 132.003 34.5439 130.61 34.5439C128.629 34.5439 127.268 35.3707 126.512 36.0081Z" fill="#B8E0EC"/>
<path d="M134.782 43.8325L134.621 43.9958C134.591 44.1048 134.579 44.4107 134.579 44.4107C135.522 43.4733 137.483 41.5304 139.161 39.5813C140.656 37.8464 143.675 34.9351 147.107 34.9351C148.506 34.9351 149.611 35.329 150.395 36.104C151.06 36.7645 151.461 37.7051 151.51 38.7097C151.514 38.6414 151.515 38.5721 151.515 38.5019C151.515 37.4196 151.106 36.3934 150.395 35.6873C149.611 34.9123 148.506 34.5184 147.107 34.5184C143.675 34.5184 140.656 37.4297 139.161 39.1646C137.574 41.0078 135.771 42.8455 134.782 43.8325Z" fill="#B8E0EC"/>
<path d="M147.071 39.5559C147.121 38.9857 147.385 38.5026 147.826 38.1798C148.2 37.9074 148.667 37.7752 149.093 37.8046C149.167 37.7083 149.143 37.4701 149.093 37.3886L148.969 37.3833L148.845 37.3886C148.492 37.4142 148.128 37.5429 147.826 37.7632C147.333 38.1241 147.062 38.6855 147.062 39.3449C147.062 39.4161 147.065 39.4865 147.071 39.5559Z" fill="#B8E0EC"/>
<path d="M112.595 43.2347C111.894 45.9435 110.309 49.1069 108.151 49.1069C107.657 49.1069 107.296 48.9475 107.048 48.6209C106.791 48.2839 106.652 47.7676 106.629 47.0754C106.603 47.9802 106.742 48.636 107.048 49.0376C107.296 49.3642 107.657 49.5236 108.151 49.5236C110.309 49.5236 111.894 46.3601 112.595 43.6513C112.927 42.3721 113.079 41.1146 113.057 40.0467C113.037 41.0184 112.884 42.1183 112.595 43.2347Z" fill="#B8E0EC"/>
<path d="M129.488 43.3251C128.656 46.8465 127.235 48.8662 125.592 48.8662C124.469 48.8662 123.883 47.9489 123.677 47.541L123.613 47.4C123.613 47.4 123.542 47.7083 123.612 47.8181C123.683 47.9278 124.308 49.2829 125.592 49.2829C127.235 49.2829 128.656 47.2632 129.488 43.7418C129.885 42.0642 130.014 40.8452 129.99 39.9594C129.97 40.8003 129.826 41.8964 129.488 43.3251Z" fill="#B8E0EC"/>
<path d="M162.738 43.2347C162.036 45.9435 160.452 49.1069 158.293 49.1069C157.8 49.1069 157.439 48.9475 157.19 48.6209C156.933 48.284 156.794 47.7681 156.772 47.0763C156.745 47.9807 156.884 48.6362 157.19 49.0376C157.439 49.3642 157.8 49.5236 158.293 49.5236C160.452 49.5236 162.036 46.3601 162.738 43.6513C163.07 42.3717 163.222 41.1139 163.2 40.0458C163.18 41.0177 163.027 42.1179 162.738 43.2347Z" fill="#B8E0EC"/>
<path d="M83.77 38.3666C83.724 37.583 83.4045 36.8767 82.8386 36.3135C81.946 35.4228 80.4969 34.9328 78.7584 34.9328C75.278 34.9328 72.8671 36.3479 71.9712 38.9163C71.8621 39.2288 71.7984 39.5448 71.779 39.8625C71.7513 39.4044 71.8146 38.9484 71.9712 38.4996C72.8671 35.9313 75.278 34.5161 78.7584 34.5161C80.4969 34.5161 81.946 35.0061 82.8386 35.8968C83.452 36.5072 83.7758 37.2857 83.7758 38.1484C83.7758 38.2232 83.7738 38.2959 83.77 38.3666Z" fill="#B8E0EC"/>
<path d="M79.7918 38.7539C79.8608 38.0833 80.2597 37.6169 80.4917 37.3974L80.625 37.2917C80.625 37.2917 80.625 37.0771 80.4917 36.9792L80.3807 37.0875L80.2696 37.2208C80.0351 37.5105 79.7815 37.9577 79.7815 38.539C79.7815 38.6115 79.785 38.6832 79.7918 38.7539Z" fill="#B8E0EC"/>
<path d="M76.9178 38.5035C76.9112 38.5719 76.9079 38.6425 76.9079 38.7154C76.9079 39.8864 77.8581 40.569 78.9579 41.359L78.9643 41.3635L79.4258 41.6963L79.6962 41.8952L79.6981 41.8966C81.5145 43.2307 82.7448 44.1342 82.8407 45.7381C82.946 43.8653 81.6661 42.9253 79.6981 41.4799L79.6962 41.4785L79.4258 41.2796L78.9643 40.9469L78.9579 40.9423C77.9238 40.1995 77.0219 39.5517 76.9178 38.5035Z" fill="#B8E0EC"/>
<path d="M17.61 45.7393C17.3956 46.5258 17.3014 47.2347 17.3273 47.8625C17.3475 47.3426 17.4417 46.7732 17.61 46.156C18.1716 44.0976 19.0243 41.5122 19.2417 40.7833H19.0333C18.7501 41.7399 18.0879 43.9876 17.61 45.7393Z" fill="#B8E0EC"/>
<path d="M0 48.3287V48.7453L0.430338 49.0791C0.960007 49.5989 1.61814 49.8973 2.23312 49.8973C3.22263 49.8973 5.62096 49.5756 6.53009 46.5977C7.36421 43.8622 8.29763 40.2147 8.36351 39.9573L8.36713 39.9431C9.92946 34.5875 12.5765 30.8686 16.2371 28.8834C19.1634 27.2973 22.155 27.0833 24.696 27.0833L31.6356 27.0998L31.7628 26.6834L24.696 26.6667C22.155 26.6667 19.1634 26.8806 16.2371 28.4667C12.5765 30.4519 9.92946 34.1709 8.36713 39.5265L8.36351 39.5406C8.29763 39.7981 7.36421 43.4456 6.53009 46.181C5.62096 49.159 3.22263 49.4806 2.23312 49.4806C1.61814 49.4806 0.960007 49.1823 0.430338 48.6624L0 48.3287Z" fill="#B8E0EC"/>
<path d="M23.189 47.9447C23.0645 47.7835 22.9916 47.5515 22.9705 47.2416C22.9408 47.768 23.0139 48.1347 23.189 48.3614C23.3942 48.6265 23.5417 48.75 24.4469 48.7397C25.8245 48.7397 29.1079 46.0621 30.825 39.612C30.823 39.6202 31.3226 37.4753 31.4583 36.8288L31.3198 36.8278C31.1576 37.6022 30.8234 39.2021 30.825 39.1954C29.1079 45.6454 25.8245 48.3231 24.4469 48.3231C23.7703 48.3231 23.3942 48.2099 23.189 47.9447Z" fill="#B8E0EC"/>
<path d="M28.311 36.8288L28.6928 35.279H28.85C32.7352 35.279 33.9013 34.0221 36.4992 30.1348L36.5591 30.0455L38.4319 30.0461L38.5342 29.6295L36.5591 29.6288L36.4992 29.7181C33.9013 33.6054 32.7352 34.8624 28.85 34.8624H28.6928L28.2083 36.8288H28.311Z" fill="#B8E0EC"/>
<path d="M37.2759 34.7327L37.1736 35.1494H40.7927L40.898 34.7327H37.2759Z" fill="#B8E0EC"/>
<path d="M34.6376 46.4852C34.6581 46.8456 34.7382 47.1558 34.9112 47.371C35.1012 47.608 35.398 47.7232 35.8167 47.7232C37.8168 47.7232 40.7474 45.3927 42.426 38.8242L44.7 29.7458H44.8042L42.426 39.2408C40.7474 45.8094 37.8168 48.1398 35.8167 48.1398C35.398 48.1398 35.1012 48.0246 34.9112 47.7877C34.6745 47.4932 34.6116 47.0207 34.6376 46.4852Z" fill="#B8E0EC"/>
<path d="M41.4981 29.7463L41.8763 28.1014H50.5586C50.6244 27.8328 50.6606 27.6847 50.6606 27.6847H41.8763L41.4023 29.7463H41.4981Z" fill="#B8E0EC"/>
<path d="M46.1664 46.8027C46.1905 47.202 46.2863 47.4149 46.3728 47.5272C46.4746 47.6592 46.6166 47.7232 46.8047 47.7232C48.5633 47.7232 50.8319 43.2061 52.049 40.7785C53.4993 37.8902 56.4197 34.5161 59.882 34.5161C62.1381 34.5161 63.121 35.5253 63.5176 36.1649L63.9086 34.7675H69.056C69.056 34.7675 69.0187 34.9181 68.9526 35.1842H63.9086L63.5176 36.5816C63.121 35.942 62.1381 34.9328 59.882 34.9328C56.4197 34.9328 53.4993 38.3068 52.049 41.1952C50.8319 43.6227 48.5633 48.1398 46.8047 48.1398C46.6166 48.1398 46.4746 48.0758 46.3728 47.9439C46.2601 47.7975 46.1317 47.4804 46.1664 46.8027Z" fill="#B8E0EC"/>
<path d="M66.1556 46.9181C66.1861 47.2235 66.2889 47.4673 66.4627 47.6352C66.7216 47.8843 67.0895 47.9158 67.3402 47.8361C68.3875 47.5054 69.0486 46.685 69.2469 46.4076L69.2728 46.3708C69.2728 46.7911 69.1867 46.9421 68.885 47.2572C68.5521 47.6048 68.0299 48.035 67.3402 48.2527C67.0895 48.3325 66.7216 48.301 66.4627 48.0519C66.2159 47.8134 66.1121 47.4217 66.1556 46.9181Z" fill="#B8E0EC"/>
<path d="M69.2557 46.2001C69.2567 46.1901 69.2578 46.18 69.2589 46.1701C69.4503 44.5449 70.6312 44.3034 71.318 44.3034C71.6105 44.3034 72.347 44.3602 72.8757 44.8862C73.1748 45.1839 73.3453 45.5708 73.3851 46.038C73.391 45.9741 73.3942 45.9081 73.3942 45.8401C73.3942 45.274 73.2203 44.8125 72.8757 44.4696C72.347 43.9435 71.6105 43.8867 71.318 43.8867C70.6312 43.8867 69.4503 44.1283 69.2589 45.7534C69.241 45.9052 69.2458 46.0693 69.2557 46.2001Z" fill="#B8E0EC"/>
<path d="M74.6044 49.2538C72.9694 49.2387 72.3788 48.5889 72.1657 48.114C72.1657 48.114 72.0833 47.9167 72.0583 47.75C72.0582 47.7832 72.019 47.9167 72.0568 48.1661C72.1145 48.5464 72.4673 49.6508 74.6044 49.6705C76.001 49.6826 77.1424 48.9275 77.3206 47.8753C77.3567 47.6609 77.3639 47.4649 77.3442 47.2826C77.3386 47.3399 77.3307 47.3985 77.3206 47.4586C77.1424 48.5108 76.001 49.2659 74.6044 49.2538Z" fill="#B8E0EC"/>
<path d="M14.4499 38.6384H19.6186L22.3708 28.7083C22.4097 28.706 22.4608 28.7099 22.5 28.7083L19.6186 39.0551H14.3247C14.3663 38.9146 14.408 38.7757 14.4499 38.6384Z" fill="#B8E0EC"/>
<path d="M61.8762 42.3498C60.8597 46.2395 59.6501 47.9736 57.956 47.9736C57.5789 47.9736 57.2824 47.8256 57.0476 47.5207C56.7155 47.0867 56.5386 46.3684 56.516 45.4502C56.49 46.5682 56.6668 47.4397 57.0476 47.9373C57.2824 48.2422 57.5789 48.3902 57.956 48.3902C59.6501 48.3902 60.8597 46.6561 61.8762 42.7665C62.185 41.5868 62.3257 40.5323 62.2999 39.6649C62.2781 40.4456 62.1372 41.353 61.8762 42.3498Z" fill="#B8E0EC"/>
<path d="M166.667 63.3333H0V63.75H166.667V63.3333Z" fill="#B8E0EC"/>
<defs>
<linearGradient id="paint0_linear_8620_16943" x1="2.99816e-06" y1="16.6667" x2="166.667" y2="63.3333" gradientUnits="userSpaceOnUse">
<stop offset="0.04" stop-color="#0092BC"/>
<stop offset="0.4" stop-color="#5CB9D4"/>
<stop offset="0.72" stop-color="#0092BC"/>
<stop offset="0.96" stop-color="#006F8F"/>
</linearGradient>
<linearGradient id="paint1_linear_8620_16943" x1="2.99816e-06" y1="16.6667" x2="166.667" y2="63.3333" gradientUnits="userSpaceOnUse">
<stop offset="0.04" stop-color="#0092BC"/>
<stop offset="0.4" stop-color="#5CB9D4"/>
<stop offset="0.72" stop-color="#0092BC"/>
<stop offset="0.96" stop-color="#006F8F"/>
</linearGradient>
<linearGradient id="paint2_linear_8620_16943" x1="2.99816e-06" y1="16.6667" x2="166.667" y2="63.3333" gradientUnits="userSpaceOnUse">
<stop offset="0.04" stop-color="#0092BC"/>
<stop offset="0.4" stop-color="#5CB9D4"/>
<stop offset="0.72" stop-color="#0092BC"/>
<stop offset="0.96" stop-color="#006F8F"/>
</linearGradient>
</defs>
</svg>
