<?xml version="1.0" encoding="UTF-8" standalone="no"?>
<!-- Created with Inkscape (http://www.inkscape.org/) -->

<svg
   version="1.1"
   id="svg1"
   width="294"
   height="71"
   viewBox="0 0 294 71"
   sodipodi:docname="confiteca.svg"
   inkscape:version="1.4.3 (0d15f75, 2025-12-25)"
   xmlns:inkscape="http://www.inkscape.org/namespaces/inkscape"
   xmlns:sodipodi="http://sodipodi.sourceforge.net/DTD/sodipodi-0.dtd"
   xmlns="http://www.w3.org/2000/svg"
   xmlns:svg="http://www.w3.org/2000/svg">
  <defs
     id="defs1" />
  <sodipodi:namedview
     id="namedview1"
     pagecolor="#ff45ff"
     bordercolor="#000000"
     borderopacity="0.25"
     inkscape:showpageshadow="2"
     inkscape:pageopacity="0.0"
     inkscape:pagecheckerboard="0"
     inkscape:deskcolor="#d1d1d1"
     inkscape:zoom="3.0153061"
     inkscape:cx="169.13706"
     inkscape:cy="2.8189509"
     inkscape:window-width="1920"
     inkscape:window-height="991"
     inkscape:window-x="-9"
     inkscape:window-y="-9"
     inkscape:window-maximized="1"
     inkscape:current-layer="g1" />
  <g
     inkscape:groupmode="layer"
     inkscape:label="Image"
     id="g1">
    <path
       style="fill:#ffffff;fill-opacity:1"
       d="m 34.881475,52.496912 c -3.091874,-1.68025 -6.55258,-8.225807 -5.111165,-9.667222 0.6169,-0.6169 2.177969,-0.221771 4.346182,1.10008 4.728349,2.882636 9.992098,2.691182 13.786312,-0.501439 4.702832,-3.957172 6.687646,-1.404603 3.580269,4.604402 -2.802633,5.419695 -10.857625,7.585687 -16.601598,4.464179 z m 30.35877,-0.60703 c -6.066001,-3.002616 -8.592234,-7.010363 -9.043666,-14.347339 -0.311879,-5.068873 0.0049,-6.591702 1.965817,-9.450595 6.284107,-9.161759 17.272309,-11.190976 26.194964,-4.837485 5.626721,4.006578 8.098435,13.40736 5.265801,20.027656 -4.038496,9.438577 -14.933926,13.284929 -24.382916,8.607763 z M 80.75,43.477997 C 83.927413,39.821113 83.782311,34.083174 80.411106,30.076725 78.25553,27.514968 77.098781,27 73.5,27 c -3.598781,0 -4.75553,0.514968 -6.911106,3.076725 -4.38718,5.213867 -2.943116,13.549398 2.768105,15.978259 3.506519,1.491249 8.922614,0.26618 11.393001,-2.576987 z m 89.16334,9.2402 c -0.87266,-0.670009 -2.11016,-2.201113 -2.75,-3.402456 -1.48102,-2.780725 -1.58922,-32.651463 -0.12816,-35.381482 C 167.70129,12.689621 169.12741,12 171.03518,12 173.88237,12 174,12.178534 174,16.5 V 21 h 4.5 c 4.31379,0 4.5,0.121759 4.5,2.942502 0,2.746866 -0.28257,2.962947 -4.25,3.25 L 174.5,27.5 l -0.29201,8.34692 c -0.34185,9.771556 0.46732,11.3269 5.68552,10.928458 3.03503,-0.231743 3.65512,0.06584 3.91339,1.878065 0.19232,1.349479 -0.54409,2.749501 -1.97251,3.75 -2.67716,1.875157 -9.64893,2.059233 -11.92105,0.314754 z m 25.08717,0.15835 c -6.16404,-2.457939 -10.23128,-8.825005 -10.23128,-16.016591 0,-9.995168 6.81173,-16.811195 16.83289,-16.843506 9.03642,-0.02914 15.76269,6.835542 15.17138,15.48355 l -0.2735,4 -11.75,0.281735 C 197.6626,39.951673 193,40.465732 193,41.07719 c 0,0.557545 1.10455,2.118265 2.45455,3.468265 2.91803,2.918033 6.96906,3.173915 12.03121,0.759945 3.2731,-1.560832 3.68126,-1.566952 5.17067,-0.07754 5.13886,5.138862 -8.80328,11.178713 -17.65592,7.648688 z m 14.28124,-20.907138 c -1.31036,-5.010836 -9.80027,-6.709812 -13.9673,-2.795095 C 191.10136,33.132308 192.19673,34 201.40638,34 c 7.95627,0 8.37795,-0.108727 7.87537,-2.030591 z M 230.5,52.582642 c -12.70798,-5.67231 -13.42785,-24.497508 -1.1758,-30.748037 5.52327,-2.817759 14.54535,-2.245237 18.1621,1.152528 2.90583,2.729884 3.14274,4.245922 0.94812,6.067292 -1.29694,1.076367 -2.05267,1.011583 -4.40429,-0.377555 -4.23702,-2.502869 -9.62845,-2.169463 -12.57558,0.777675 C 229.52232,31.386775 229,32.942616 229,36.765984 c 0,7.764954 5.70471,12.027689 12.42636,9.285355 5.84653,-2.385303 7.32697,-2.40388 8.05784,-0.101115 1.89627,5.974597 -10.64325,10.355468 -18.9842,6.632418 z m 29.74086,-0.57724 c -8.66119,-5.280792 -10.68539,-19.333299 -3.86769,-26.850416 4.7695,-5.258789 13.20729,-6.970352 18.20841,-3.693487 2.20814,1.446829 2.62996,1.446001 4.85136,-0.0095 1.90599,-1.248854 2.88623,-1.351533 4.52578,-0.474071 2.00263,1.071772 2.08096,1.775324 1.81706,16.321072 L 285.5,52.5 l -2.5856,0.300558 c -1.42207,0.165307 -3.14254,-0.370528 -3.82326,-1.190745 -1.08818,-1.311175 -1.62138,-1.25734 -4.41441,0.445704 -4.09712,2.498212 -10.29155,2.476707 -14.43587,-0.05012 z m 15.17025,-8.082127 c 2.96999,-3.529632 3.40119,-8.451779 1.12588,-12.851754 -3.26537,-6.31451 -12.22467,-5.456604 -15.10909,1.446785 -4.28092,10.245686 7.12845,19.551385 13.98321,11.404969 z M 95.71406,52.380727 C 95.321327,51.987994 95,45.007499 95,36.868517 95,23.093823 95.138322,21.99634 97,21 c 2.126212,-1.137914 6,0.166575 6,2.020485 0,0.522565 1.4625,0.05842 3.25,-1.031445 3.95246,-2.409862 10.45997,-2.580912 13.63313,-0.358347 3.84631,2.694061 5.11687,7.341083 5.11687,18.714744 0,11.238449 -0.77793,13.107487 -5.19496,12.481327 -2.21311,-0.313731 -2.32498,-0.76942 -2.80504,-11.425309 -0.32833,-7.288076 -0.9712,-11.665539 -1.87244,-12.75 -1.74409,-2.098646 -7.4885,-2.147662 -9.55463,-0.08153 -2.10703,2.107028 -2.52918,4.339586 -2.82313,14.930073 l -0.2498,9 -3.03594,0.297393 c -1.669767,0.163567 -3.357267,-0.02393 -3.75,-0.416666 z m 35.38774,-0.758068 c -0.89875,-1.08292 -1.14338,-6.470863 -0.91441,-20.139259 L 130.5,12.822599 l 2.80576,-2.4113 c 3.30847,-2.8433257 11.60692,-3.4263645 13.65437,-0.9593383 2.30192,2.7736463 0.83409,5.0453663 -3.28177,5.0790973 -3.85846,0.03162 -5.63438,1.49344 -5.66305,4.661444 -0.0116,1.279319 1.02222,1.76757 4.23469,2 3.78467,0.27383 4.25,0.581223 4.25,2.807498 0,2.223428 -0.46691,2.533859 -4.22054,2.806058 l -4.22054,0.306059 -0.27946,12.693941 L 137.5,52.5 l -2.5856,0.300558 c -1.42207,0.165307 -3.13775,-0.364748 -3.8126,-1.177899 z m 21.61226,0.758068 C 152.32133,51.987994 152,45.007499 152,36.868517 152,23.093823 152.13832,21.99634 154,21 c 1.42467,-0.762462 2.58274,-0.758493 4.02578,0.0138 1.91769,1.026314 2.01107,1.895303 1.75,16.285184 L 159.5,52.5 l -3.03594,0.297393 c -1.66977,0.163567 -3.35727,-0.02393 -3.75,-0.416666 z M 21.551873,46.879278 C 12.123896,35.674764 14.983806,18.239003 27.307932,11.78682 c 7.555775,-3.9557566 22.130833,-2.5725321 24.765469,2.35033 1.387546,2.592654 -0.617506,6.271648 -2.900093,5.321271 -7.935463,-3.304007 -14.335227,-2.875944 -19.28617,1.29 -6.88721,5.795205 -8.660251,15.417655 -4.391323,23.832101 C 28.483129,50.468791 28.431827,50 26.088894,50 25.037785,50 22.996126,48.595675 21.551873,46.879278 Z M 152.57143,14.428571 c -2.09044,-2.090437 -1.98123,-3.747735 0.38828,-5.8921048 4.01745,-3.6357506 9.61002,0.6619464 7.06051,5.4257608 -1.30635,2.440937 -5.22864,2.686498 -7.44879,0.466344 z"
       id="path1" />
  </g>
</svg>
