<?xml version="1.0" encoding="UTF-8" standalone="no"?>
<!-- Created with Inkscape (http://www.inkscape.org/) -->

<svg
   version="1.1"
   id="svg1"
   width="479"
   height="173"
   viewBox="0 0 479 173"
   sodipodi:docname="favorita_logo.svg"
   inkscape:version="1.4.3 (0d15f75, 2025-12-25)"
   xmlns:inkscape="http://www.inkscape.org/namespaces/inkscape"
   xmlns:sodipodi="http://sodipodi.sourceforge.net/DTD/sodipodi-0.dtd"
   xmlns="http://www.w3.org/2000/svg"
   xmlns:svg="http://www.w3.org/2000/svg">
  <defs
     id="defs1" />
  <sodipodi:namedview
     id="namedview1"
     pagecolor="#ffff2d"
     bordercolor="#000000"
     borderopacity="0.25"
     inkscape:showpageshadow="2"
     inkscape:pageopacity="0.0"
     inkscape:pagecheckerboard="0"
     inkscape:deskcolor="#d1d1d1"
     inkscape:zoom="3.7014614"
     inkscape:cx="239.63508"
     inkscape:cy="86.587422"
     inkscape:window-width="1920"
     inkscape:window-height="991"
     inkscape:window-x="-9"
     inkscape:window-y="-9"
     inkscape:window-maximized="1"
     inkscape:current-layer="g1" />
  <g
     inkscape:groupmode="layer"
     inkscape:label="Image"
     id="g1">
    <path
       style="fill:#ffffff;fill-opacity:1"
       d="M 1.0754194,162 C 1.026574,156.68001 4.4605175,142.33441 7.9468086,133.29415 21.240157,98.82335 55.901087,67.80541 99.206332,51.626338 104.54481,49.631852 109.62116,48 110.48711,48 c 1.36182,0 1.53653,1.645627 1.29367,12.185367 L 111.5,72.370735 l -11,4.168527 C 52.658621,94.669087 12.902471,128.65425 2.8686842,159.99847 1.2231765,165.13881 1.1054449,165.27022 1.0754194,162 Z M 235.19504,138.35736 C 234.65041,137.33581 231.20727,128.85 227.54361,119.5 217.66716,94.294404 216.0922,91.061244 213.35574,90.374436 208.04812,89.04231 211.62322,88 221.5,88 c 5.775,0 10.5,0.236138 10.5,0.524751 0,0.288613 -1.17935,0.973137 -2.62077,1.521165 -2.24167,0.852281 -2.53512,1.42462 -2.02871,3.956677 C 228.13686,97.934315 239.28093,127 240.00205,127 c 1.00962,0 12.03826,-30.423425 12.01782,-33.152175 -0.0153,-2.049293 -0.75865,-2.948818 -3.26987,-3.957156 l -3.25,-1.304981 4.78017,-0.348868 c 2.6291,-0.191877 6.6791,-0.19735 9,-0.01216 4.04282,0.32258 4.11324,0.383481 1.67873,1.451848 -1.3976,0.61333 -3.09077,1.777466 -3.7626,2.586969 -0.67183,0.809504 -5.22667,11.482217 -10.12187,23.717147 -4.89521,12.23493 -9.34785,22.6928 -9.89476,23.23971 -0.65918,0.65918 -1.32819,0.36828 -1.98463,-0.86297 z m 39.51844,0.22046 c -5.3767,-1.4459 -11.10098,-5.62929 -14.46561,-10.57168 -7.07265,-10.38922 -4.61656,-27.04672 5.07825,-34.441315 5.51051,-4.203071 10.63427,-5.853285 18.17388,-5.853285 15.77265,0 25.49604,9.845632 25.46827,25.78846 -0.0152,8.71506 -2.08786,13.55069 -8.22235,19.18306 -7.17363,6.58644 -16.01537,8.58855 -26.03244,5.89476 z m 14.21706,-2.0419 c 12.07588,-6.24468 14.92389,-29.81799 5.04544,-41.76158 -8.18071,-9.890937 -22.03828,-5.997134 -26.5866,7.4705 -4.81946,14.27047 0.29511,31.15749 10.61062,35.03363 2.85445,1.07258 8.11102,0.71548 10.93054,-0.74255 z M 145,137.24845 c 3.33181,-1.66443 3.53042,-2.0608 4.13312,-8.24845 0.84993,-8.72603 0.99282,-29.605131 0.23401,-34.194656 -0.48176,-2.913866 -1.21909,-3.906688 -3.48899,-4.69798 C 144.29516,89.555535 143,88.85563 143,88.55202 143,88.248409 151.94,88 162.86667,88 h 19.86668 l 2.13332,5.133353 c 3.2709,7.870657 2.66006,8.774177 -2.37751,3.516676 C 176.90657,90.823717 174.79412,90 165.4349,90 H 158 v 11.12383 11.12383 l 5.66944,-0.47015 c 4.59718,-0.38124 6.11021,-0.98259 8,-3.1796 C 172.95125,107.10772 174,105.01357 174,103.94424 174,102.87491 174.45,102 175,102 c 0.6087,0 1,4.5 1,11.5 0,6.325 -0.3596,11.5 -0.79911,11.5 -0.43951,0 -1.34532,-1.51051 -2.01291,-3.35669 -1.7668,-4.886 -4.48921,-6.86975 -10.17785,-7.41636 L 158,113.74554 l 0.0153,10.37723 c 0.008,5.70748 0.38428,10.95882 0.83524,11.66965 0.45095,0.71083 2.13156,1.68465 3.73468,2.16405 2.06376,0.61714 -0.58882,0.89627 -9.08523,0.95602 l -12,0.0844 z m 30.2445,0.18246 c 1.50947,-0.81896 3.67766,-3.31817 4.81819,-5.5538 C 183.26448,125.60108 196,95.72503 196,94.490026 c 0,-0.603731 1.55861,-2.608361 3.46359,-4.454733 l 3.46358,-3.35704 0.90814,2.410873 c 0.49947,1.325981 4.13298,11.128834 8.07446,21.784124 8.50952,23.00436 9.29717,24.63209 12.8528,26.56136 2.55833,1.38814 2.01773,1.48277 -8.26257,1.44641 -8.55736,-0.0303 -10.38934,-0.26195 -8.25,-1.0433 3.36152,-1.22773 3.43512,-3.13964 0.43644,-11.33772 l -2.19466,-6 h -9.39665 -9.39665 l -2.29765,6 c -3.10398,8.10566 -3.0426,10.09894 0.34917,11.33772 2.24962,0.82163 1.29435,1.01147 -5.25,1.0433 -7.63726,0.0371 -7.87556,-0.0286 -5.2555,-1.45011 z M 205,117.26947 c 0,-0.40179 -1.6779,-4.96986 -3.72866,-10.15127 l -3.72866,-9.420744 -2.20532,4.901274 c -1.21293,2.6957 -3.12847,7.26377 -4.25675,10.15127 l -2.05143,5.25 h 7.98541 C 201.40657,118 205,117.67126 205,117.26947 Z m 106.34021,20.31237 c 1.56211,-0.69065 3.24272,-1.8916 3.73468,-2.66878 1.26817,-2.00339 1.16934,-40.588191 -0.11007,-42.978801 C 314.39547,90.870416 313.07202,90 312.02383,90 c -1.04819,0 -2.18391,-0.45 -2.52383,-1 -0.83231,-1.346701 26.80544,-1.320636 31.66773,0.02987 5.33944,1.483027 9.83227,6.991342 9.83227,12.054594 0,5.29648 -2.28646,9.50162 -6.26693,11.52579 -1.77819,0.90426 -3.38856,1.77986 -3.57859,1.94578 -0.96385,0.84155 14.30629,20.63088 16.99064,22.01902 4.23162,2.18825 8.39206,0.48904 9.24505,-3.77588 0.77787,-3.88935 0.77455,-36.583107 -0.004,-39.486269 -0.32322,-1.205275 -2.00053,-2.761436 -3.73634,-3.466487 -3.14741,-1.278411 -3.14542,-1.279644 2.60018,-1.612805 3.1625,-0.183379 8.3375,-0.183379 11.5,0 l 5.75,0.333416 -3.22115,1.304256 c -4.21354,1.706075 -4.43463,3.151825 -4.07218,26.628719 l 0.29333,19 3.5,1.74845 c 3.46071,1.72881 3.29574,1.74846 -14.69507,1.75 L 347.10987,139 340.94069,129.99277 C 334.01539,119.88156 329.9883,116 326.42327,116 c -2.3507,0 -2.42028,0.21712 -2.32359,7.25 0.13633,9.91576 0.85053,11.94405 4.92913,13.99845 l 3.47119,1.74844 -12,-0.0797 c -10.51051,-0.0698 -11.64746,-0.23553 -9.15979,-1.33539 z m 21.73405,-24.5859 C 347.0054,109.12598 344.01848,90 329.48296,90 c -4.10106,0 -4.23893,0.106796 -4.84111,3.75 -0.34091,2.0625 -0.62479,7.4625 -0.63084,12 L 324,114 l 2.75,-0.006 c 1.5125,-0.003 4.35842,-0.45238 6.32426,-0.99848 z m 67.91483,24.25251 c 3.00388,-1.5053 3.59811,-2.40892 4.27308,-6.49788 0.43119,-2.61219 0.6611,-12.73719 0.51091,-22.5 L 405.5,90.5 l -6.49572,0.34632 c -8.06456,0.429964 -9.29154,1.081344 -12.56793,6.672072 C 384.99184,99.983276 383.57662,102 383.29143,102 c -0.49989,0 0.35169,-7.387 1.32574,-11.5 0.45789,-1.933495 1.15067,-1.988325 20.83387,-1.648889 11.19813,0.193111 22.37269,-0.07811 24.83237,-0.602704 l 4.47214,-0.953814 1.15398,6.987615 c 0.63469,3.843189 0.96906,7.172532 0.74305,7.398542 -0.22601,0.22601 -1.69112,-1.61261 -3.2558,-4.085832 -3.426,-5.41535 -5.03707,-6.289012 -13.16581,-7.139668 l -6.26903,-0.656041 0.26903,22.841661 0.26903,22.84166 3.5,1.7107 3.5,1.71071 -12,0.0465 -12,0.0465 z m 26.08718,-0.52087 c 2.86211,-1.92877 4.62042,-5.14223 11.62732,-21.25 C 443.244,105.03991 446.97292,95.825 446.99009,95 c 0.039,-1.874804 6.64061,-8.406564 7.34482,-7.267121 0.28418,0.459816 4.17442,10.653106 8.64498,22.651761 4.47056,11.99865 8.66645,22.72423 9.3242,23.83462 0.65775,1.11039 2.54591,2.62269 4.19591,3.36067 2.73065,1.22132 2.01238,1.33922 -8,1.31325 -8.63921,-0.0224 -10.51711,-0.26143 -8.75,-1.11367 2.8306,-1.36515 2.84544,-3.64173 0.0752,-11.52951 L 457.63014,120 h -9.20873 -9.20873 l -2.60634,6.51052 c -3.33867,8.33985 -3.28295,9.29194 0.64366,10.99861 3.14074,1.3651 2.96767,1.4139 -5.14788,1.45173 L 423.70423,139 Z m 25.96693,-28.24425 c -2.05877,-5.23417 -3.95587,-9.729336 -4.21579,-9.989253 -0.25992,-0.259917 -2.32469,4.022583 -4.58839,9.516673 L 440.12321,118 h 8.33161 8.3316 z M 1.0789483,124 C 0.99440205,118.38219 4.4996915,103.17501 7.9115117,94.357921 22.141799,57.582928 59.941488,25.412379 107.12621,9.9183017 119.29498,5.9224377 141.23459,1 146.87564,1 L 150,1 v 11.813908 11.813908 l -13.7277,2.7176 C 95.161652,35.483872 53.866046,56.816813 27.324825,83.626708 15.149147,95.925638 5.6438293,110.74702 2.5390434,122.27451 1.2371495,127.1082 1.1276728,127.23757 1.0789483,124 Z M 206.9416,71.011968 c -4.48647,-1.291575 -6.88037,-2.992879 -8.43125,-5.991952 -4.90141,-9.478288 3.01141,-20.152269 13.86051,-18.697099 7.847,1.052504 12.76951,10.095558 9.62621,17.684156 -2.2263,5.374773 -9.29445,8.663388 -15.05547,7.004895 z m 6.5136,-1.633149 c 4.17721,-1.602946 5.94909,-11.762534 3.03445,-17.398835 -5.97089,-11.546425 -18.1684,-0.02001 -13.44462,12.704916 1.73614,4.676818 5.74465,6.484246 10.41017,4.693919 z m 67.87771,1.523886 C 276.12177,69.394 273,64.773525 273,58.569297 c 0,-4.221156 0.49264,-5.808818 2.46169,-7.93346 4.36218,-4.706866 11.06183,-5.967837 16.57104,-3.11891 6.26274,3.238586 8.11378,13.778645 3.40299,19.377091 -2.08171,2.473972 -8.16484,5.394501 -10.43572,5.010217 -0.275,-0.04654 -1.92519,-0.497225 -3.66709,-1.00153 z M 290.8145,67.5087 c 4.28753,-5.450717 3.28353,-14.889968 -2.00081,-18.810889 -8.19885,-6.083451 -15.6437,9.892108 -8.71483,18.700742 2.78517,3.540761 7.97515,3.59411 10.71564,0.110147 z m 107.58097,3.370404 c -7.09773,-1.968227 -10.91072,-9.610988 -8.26414,-16.564645 4.98185,-13.089364 24.8785,-9.616677 24.86493,4.339833 -0.004,4.171943 -2.81167,9.666604 -5.69275,11.141034 -2.99919,1.534876 -7.62421,1.994398 -10.90804,1.083778 z M 407.22673,68.25 c 5.0398,-5.739314 3.55298,-17.570728 -2.55797,-20.355059 -8.29926,-3.781401 -14.52475,12.307196 -7.61027,19.667324 2.74678,2.923806 7.89872,3.272261 10.16824,0.687735 z M 174.47904,67.679043 C 171.41393,64.613928 171,63.591468 171,59.085315 c 0,-4.428959 0.45884,-5.615479 3.42236,-8.85 3.23939,-3.535608 3.73394,-3.728948 9.25,-3.616225 11.58349,0.236712 11.32809,0.129447 11.3239,4.75591 l -0.004,4.125 -1.99672,-3.274926 C 189.51775,46.520544 181.63958,45.568048 178.4315,50.464203 172.82862,59.015279 176.52163,70 184.99935,70 c 3.58204,0 5.4716,-1.220532 8.51481,-5.5 1.327,-1.866076 1.42435,-1.732153 1.45385,2 l 0.0316,4 -8.52077,0.329043 -8.52077,0.329043 z M 226.25,70.310674 c 1.5274,-0.399151 1.75,-1.801371 1.75,-11.023756 0,-8.890531 -0.27756,-10.777132 -1.75,-11.894872 -1.51778,-1.152163 -0.95296,-1.332659 4.2566,-1.360243 6.74835,-0.03573 12.45228,1.300662 13.65778,3.199926 1.64481,2.591406 0.90121,7.480778 -1.36675,8.986644 l -2.20236,1.462316 3.82743,5.214009 c 3.15112,4.292689 4.29126,5.16023 6.45237,4.909656 L 253.5,69.5 253.78383,58.75 C 254.02456,49.632363 253.83475,48 252.53383,48 251.69022,48 251,47.492182 251,46.871515 c 0,-1.958874 15.58442,-0.557581 17.98774,1.61739 C 274.12261,53.135899 269.64556,61 261.86514,61 c -3.69715,0 -3.86447,0.141258 -3.84983,3.25 0.0172,3.642651 0.7802,5.181936 2.98469,6.021109 0.825,0.314048 -2.82427,0.606523 -8.10948,0.649944 L 243.28104,71 239.39052,65.81942 C 234.11578,58.795628 233,58.625205 233,64.843343 c 0,3.930552 0.37706,5.108543 1.75,5.467331 0.9625,0.251528 -0.95,0.457323 -4.25,0.457323 -3.3,0 -5.2125,-0.205795 -4.25,-0.457323 z M 265,58 c 2.03154,-2.031544 2.58457,-5.532496 1.21434,-7.687439 -0.41528,-0.653091 -2.05855,-1.683031 -3.65172,-2.288754 -3.72756,-1.417215 -4.527,-0.234708 -4.54731,6.726193 -0.0144,4.937417 0.13354,5.25 2.48469,5.25 1.375,0 3.4,-0.9 4.5,-2 z M 239.75,56.254137 C 240.4375,55.354119 241,53.835892 241,52.880299 241,51.074962 238.48622,48 237.01036,48 236.54463,48 235.45177,47.726855 234.58179,47.393011 233.24396,46.879639 233,47.744633 233,53.001419 v 6.215397 l 2.75,-0.663141 c 1.5125,-0.364728 3.3125,-1.39952 4,-2.299538 z m 62.67857,13.174434 c 2.23294,-2.232941 2.29391,-20.214099 0.0714,-21.066945 -0.825,-0.316582 -1.5,-1.035277 -1.5,-1.5971 0,-0.650513 2.96519,-0.849845 8.1646,-0.548856 6.95494,0.402616 8.43652,0.808461 10,2.73927 2.47919,3.061679 2.30849,5.662884 -0.55988,8.531248 l -2.39528,2.395279 3.14528,4.540252 c 3.22799,4.659646 5.41323,6.239373 6.72432,4.861064 C 326.48858,68.852252 328.71503,64 331.02672,58.5 c 3.87728,-9.224852 6.3997,-13.535563 7.27957,-12.440476 0.19465,0.242262 2.09574,5.143349 4.22464,10.891305 2.1289,5.747956 4.68036,11.260456 5.6699,12.25 1.73223,1.732228 1.60383,1.798601 -3.45083,1.783858 -3.3485,-0.0098 -4.75497,-0.328922 -3.88323,-0.881182 1.11276,-0.704956 1.14481,-1.538389 0.17244,-4.484687 C 339.91529,62.213282 339.59371,62 335.58296,62 c -3.59663,0 -4.44309,0.3976 -5.42244,2.547053 -1.49958,3.291208 -1.47068,5.161127 0.0895,5.790666 0.6875,0.277413 -1.7508,0.539913 -5.41844,0.583334 -6.47723,0.07668 -6.72623,-0.01425 -8.68373,-3.171053 C 313.61364,63.663192 310.21666,60 308.96104,60 308.43247,60 308,62.002639 308,64.45031 c 0,3.183426 0.49818,4.740472 1.75,5.469591 1.34902,0.785735 0.53071,1.026249 -3.57143,1.04969 -4.83766,0.02765 -5.17857,-0.112448 -3.75,-1.54102 z M 338.92584,60.25 c -0.0408,-0.4125 -0.8573,-2.524056 -1.81446,-4.692347 l -1.7403,-3.942348 -1.68554,4.212584 C 332.75849,58.14481 332,60.256366 332,60.520236 332,60.784106 333.575,61 335.5,61 c 1.925,0 3.46663,-0.3375 3.42584,-0.75 z m -24.18143,-3.452839 c 1.61981,-1.344329 1.62344,-6.250676 0.006,-7.577142 -0.6875,-0.563679 -2.375,-1.181279 -3.75,-1.372445 -2.39457,-0.332916 -2.5128,-0.09995 -2.80354,5.524272 l -0.30354,5.871845 2.79795,-0.702239 c 1.53887,-0.386232 3.36296,-1.171163 4.05354,-1.744291 z m 39.4185,11.686461 c -5.02853,-4.231225 -5.85154,-10.591347 -2.24305,-17.333885 1.92532,-3.597496 6.66838,-5.401682 12.45131,-4.736283 2.82086,0.324575 6.14133,0.636932 7.37883,0.694128 1.96014,0.09059 2.2459,0.637879 2.2182,4.248205 -0.0296,3.861041 -0.13213,4.011576 -1.5,2.203083 C 371.66069,52.491249 371,51.265305 371,50.834551 371,49.717915 365.46042,47 363.18452,47 c -2.95766,0 -6.91511,3.653635 -8.21119,7.580816 C 352.47084,62.163422 356.71276,70 363.31969,70 366.99416,70 372,66.786355 372,64.42742 372,63.642339 372.45,63 373,63 c 0.55,0 1,1.69403 1,3.764511 v 3.764512 l -8.36635,0.283386 c -7.76957,0.263172 -8.58779,0.09706 -11.47074,-2.328787 z m 24.26566,0.944949 c 2.23294,-2.232941 2.29391,-20.214099 0.0714,-21.066945 -3.14653,-1.207437 -1.29083,-2.360359 3.75,-2.329823 4.58024,0.02775 5.02675,0.201278 3.5,1.360243 -1.46327,1.11078 -1.75,2.981657 -1.75,11.418506 0,8.554624 0.2663,10.245176 1.75,11.109349 1.34902,0.785735 0.53071,1.026249 -3.57143,1.04969 -4.83766,0.02765 -5.17857,-0.112448 -3.75,-1.54102 z m 40.06623,0.19889 c 1.52894,-1.117991 1.95669,-3.038154 2.30645,-10.353608 0.40031,-8.372863 0.27337,-9.126424 -1.87449,-11.127461 L 416.62288,46 h 3.65297 c 3.36281,0 4.2714,0.720113 11.43856,9.065754 l 7.78559,9.065753 0.29804,-7.275217 c 0.27015,-6.594442 0.083,-7.440686 -2,-9.043518 -2.29122,-1.763055 -2.28339,-1.768366 2.64052,-1.790536 L 445.37712,46 443.18856,48.038955 C 441.20656,49.885471 441,51.065238 441,60.538955 441,66.29253 440.65064,71 440.22365,71 c -0.42699,0 -4.58949,-4.516628 -9.25,-10.036952 L 422.5,50.926097 l -0.29232,8.76942 c -0.24612,7.383256 -0.0183,8.969775 1.44113,10.036951 C 425.14529,70.826724 424.78319,71 421,71 c -3.95953,0 -4.20119,-0.132402 -2.5052,-1.372539 z M 400.91022,43.167756 c 1.32759,-2.480619 3.99122,-4.59965 4.78456,-3.806314 C 406.41656,40.083224 402.14007,45 400.7905,45 c -0.47348,0 -0.4196,-0.82451 0.11972,-1.832244 z"
       id="path1" />
  </g>
</svg>
