<?xml version="1.0" encoding="UTF-8" standalone="no"?>
<!-- Created with Inkscape (http://www.inkscape.org/) -->

<svg
   version="1.1"
   id="svg1"
   width="353"
   height="143"
   viewBox="0 0 353 143"
   sodipodi:docname="gira_logo.svg"
   inkscape:version="1.4.3 (0d15f75, 2025-12-25)"
   xmlns:inkscape="http://www.inkscape.org/namespaces/inkscape"
   xmlns:sodipodi="http://sodipodi.sourceforge.net/DTD/sodipodi-0.dtd"
   xmlns="http://www.w3.org/2000/svg"
   xmlns:svg="http://www.w3.org/2000/svg">
  <defs
     id="defs1" />
  <sodipodi:namedview
     id="namedview1"
     pagecolor="#1effff"
     bordercolor="#000000"
     borderopacity="0.25"
     inkscape:showpageshadow="2"
     inkscape:pageopacity="0.0"
     inkscape:pagecheckerboard="0"
     inkscape:deskcolor="#d1d1d1"
     inkscape:zoom="2.5113314"
     inkscape:cx="152.90694"
     inkscape:cy="25.683587"
     inkscape:window-width="1920"
     inkscape:window-height="991"
     inkscape:window-x="-9"
     inkscape:window-y="-9"
     inkscape:window-maximized="1"
     inkscape:current-layer="g1" />
  <g
     inkscape:groupmode="layer"
     inkscape:label="Image"
     id="g1">
    <path
       style="fill:#ffffff;fill-opacity:1"
       d="m 166.5,129.66202 c -10.24815,-3.41397 -17.94104,-9.61721 -19.09748,-15.39944 -0.53338,-2.6669 -0.14401,-3.67494 2.40357,-6.22252 1.67203,-1.67203 3.80544,-3.04006 4.74089,-3.04006 0.93546,0 4.37392,1.78502 7.64103,3.96671 3.26711,2.1817 7.52752,4.2645 9.46759,4.62846 5.09313,0.95548 13.41231,-0.26234 16.33022,-2.39052 2.46686,-1.7992 6.66581,-8.88635 5.78612,-9.76604 -0.246,-0.246 -1.98283,0.34217 -3.85961,1.30705 -2.58858,1.33084 -5.82637,1.75174 -13.41233,1.74358 -8.88855,-0.01 -10.55572,-0.30586 -15,-2.66582 C 155.42831,98.599294 149.00289,92.068488 145.93192,86 142.5559,79.328723 142.1006,67.370234 144.93641,59.852906 c 2.96686,-7.864732 8.77389,-14.092665 16.8452,-18.066158 5.87949,-2.894461 7.63368,-3.284963 14.69736,-3.271794 6.00112,0.01119 9.16976,0.542651 12.58263,2.110431 l 4.5616,2.095477 2.74416,-2.360431 c 3.62878,-3.121346 8.02,-3.063976 11.23071,0.146726 l 2.50715,2.507157 -0.30261,31.242843 L 209.5,105.5 206.68406,111 c -5.99814,11.71538 -16.53833,18.7169 -29.43983,19.55594 -4.12073,0.26799 -8.30022,-0.0797 -10.74423,-0.89392 z m 14.98831,-41.780402 c 4.97296,-1.380585 10.11755,-6.70418 11.52312,-11.924073 1.23016,-4.568447 -0.0486,-10.796593 -3.09513,-15.075091 -4.18823,-5.88182 -14.39666,-7.778397 -21.54279,-4.002335 -9.95366,5.259574 -11.81351,18.613218 -3.71966,26.707064 4.87378,4.873782 10.0194,6.186419 16.83446,4.294435 z M 53.028439,127.92773 C 46.18119,124.82176 42.153637,121.30519 37.892113,114.71178 32.833406,106.88498 32.846955,105.5 37.982233,105.5 c 3.383691,0 4.15035,0.40587 5.10075,2.70034 1.644422,3.96998 7.668876,9.78256 12.336202,11.90234 11.646391,5.28948 26.10061,-1.11941 30.17232,-13.37818 C 88.793924,97.082923 85.378723,82.195754 78.256372,74.75 74.553261,70.878742 76.704925,71.333866 83.04431,75.762752 106.77845,92.344142 93.889306,130.01946 64.5,129.96827 c -4.875116,-0.008 -8.357364,-0.62791 -11.471561,-2.04054 z M 223.30812,104.52535 c -4.94951,-2.1398 -5.47616,-5.812276 -5.11896,-35.696249 L 218.5,42.823798 l 2.80576,-2.411899 c 3.6669,-3.152149 8.06157,-3.135474 11.23969,0.04265 L 235,42.909091 v 28.87114 c 0,28.663589 -0.0162,28.885949 -2.25,30.930519 -3.17841,2.90914 -5.76175,3.40562 -9.44188,1.8146 z M 101,101.16841 c 0,-3.48269 0.44099,-4.117333 4.84306,-6.969773 13.21759,-8.564707 15.58382,-24.452591 5.29278,-35.537913 -9.00292,-9.697774 -28.021619,-9.200715 -40.204809,1.050763 -3.799283,3.196886 -3.714412,1.814092 0.256618,-4.18107 12.516195,-18.896006 42.389901,-15.257934 52.119291,6.347178 2.94193,6.532846 2.94587,17.918524 0.008,24.318761 -2.74096,5.972111 -9.69935,12.951058 -16.19461,16.242454 C 104.3409,103.84747 101.82653,105 101.53324,105 101.23996,105 101,103.27579 101,101.16841 Z M 246.45455,102.54545 244,100.09091 V 71.968531 43.846154 l 2.92308,-2.923077 c 3.60645,-3.60645 6.96614,-3.728616 10.92523,-0.397266 1.70977,1.438677 3.26389,2.101663 3.61079,1.540359 1.06816,-1.728314 11.12848,-4.386498 13.93526,-3.682039 C 279.4656,39.405946 282,42.519782 282,46.5 c 0,4.324084 -2.51746,7.023705 -7.90178,8.473553 -4.29517,1.156567 -9.37587,4.902862 -11.37076,8.384308 -0.77599,1.354239 -1.41137,8.4583 -1.72746,19.314483 -0.47932,16.462007 -0.60028,17.278969 -2.92431,19.749996 -3.23254,3.437 -8.25406,3.4902 -11.62114,0.12311 z m 53.30805,0.9408 C 276.30609,94.870161 270.00491,64.429069 288.1623,47.444961 295.513,40.569242 300.76316,38.518519 311,38.524516 c 6.38745,0.0037 9.59922,0.506284 12.92277,2.02201 l 4.42277,2.017029 2.28177,-2.281777 c 3.26375,-3.263746 7.79857,-3.009748 11.44961,0.641299 L 345,43.846154 v 27.500198 27.500197 l -2.58889,3.076721 c -2.07829,2.46991 -3.36029,3.07673 -6.5,3.07673 -2.53076,0 -4.5924,-0.68129 -5.84149,-1.93038 -1.90717,-1.90717 -1.99145,-1.90717 -7.01073,0 -6.0254,2.28947 -17.63252,2.49705 -23.29629,0.41663 z M 318.69841,86.903951 C 324.34984,84.168142 328,78.161101 328,71.596401 c 0,-5.076601 -1.01672,-7.735542 -4.37496,-11.441415 -7.9073,-8.725836 -22.85055,-6.479535 -27.68158,4.161154 -2.3177,5.104889 -2.42318,8.599958 -0.40532,13.42938 2.07194,4.958856 4.20404,7.188951 8.96186,9.373749 5.23351,2.403236 8.90419,2.347571 14.19841,-0.215318 z M 29.882283,98.619422 C 16.434409,93.81382 8.6432277,82.983391 8.574699,69 8.5438503,62.705279 8.9823189,60.650816 11.303124,56.215848 14.805806,49.522359 20.530894,43.778144 26.932604,40.534152 29.683104,39.140368 32.173472,38 32.466756,38 32.76004,38 33,39.994676 33,42.432612 c 0,3.631744 -0.381326,4.553641 -2.110545,5.102474 -3.458925,1.09782 -10.0713,7.677815 -12.023793,11.964914 -3.756344,8.247824 -1.635502,19.701464 4.758239,25.696952 9.005621,8.444679 26.306472,8.082482 37.935543,-0.794189 C 64.011268,82.531244 66.249968,81 66.534333,81 c 1.165571,0 -2.971109,6.518532 -6.712464,10.577424 -6.833096,7.413033 -20.141644,10.543296 -29.939586,7.041998 z M 50.463686,66.723377 C 47.4453,64.643304 44.575295,61.447996 42.604494,57.973377 39.799626,53.028255 39.501354,51.679634 39.514029,44 39.525993,36.751245 39.919373,34.754632 42.186346,30.436545 47.735638,19.866358 57.80482,13.653923 69.5,13.584699 c 8.275143,-0.04898 14.055008,2.211603 20.467915,8.005279 3.912616,3.534814 10.005185,12.601141 10.01953,14.910022 0.0034,0.55 -1.79236,1.021926 -3.990616,1.048723 C 93.798573,37.575521 92,37.2066 92,36.728899 92,36.251197 90.624705,33.861428 88.943789,31.4183 80.480949,19.117984 63.500645,17.501378 53.266751,28.021675 44.583491,36.947943 44.90006,53.078215 54.026826,66.75 55.220093,68.5375 55.976348,70 55.707393,70 55.438437,70 53.078769,68.525519 50.463686,66.723377 Z M 221.17431,26.685549 c -2.13823,-2.276046 -2.83224,-6.807423 -1.55313,-10.140747 0.90863,-2.367838 6.21234,-4.803403 8.95885,-4.114073 6.2304,1.563731 8.66759,10.109115 4.10552,14.394957 -3.17161,2.979575 -8.64299,2.912967 -11.51124,-0.140137 z"
       id="path1" />
  </g>
</svg>
