<?xml version="1.0" encoding="UTF-8" standalone="no"?>
<!-- Created with Inkscape (http://www.inkscape.org/) -->

<svg
   version="1.1"
   id="svg1"
   width="337"
   height="182"
   viewBox="0 0 337 182"
   sodipodi:docname="grafitext.svg"
   inkscape:version="1.4.3 (0d15f75, 2025-12-25)"
   xmlns:inkscape="http://www.inkscape.org/namespaces/inkscape"
   xmlns:sodipodi="http://sodipodi.sourceforge.net/DTD/sodipodi-0.dtd"
   xmlns="http://www.w3.org/2000/svg"
   xmlns:svg="http://www.w3.org/2000/svg">
  <defs
     id="defs1" />
  <sodipodi:namedview
     id="namedview1"
     pagecolor="#ff50ff"
     bordercolor="#000000"
     borderopacity="0.25"
     inkscape:showpageshadow="2"
     inkscape:pageopacity="0.0"
     inkscape:pagecheckerboard="0"
     inkscape:deskcolor="#d1d1d1"
     inkscape:zoom="3.0032612"
     inkscape:cx="166.48568"
     inkscape:cy="80.412586"
     inkscape:window-width="1920"
     inkscape:window-height="991"
     inkscape:window-x="-9"
     inkscape:window-y="-9"
     inkscape:window-maximized="1"
     inkscape:current-layer="g1" />
  <g
     inkscape:groupmode="layer"
     inkscape:label="Image"
     id="g1">
    <path
       style="fill:#ffffff;fill-opacity:1"
       d="m 33.0257,167.66087 c -0.366667,-0.36666 -0.660033,-27.92916 -0.651925,-61.25 0.01123,-46.151377 0.309001,-61.130381 1.25,-62.87978 1.681883,-3.126765 67.639995,-34.3984532 69.485255,-32.943955 0.90309,0.711851 1.25,5.252965 1.25,16.362852 v 15.377555 h 11.3 c 7.45556,0 11.70826,0.40826 12.5,1.2 1.73344,1.733444 1.73344,121.866558 0,123.599998 -0.89902,0.89902 -12.8963,1.2 -47.833327,1.2 -25.648337,0 -46.933337,-0.3 -47.300003,-0.66667 z m 70.83333,-19.33333 c 0,-1.137 -1.69398,-1.63587 -6.999997,-2.06145 -12.54637,-1.00632 -14.5,-3.75574 -14.5,-20.40643 v -10.53212 l 9.75,-0.0153 c 10.416987,-0.0164 12.694467,-0.66286 11.676877,-3.31464 -0.54177,-1.41184 -2.24779,-1.67006 -11.033867,-1.67006 h -10.39301 v -9.03138 c 0,-7.358455 -0.29655,-9.145184 -1.60092,-9.64572 -2.53933,-0.974431 -3.36734,1.577093 -3.38377,10.4271 -0.0181,9.77498 -0.81682,10.23653 -8.652296,5 -12.549446,-8.386915 -13.163951,-27.562991 -1.187709,-37.063339 6.150084,-4.878654 16.982875,-4.948774 22.689615,-0.146868 3.47067,2.920378 6.13508,3.187553 6.13508,0.615197 0,-3.958206 -9.66057,-9.097702 -17.16709,-9.133026 -17.970726,-0.08457 -30.466728,21.337566 -22.467319,38.51614 2.754762,5.915796 10.39664,13.056876 14.951731,13.971886 6.561638,1.31808 6.180068,0.50555 6.214358,13.23284 0.0359,13.3239 1.27346,17.18871 6.73503,21.03303 2.81752,1.98321 4.26201,2.24039 11.23329,2 6.321837,-0.21799 7.999997,-0.59052 7.999997,-1.77586 z m 56.5,17.56642 c 0,-1.91143 0.59003,-2.50147 2.75,-2.75 l 2.75,-0.31642 0.27709,-14.81198 0.27709,-14.81198 -3.77709,0.31198 c -3.28481,0.27132 -3.81833,0.6704 -4.09351,3.06198 -0.26501,2.30314 -0.79311,2.75 -3.25,2.75 -2.88628,0 -2.93358,-0.088 -2.93358,-5.45541 v -5.45541 l 17.50124,-0.29459 17.50123,-0.29459 -0.001,5.75 c -0.001,5.69301 -0.0303,5.75 -2.93482,5.75 -2.45689,0 -2.98499,-0.44686 -3.25,-2.75 -0.27798,-2.41592 -0.74161,-2.75 -3.81642,-2.75 h -3.5 l -0.28903,12.5 c -0.35376,15.29982 -0.0507,16.77043 3.54147,17.18381 1.96655,0.22631 2.83839,0.95576 3.06711,2.56619 0.31324,2.20553 0.12051,2.25 -9.75,2.25 -10.00113,0 -10.06978,-0.0166 -10.06978,-2.43358 z m 29.18045,0.1938 c 0.1849,-1.29598 1.16232,-2.39819 2.31955,-2.61569 1.1,-0.20674 2.33061,-0.88634 2.73469,-1.51021 0.87615,-1.35273 0.99557,-24.17354 0.14314,-27.3533 -0.40843,-1.52351 -1.26605,-2.15035 -2.73635,-2 -1.63214,0.1669 -2.14148,-0.3288 -2.14148,-2.08408 0,-2.29827 0.0328,-2.30348 15.7501,-2.5 l 15.7501,-0.19694 -1e-4,5.75 c -1e-4,5.69327 -0.029,5.75 -2.93368,5.75 -2.45689,0 -2.98499,-0.44686 -3.25,-2.75 -0.30325,-2.63551 -0.57663,-2.7624 -6.56642,-3.04772 l -6.25,-0.29771 v 6.11413 c 0,6.08002 0.0154,6.11238 2.75,5.79772 1.97786,-0.22758 2.75,-0.87798 2.75,-2.31642 0,-1.46667 0.66667,-2 2.5,-2 2.40976,0 2.5106,0.26168 2.79381,7.25 l 0.29381,7.25 h -3.10667 c -2.64776,0 -3.06045,-0.33236 -2.79381,-2.25 0.25114,-1.80612 -0.22966,-2.31242 -2.43714,-2.56642 l -2.75,-0.31642 v 6.56642 6.56642 h 5.41821 c 7.25046,0 8.58179,-0.63714 8.58179,-4.10699 0,-2.54779 0.35799,-2.89301 3,-2.89301 h 3 v 6 6 h -16.56955 -16.56955 z m 33.81955,-0.26022 c 0,-1.96882 0.50745,-2.5 2.38829,-2.5 1.82688,0 3.69466,-1.8024 7.94559,-7.66742 6.18464,-8.53297 6.18577,-7.35491 -0.0164,-17.05039 -2.83484,-4.43163 -3.85706,-5.28219 -6.34821,-5.28219 -2.57239,0 -2.96935,-0.36757 -2.96988,-2.75 -6e-4,-2.71836 0.0713,-2.74875 6.25,-2.64118 l 6.25061,0.10882 4,7.11064 c 2.2,3.91085 4.225,7.11881 4.5,7.1288 0.73216,0.0266 5,-6.75335 5,-7.94306 0,-0.55771 -0.9,-1.01402 -2,-1.01402 -1.51493,0 -2.00022,-0.66697 -2.00092,-2.75 l -9.3e-4,-2.75 8.25093,0.17892 c 8.1218,0.17611 8.25599,0.22032 8.57461,2.82534 0.25242,2.06373 -0.0779,2.60448 -1.5,2.45593 -3.57731,-0.37368 -4.22577,0.12094 -8.87165,6.76693 l -4.7026,6.72713 2.76618,5.02287 c 4.61891,8.38713 7.34984,11.52288 10.03527,11.52288 1.94572,0 2.44911,0.51385 2.44911,2.5 0,2.4015 -0.24626,2.49945 -6.25,2.48596 l -6.25,-0.014 -4.34909,-8.08688 c -2.392,-4.44778 -4.69146,-7.70396 -5.10991,-7.23596 -2.34991,2.62815 -5.87862,8.80463 -5.43776,9.51796 0.28314,0.45812 1.61324,0.83295 2.95578,0.83295 1.93705,0 2.44098,0.51612 2.44098,2.5 0,2.48148 -0.0667,2.5 -9,2.5 -8.93333,0 -9,-0.0185 -9,-2.5 z m 49,0 c 0,-2.11111 0.46667,-2.5 3,-2.5 h 3 v -15.06037 -15.06036 l -3.75,0.31036 c -3.3605,0.27813 -3.74591,0.596 -3.71058,3.06037 0.0353,2.45886 -0.31411,2.75 -3.2999,2.75 h -3.33933 l 0.29991,-5.75 c 0.16494,-3.1625 0.6374,-5.6375 1.0499,-5.5 0.4125,0.1375 8.175,0.25 17.25,0.25 h 16.5 v 5.5 c 0,5.41677 -0.0444,5.5 -2.93358,5.5 -2.45689,0 -2.98499,-0.44686 -3.25,-2.75 -0.26366,-2.29145 -0.85834,-2.80225 -3.56642,-3.06336 l -3.25,-0.31336 v 15.06336 15.06336 h 3 c 2.53333,0 3,0.38889 3,2.5 v 2.5 h -10 -10 z M 161.77747,113.35869 c -3.92822,-1.58914 -7.23511,-6.71563 -7.9325,-12.29736 -0.3633,-2.907773 -0.50876,-15.209003 -0.32324,-27.336069 0.33065,-21.614195 0.38662,-22.121293 2.8373,-25.70285 1.375,-2.009503 3.74711,-4.171492 5.27136,-4.804421 4.09063,-1.6986 12.37489,-1.240268 15.22686,0.842435 3.33346,2.434329 5.50178,8.262192 5.50178,14.787353 v 5.479764 h -3.5 -3.5 v -5.92742 c 0,-5.252232 -0.30832,-6.169944 -2.70672,-8.056525 -3.29554,-2.592274 -6.81093,-2.04016 -10.04328,1.577358 -2.19509,2.456662 -2.25,3.079263 -2.25,25.512011 0,18.605595 0.28974,23.554194 1.51819,25.929744 1.72612,3.33796 5.51343,4.69148 9.35099,3.34188 3.96029,-1.39276 5.17481,-4.84198 4.88629,-13.877048 l -0.25547,-8 -3.25,0.0097 c -3.00395,0.0089 -3.25,-0.237111 -3.25,-3.25 v -3.2597 h 7 7 v 17.5 c 0,16.833328 -0.0762,17.499998 -2,17.499998 -1.31306,0 -2,-0.66667 -2,-1.94098 0,-2.53274 -1.83903,-3.64208 -2.62824,-1.58542 -1.40295,3.65601 -9.78214,5.64951 -14.95332,3.55755 z m 29.58156,-35.031148 v -35 h 10.36514 c 12.64548,0 14.87265,1.218683 16.5539,9.058122 2.16797,10.108887 0.54949,23.34101 -2.99245,24.465177 -2.29619,0.728783 -2.59303,3.476701 -0.37556,3.476701 2.79159,0 4.44897,6.299067 4.44897,16.908864 0,5.570044 0.44149,10.245954 1,10.591134 0.55,0.33992 1,1.71648 1,3.05902 0,2.0323 -0.49031,2.44098 -2.92857,2.44098 -5.33567,0 -6.07143,-1.83193 -6.07143,-15.116881 0,-11.45356 -0.10916,-12.083191 -2.51148,-14.485508 -2.03531,-2.03531 -3.3151,-2.453288 -6.75,-2.204546 l -4.23852,0.306937 -0.27539,15.75 -0.2754,15.749998 h -3.4746 -3.47461 z m 19.70984,-6 c 1.84712,-3.662958 1.66715,-17.016753 -0.26654,-19.777494 -1.28446,-1.833817 -2.50867,-2.222506 -7,-2.222506 h -5.4433 v 12.333333 c 0,6.783334 0.20215,12.53548 0.44921,12.782548 0.24707,0.247068 2.82313,0.209568 5.72458,-0.08333 4.34534,-0.438662 5.49762,-0.97329 6.53605,-3.032548 z m 13.85552,36.749998 c 0.32394,-2.3375 1.2185,-7.625 1.9879,-11.749998 0.7694,-4.125 1.82493,-10.2 2.34562,-13.5 1.5621,-9.900125 5.11418,-30.654494 6.16548,-36.024136 l 0.98366,-5.024137 3.88086,0.370101 3.88087,0.3701 1.05203,6.154036 c 0.57861,3.38472 2.00325,11.779036 3.16585,18.654036 1.16261,6.875 3.21498,18.8 4.56082,26.5 1.34584,7.699998 2.6016,15.012498 2.79059,16.249998 0.30399,1.99054 -0.0839,2.25 -3.36396,2.25 h -3.70759 l -1.40374,-8.25 -1.40375,-8.249998 h -6 -6 l -1.46259,8.249998 -1.46258,8.25 h -3.29923 -3.29924 z m 18.86272,-27.130612 c -0.70589,-4.059338 -1.60012,-10.594324 -1.98716,-14.522191 -0.71597,-7.265907 -2.03625,-10.032433 -2.81,-5.888093 -0.23524,1.259994 -1.29072,8.028398 -2.3455,15.040898 l -1.91778,12.75 h 5.17195 5.17195 z m 17.57192,-3.560587 v -34.9412 l 12.00189,-0.3088 12.00189,-0.308799 -0.002,3.75 -0.002,3.75 h -8.53174 -8.53173 l 0.28173,11.75 0.28174,11.75 6.75,0.29569 6.75,0.29569 v 3.45431 3.45431 h -7 -7 v 16 15.999998 h -3.5 -3.5 z m 31,0.05061 V 43.546354 l 3.5,-0.408605 3.5,-0.408606 v 35.2992 35.299197 h -3.5 -3.5 z"
       id="path1" />
  </g>
</svg>
