<svg xmlns="http://www.w3.org/2000/svg" viewBox="0 0 486.39 164.75"><defs><style>.cls-1{fill:#2e2e82;}</style></defs><title>logo-dark</title><g id="Layer_2" data-name="Layer 2"><g id="Layer_1-2" data-name="Layer 1"><path class="cls-1" d="M19.5,126.87H0v-1.34H19.5Zm78.15,0H78.15v-1.34h19.5Zm92.59-1.34v1.27h-56a21.47,21.47,0,0,1-7.57-1.26Zm58.13,1.27H228.58v-1.27h19.79ZM383,125.53v1.34H337.31a21.69,21.69,0,0,1-7.69-1.31Zm98,0v1.34H405.14a11.12,11.12,0,0,1-5.13-1.34Zm1.44,37a2.09,2.09,0,0,1-.6,1.64,2,2,0,0,1-1.38.54c-1.07-.24-1.32-.4-1.56-.63L459.47,146.7v16.66c0,.92-.54,1.39-1.61,1.39s-1.61-.47-1.61-1.39v-18.9a1.76,1.76,0,0,1,.63-1.51,2.26,2.26,0,0,1,1.39-.47c1.17.25,1.44.4,1.67.63l19.28,17.06v-16.4c0-.93.57-1.39,1.7-1.39s1.55.46,1.55,1.39Zm-62.22-10.24h19.4c.77,0,1.15.43,1.15,1.34s-.38,1.33-1.15,1.33h-19.4v4.13c0,1.87,1.8,2.81,5.37,2.81h14c.81,0,1.21.44,1.21,1.32s-.4,1.33-1.21,1.33H425.5c-5.71,0-8.55-1.77-8.55-5.29V148a4.45,4.45,0,0,1,2.19-4.07c1.48-.93,3.7-1.38,6.66-1.38h3.86c.76,0,1.13.44,1.13,1.35s-.37,1.26-1.13,1.26h-2.59c-4.54,0-6.82.94-6.82,2.84ZM402,150.59q0,5.25-8.4,5.26h-8l13.9,6.09c.81.75.88,1,.88,1.2-.68,1.44-1,1.61-1.45,1.61l-19.71-9.11v7.72c0,.92-.54,1.39-1.61,1.39s-1.71-.47-1.71-1.39V143.6l17-1c6.1,0,9.15,1.88,9.15,5.67ZM398.74,148c0-1.92-1.8-2.87-5.4-2.87H379.18v8.07h14.73c3.22,0,4.83-.77,4.83-2.34ZM359,158.82q0,5.77-9.71,5.77h-6.15c-6.45,0-9.69-1.9-9.69-5.71V148.31c0-3.85,3.24-5.76,9.69-5.76h6.15c6.48,0,9.71,1.91,9.71,5.76Zm-3.27-10.35c0-2.2-1.8-3.31-5.36-3.31h-7.9c-3.8,0-5.7,1.11-5.7,3.31v10.31q0,3.16,5.7,3.16h7.7c3.7,0,5.56-1.05,5.56-3.16Zm-38.15,11q0,5.1-8.24,5.09H294.72c-.83,0-1.23-.45-1.23-1.35s.4-1.3,1.23-1.3h15.07c3,0,4.52-.86,4.52-2.58v-1.9q0-2.86-5.4-2.86h-6.66q-8.61,0-8.61-4.65v-2.21c0-3.47,2.52-5.19,7.54-5.19h3.67c.81,0,1.23.44,1.23,1.35a1.1,1.1,0,0,1-1.23,1.26h-4.17c-2.51,0-3.75.93-3.75,2.81v1.67c0,1.58,1.59,2.36,4.8,2.36h6.74q9.12,0,9.12,5.15Zm-39,0q0,5.1-8.23,5.09H255.76c-.83,0-1.23-.45-1.23-1.35s.4-1.3,1.23-1.3h15.07q4.51,0,4.52-2.58v-1.9q0-2.86-5.4-2.86H263.3q-8.62,0-8.62-4.65v-2.21c0-3.47,2.52-5.19,7.53-5.19h3.67c.82,0,1.23.44,1.23,1.35a1.1,1.1,0,0,1-1.23,1.26h-4.16c-2.51,0-3.75.93-3.75,2.81v1.67c0,1.58,1.59,2.36,4.79,2.36h6.75q9.12,0,9.12,5.15Zm-59.09-7.17h19.4c.76,0,1.14.43,1.14,1.34s-.38,1.33-1.14,1.33h-19.4v4.13c0,1.87,1.78,2.81,5.36,2.81h14c.79,0,1.2.44,1.2,1.32s-.41,1.33-1.2,1.33H224.77q-8.55,0-8.55-5.29V148a4.48,4.48,0,0,1,2.2-4.07c1.48-.93,3.7-1.38,6.67-1.38h3.84c.76,0,1.15.44,1.15,1.35s-.39,1.26-1.15,1.26h-2.58c-4.55,0-6.81.94-6.81,2.84Zm-18.27-1.74q0,5.25-8.4,5.26h-8l13.91,6.09c.82.75.89,1,.89,1.2-.69,1.44-1,1.61-1.45,1.61l-19.72-9.11v7.72c0,.92-.53,1.39-1.62,1.39s-1.7-.47-1.7-1.39V143.6l17-1c6.1,0,9.15,1.88,9.15,5.67ZM198,148c0-1.92-1.8-2.87-5.39-2.87H178.46v8.07H193.2c3.22,0,4.82-.77,4.82-2.34Zm-37.8,3.28q0,5.17-8.95,5.17H137.19v6.88c0,.92-.56,1.39-1.67,1.39s-1.64-.47-1.64-1.39V143.6l17.51-1q8.84,0,8.83,4.91ZM157,147.74q0-2.58-5.11-2.58H137.19v8.63h14.45c3.56,0,5.33-.88,5.33-2.67Zm-40,15.62c0,.92-.56,1.39-1.68,1.39s-1.56-.47-1.56-1.39V147.27l-12.32,16.35a2.7,2.7,0,0,1-2.24,1.13,2.84,2.84,0,0,1-1.31-.29L84.38,147.34v16c0,.92-.53,1.39-1.58,1.39s-1.64-.47-1.64-1.39V144.27c0-1.27.61-1.89,1.83-1.89a2.63,2.63,0,0,1,2.18,1.17l14.07,18,13.81-18.15c1.24-.89,1.63-1,2-1a1.72,1.72,0,0,1,1.92,2Zm-52.68-4.54q0,5.77-9.73,5.77H48.45c-6.47,0-9.69-1.9-9.69-5.71V148.31c0-3.85,3.22-5.76,9.69-5.76h6.14c6.48,0,9.73,1.91,9.73,5.76ZM61,148.47c0-2.2-1.79-3.31-5.36-3.31H47.78c-3.81,0-5.71,1.11-5.71,3.31v10.31q0,3.16,5.71,3.16h7.7q5.55,0,5.55-3.16ZM5.79,153.35,22.1,162c.72.78.78,1,.78,1.23-.65,1.31-1,1.46-1.39,1.46L3.23,155v8.39c0,.92-.52,1.39-1.57,1.39S0,164.28,0,163.36V143.77c0-.93.56-1.39,1.64-1.39s1.55.46,1.55,1.39v8.11l16.66-9.25c1.27-.25,1.63-.08,1.92.21.48,1.22.43,1.41.33,1.62Z"/><path class="cls-1" d="M0,125.53V0H19.5V27.84H78.15q19.5,0,19.5,19.73v78H78.15v-78H19.5v78Zm126.63,0a17.74,17.74,0,0,1-6.56-4.27q-5.44-5.54-5.44-14.26V47.21q0-9.1,5.21-14.41t14.36-5.4V67.16H193V47.21H134.2V27.4H193A18.82,18.82,0,0,1,207.05,33a19.52,19.52,0,0,1,5.52,14.2V67.16q0,9-5.36,14.42T193,87H134.2v20h56v18.53Zm102,0V47.64q0-8.94,5.43-14.55t14.36-5.69h54.17V47.64H248.37v77.89Zm101,0a18.29,18.29,0,0,1-6.52-4.18,19.57,19.57,0,0,1-5.5-14.28V0H337.3V27.55H378V47.36H337.3v59.71H383v18.46Zm70.4,0c-3.84-2-6.88-6-6.88-10.06,0-3.11,1.28-7,3.13-8.88l59.88-59.23H398.8V27.48h75.69c6.06,0,11.9,5.59,11.9,11.4,0,3.11-1.27,7-3.12,8.88L423.38,107H481v18.53Z"/></g></g></svg>