<?xml version="1.0" encoding="UTF-8" standalone="no"?>
<!-- Created with Inkscape (http://www.inkscape.org/) -->

<svg
   version="1.1"
   id="svg1"
   width="987.81073"
   height="210.68767"
   viewBox="0 0 987.81073 210.68767"
   sodipodi:docname="IR_logo.svg"
   inkscape:version="1.4.3 (0d15f75, 2025-12-25)"
   xmlns:inkscape="http://www.inkscape.org/namespaces/inkscape"
   xmlns:sodipodi="http://sodipodi.sourceforge.net/DTD/sodipodi-0.dtd"
   xmlns="http://www.w3.org/2000/svg"
   xmlns:svg="http://www.w3.org/2000/svg">
  <defs
     id="defs1" />
  <sodipodi:namedview
     id="namedview1"
     pagecolor="#ff48e8"
     bordercolor="#000000"
     borderopacity="0.25"
     inkscape:showpageshadow="2"
     inkscape:pageopacity="0.0"
     inkscape:pagecheckerboard="0"
     inkscape:deskcolor="#d1d1d1"
     inkscape:zoom="0.63263141"
     inkscape:cx="488.43607"
     inkscape:cy="173.08657"
     inkscape:window-width="1920"
     inkscape:window-height="991"
     inkscape:window-x="-9"
     inkscape:window-y="-9"
     inkscape:window-maximized="1"
     inkscape:current-layer="svg1" />
  <g
     inkscape:groupmode="layer"
     inkscape:label="Image"
     id="g1"
     transform="translate(-96.622659,-315.14239)">
    <path
       style="fill:#ffffff;fill-opacity:1"
       d="M 184,524.79018 C 168.6649,522.79473 153.11226,518.82222 143.22036,514.37411 140.31657,513.06835 137.70745,512 137.42233,512 c -0.28512,0 -2.98052,-1.575 -5.98978,-3.5 -3.00926,-1.925 -5.80015,-3.50154 -6.20197,-3.50343 -1.68693,-0.008 -16.03138,-14.15915 -19.55822,-19.29478 -2.10521,-3.0655 -5.00447,-8.86497 -6.442816,-12.88771 -2.221651,-6.2135 -2.613906,-8.9693 -2.606791,-18.31408 0.0086,-11.23426 0.835614,-15.80071 4.618487,-25.5 2.16287,-5.54562 9.03831,-17.88084 11.99974,-21.52873 9.38106,-11.55561 12.93173,-15.4117 21.88528,-23.76778 5.70556,-5.32483 14.42374,-12.463 19.37374,-15.86261 4.95,-3.3996 9.15,-6.55455 9.33333,-7.01099 0.54515,-1.35723 3.4229,-0.94128 2.90649,0.42011 -0.26078,0.6875 -1.27412,5.075 -2.25185,9.75 l -1.7777,8.5 -8.82346,8.77642 c -13.14078,13.07072 -20.81071,24.76892 -26.36976,40.21925 -3.57524,9.9367 -3.6171,26.06127 -0.0947,36.47262 4.07057,12.03159 12.62538,22.4281 25.06311,30.45875 26.06435,16.82895 65.09822,21.83502 108.51453,13.91693 4.675,-0.8526 10.3,-1.98631 12.5,-2.51934 2.2,-0.53303 5.46667,-1.21135 7.25927,-1.50737 1.7926,-0.29603 3.50665,-0.93852 3.80902,-1.42775 0.30236,-0.48923 1.37886,-0.88951 2.39222,-0.88951 1.98295,0 21.93796,-7.72803 28.58597,-11.07057 3.37264,-1.69572 5.7485,-2.00519 14.26735,-1.85842 5.62147,0.0969 10.46177,0.5659 10.75621,1.04232 1.22955,1.98946 -37.1819,18.50444 -53.57004,23.0324 -1.925,0.53187 -4.85,1.36058 -6.5,1.84158 -15.07281,4.39396 -27.78672,6.73071 -49,9.00595 -11.19723,1.20097 -37.57658,1.08818 -47.5,-0.20308 z m 344,-22.34464 c -0.825,-0.17736 -4.03718,-0.60125 -7.13817,-0.94199 -8.45719,-0.92927 -9.41207,-1.96477 -7.92264,-8.59149 1.90568,-8.4787 1.46672,-8.03295 6.24896,-6.34568 2.35037,0.82926 7.47965,1.57315 11.39839,1.65307 8.80988,0.17969 13.50518,-1.78561 15.79514,-6.61135 2.40119,-5.06013 2.00746,-6.02138 -1.45616,-3.55506 -4.05512,2.88749 -13.99704,3.73664 -18.92552,1.61645 -8.28925,-3.56598 -11.17263,-10.4885 -9.78131,-23.48328 1.8833,-17.58978 13.2792,-29.25804 28.78131,-29.46919 7.64288,-0.10411 28.01005,1.17116 29.05908,1.81949 0.47556,0.29392 0.48746,1.53063 0.0264,2.74889 -0.46094,1.21803 -1.14378,5.1396 -1.51744,8.7146 -0.37365,3.575 -1.05964,7.4 -1.52442,8.5 -0.46478,1.1 -1.38001,5.375 -2.03386,9.5 -2.29667,14.48934 -4.34616,23.54065 -6.28775,27.76911 -4.15912,9.05781 -12.83157,14.7912 -24.68907,16.32203 -6.75007,0.87145 -7.50392,0.89808 -10.03298,0.3544 z M 547.66682,464.75 c 3.30681,-2.2611 3.68729,-3.27795 5.7061,-15.25 0.27824,-1.65 0.80165,-4.1906 1.16313,-5.64577 0.60933,-2.45285 0.3735,-2.69372 -3.23426,-3.30324 -7.52678,-1.27164 -14.3594,3.53654 -16.8253,11.84012 -1.99795,6.72785 -1.85781,9.82247 0.56247,12.42033 2.72481,2.92475 8.30029,2.89762 12.62786,-0.0614 z M 1069.75,482.96378 C 1064.0355,476.73326 1067.7376,468 1076.0932,468 c 5.6335,0 8.7726,3.45275 8.292,9.12064 -0.7007,8.26483 -9.2745,11.68795 -14.6352,5.84314 z m 8.25,-0.84134 c 0,-0.48265 -0.7093,-1.46621 -1.5762,-2.18569 -1.3035,-1.08184 -1.7246,-1.06803 -2.434,0.0798 -0.4718,0.76337 -0.636,1.74693 -0.3648,2.18569 0.67,1.08413 4.375,1.01654 4.375,-0.0798 z M 1072,477 c 0,-2.2 -0.45,-4 -1,-4 -0.55,0 -1,1.8 -1,4 0,2.2 0.45,4 1,4 0.55,0 1,-1.8 1,-4 z m 9.8203,0.0795 c 0.2023,-2.06213 -0.3158,-3.96946 -1.405,-5.17299 -1.8463,-2.04022 -7.4153,-2.64063 -7.4153,-0.79947 0,0.60884 0.7076,0.83546 1.5724,0.50358 0.8649,-0.33187 2.4425,-0.13781 3.5057,0.43125 1.6167,0.86521 1.8261,1.70523 1.2785,5.12944 -0.5208,3.25729 -0.3686,4.0007 0.7443,3.63475 0.7695,-0.25302 1.5433,-1.92997 1.7194,-3.72656 z M 1077,475 c 0,-0.55 -0.45,-1 -1,-1 -0.55,0 -1,0.45 -1,1 0,0.55 0.45,1 1,1 0.55,0 1,-0.45 1,-1 z m -929.73318,6.25 c 0.2716,-1.5125 3.08031,-14.45 6.24158,-28.75 3.16126,-14.3 6.09474,-27.575 6.51882,-29.5 2.67346,-12.13525 3.2775,-14.90978 4.02765,-18.5 0.45967,-2.2 1.31154,-6.025 1.89303,-8.5 0.5815,-2.475 1.50017,-6.75 2.0415,-9.5 0.54133,-2.75 1.92749,-9.275 3.08037,-14.5 1.15288,-5.225 2.33305,-10.9625 2.62259,-12.75 l 0.52645,-3.25 h 29.3906 C 226.53757,356 233,356.2763 233,357.2566 c 0,0.69113 -0.45467,2.82863 -1.01038,4.75 -0.55571,1.92137 -1.45392,5.9684 -1.99603,8.9934 -0.54211,3.025 -1.39205,7.3 -1.88876,9.5 -0.49672,2.2 -1.37738,6.25 -1.95702,9 -1.79194,8.5014 -8.31988,38.8063 -9.15489,42.5 -0.43516,1.925 -1.33198,5.975 -1.99292,9 -0.66094,3.025 -1.56094,7.075 -2,9 -2.4418,10.70577 -4.79905,21.83493 -5.61291,26.5 -0.28785,1.65 -1.01875,4.0125 -1.62421,5.25 L 204.66204,484 H 175.71752 146.773 Z m 68.2553,1.78579 c -0.3381,-0.54706 -0.15866,-2.69141 0.39876,-4.76522 1.27274,-4.7351 3.47579,-14.40567 5.64299,-24.77057 1.88207,-9.00125 3.25394,-15.34449 4.43358,-20.5 0.44046,-1.925 1.34161,-5.975 2.00255,-9 0.66094,-3.025 1.58575,-7.075 2.05514,-9 0.46939,-1.925 1.34683,-5.525 1.94987,-8 1.08267,-4.44352 2.42286,-10.70532 3.95948,-18.5 1.4247,-7.22699 4.1584,-19.93323 5.05592,-23.5 0.4844,-1.925 1.13655,-4.7375 1.44921,-6.25 L 243.0381,356 h 52.4666 c 35.57156,0 54.00079,0.36439 57.23095,1.13159 16.50548,3.92023 23.03583,14.01966 20.26804,31.3453 -1.86688,11.68621 -8.46162,21.05384 -17.95054,25.49821 -2.77923,1.30173 -5.05193,2.62735 -5.05045,2.94584 10e-4,0.31848 1.68899,1.47906 3.75,2.57906 2.5571,1.36477 4.50486,3.52781 6.13243,6.81026 2.24618,4.53 2.32252,5.25826 1.31031,12.5 -0.59116,4.22936 -1.57263,9.93974 -2.18105,12.68974 -2.79094,12.61477 -3.24621,15.54778 -3.68657,23.75 l -0.46976,8.75 h -26.56879 c -24.13087,0 -26.69068,-0.16058 -27.89722,-1.75 -2.08779,-2.75032 -1.63166,-9.50751 1.52735,-22.62627 4.69898,-19.51399 4.66935,-19.12589 1.68792,-22.10732 -2.45224,-2.45224 -3.07368,-2.57862 -11.33635,-2.30544 l -8.74188,0.28903 -0.81263,4 c -0.44695,2.2 -1.22033,6.025 -1.71863,8.5 -1.41683,7.0372 -2.68241,13.06449 -3.88455,18.5 -0.6082,2.75 -1.66999,7.7 -2.35955,11 l -1.25373,6 -28.68157,0.26522 c -18.23171,0.16859 -28.90555,-0.0972 -29.29631,-0.72943 z m 93.061,-79.16104 c 7.07215,-1.78079 11.50296,-9.46078 9.22619,-15.99192 C 316.43785,383.94866 313.6842,383 303.63603,383 h -8.23377 l -2.20113,9.76026 c -1.21062,5.36814 -2.20113,10.31814 -2.20113,11 0,1.60324 11.37656,1.67732 17.58312,0.11449 z m 276.14541,77.72453 c -6.18779,-3.03222 -9.41096,-6.84125 -11.34129,-13.40271 -2.45147,-8.3329 -0.12089,-20.52718 5.34556,-27.96952 6.89414,-9.38611 14.67261,-13.55206 25.35115,-13.57745 9.62707,-0.0229 14.2621,2.17357 18.29754,8.67084 2.62524,4.22677 2.87112,5.40043 2.76486,13.19743 -0.16407,12.03884 -0.50013,12.46397 -9.93153,12.56377 -26.77762,0.28336 -25.74344,0.16485 -25.433,2.91446 0.48134,4.26338 2.64954,5.43632 10.81091,5.84845 5.28557,0.26691 9.20642,-0.13667 13.03884,-1.34212 3.01422,-0.94808 5.67357,-1.53062 5.90967,-1.29452 0.2361,0.23609 -0.115,3.02407 -0.78021,6.1955 -0.81935,3.90626 -1.86292,6.13311 -3.23526,6.90364 -7.57628,4.25386 -23.3987,4.91776 -30.79724,1.29223 z M 608.98469,446.25 c -0.0293,-5.26742 -3.72568,-7.71253 -9.32291,-6.16706 C 596.51256,440.95248 591,446.21026 591,448.34439 591,448.70498 595.05,449 600,449 h 9 z M 667,482.43713 c -1.925,-0.72833 -4.2875,-1.34964 -5.25,-1.38069 -2.10843,-0.068 -2.27817,-3.05297 -0.5426,-9.54209 1.12481,-4.2055 2.92112,-5.73345 4.23713,-3.6041 0.79972,1.29398 14.17119,3.40301 17.02857,2.68586 6.27684,-1.57539 6.45014,-6.27014 0.31512,-8.53655 -13.59306,-5.02156 -16.21529,-8.07854 -15.38061,-17.93067 1.19347,-14.08727 11.87085,-19.36542 33.90697,-16.76121 4.57067,0.54016 7.00403,1.29904 7.38992,2.30466 0.31644,0.82462 0.0202,3.98 -0.65833,7.01195 l -1.23367,5.51263 -3.65625,-0.63683 c -8.83348,-1.53858 -11.40831,-1.73538 -14.67836,-1.12192 -2.75961,0.51771 -3.47789,1.12209 -3.47789,2.92642 0,1.87168 1.33671,2.86141 7.55572,5.59447 10.36452,4.55487 12.81973,7.812 12.27799,16.28829 -0.59009,9.23296 -4.33256,13.63575 -14.83371,17.45094 -4.46865,1.62352 -18.43801,1.4649 -23,-0.26116 z m 52.78999,-0.80823 c -8.76558,-4.29634 -12.50072,-12.07192 -11.41428,-23.76154 2.05938,-22.15813 18.73447,-34.70824 40.86474,-30.75589 6.56526,1.17253 7.70532,1.74214 11.92052,5.95588 4.1478,4.14636 4.7427,5.30747 5.40333,10.546 1.38236,10.96169 -2.29864,23.83627 -8.88859,31.08851 -1.6002,1.76103 -5.75351,4.57353 -9.22958,6.25 -5.60084,2.70124 -7.32308,3.04458 -15.13312,3.01687 -7.13639,-0.0253 -9.70906,-0.47046 -13.52302,-2.33983 z m 23.5122,-14.99776 c 5.44711,-5.4471 7.50044,-19.97136 3.40272,-24.06908 -0.77963,-0.77964 -2.94468,-1.69793 -4.81121,-2.04066 -8.43642,-1.54906 -16.85763,9.69192 -15.54755,20.75353 0.75071,6.33854 3.2617,8.67062 9.37052,8.70283 3.47019,0.0183 4.81305,-0.57414 7.58552,-3.34662 z m 159.57286,14.92992 c -8.80015,-5.97985 -8.92508,-17.54464 -0.28303,-26.19956 3.47902,-3.4842 5.30037,-4.40731 11.52017,-5.83872 6.69628,-1.54106 11.21374,-2.16332 17.63781,-2.42954 2.84766,-0.11801 2.90486,-2.43838 0.12855,-5.21469 -1.89185,-1.89185 -2.96503,-2.07263 -9.91569,-1.67026 -4.93493,0.28568 -8.72938,1.06393 -10.34336,2.12146 -1.40203,0.91864 -3.01497,1.67025 -3.58432,1.67025 -1.3818,0 -1.21817,-6.63326 0.27126,-10.99636 1.58233,-4.63522 5.88968,-6.01776 19.08207,-6.12485 10.21608,-0.0829 15.93058,1.29744 19.29362,4.66048 3.84702,3.84702 5.33405,12.77577 3.38829,20.34471 -1.02091,3.97131 -2.24629,10.39853 -4.31186,22.61602 l -1.35253,8 -5.91135,0.30612 C 930.74434,483.20747 928,482.46869 928,479.98095 c 0,-2.09739 -1.4594,-2.66468 -2.50456,-0.97357 -1.38701,2.24422 -9.067,4.99262 -13.95113,4.99262 -3.73704,0 -6.02892,-0.64478 -8.66926,-2.43894 z m 24.71843,-13.70149 c 1.29694,-1.29776 2.65023,-3.82207 3.0073,-5.60957 L 931.25,459 h -4.97712 c -8.41503,0 -14.86424,6.17268 -11.13897,10.66135 1.90795,2.29894 9.45165,1.20805 12.45957,-1.80178 z m 91.36932,14.41328 c -1.3954,-0.84937 -3.8019,-3.30379 -5.3477,-5.45426 -2.3212,-3.22932 -2.903,-5.2599 -3.342,-11.66472 -0.458,-6.68243 -0.1586,-8.83537 2.1657,-15.56933 2.9733,-8.61431 3.1358,-8.87352 9.5087,-15.16461 2.7751,-2.73949 6.3277,-5.01489 9.4475,-6.05113 4.4518,-1.47863 14.6087,-2.08051 20.0638,-1.18894 2.07,0.33833 2.0598,0.36673 4.3657,-12.17986 0.556,-3.025 1.4868,-6.7375 2.0684,-8.25 1.0321,-2.68368 1.2511,-2.75 9.0823,-2.75 6.6634,0 8.0248,0.26934 8.0248,1.58766 0,1.71927 -6.3455,35.20409 -7.9926,42.17669 -0.5541,2.34539 -1.0074,5.96789 -1.0074,8.05 0,2.08211 -0.4064,4.21315 -0.903,4.73565 -0.4967,0.5225 -1.1366,2.975 -1.4219,5.45 -0.7094,6.15327 -2.4206,14.77914 -3.1734,15.99729 -0.3409,0.55149 -4.1932,1.00271 -8.5607,1.00271 H 1044 v -3.17431 -3.17432 l -2.25,2.05734 c -4.086,3.7361 -8.418,5.29496 -14.4503,5.19986 -3.3134,-0.0522 -6.8874,-0.75347 -8.3369,-1.63572 z m 21.2899,-13.40811 c 5.3864,-2.88268 8.0123,-9.01836 9.4004,-21.96439 0.6003,-5.59897 0.6,-5.59973 -2.4096,-6.20164 -4.5276,-0.90552 -9.4993,0.89045 -13.4774,4.86851 -6.1687,6.16868 -7.2721,19.04634 -1.9768,23.06948 2.1325,1.62018 5.6834,1.71586 8.4634,0.22804 z M 434,480.99677 c 0,-1.1446 0.67359,-5.54962 1.49686,-9.78893 2.43827,-12.5555 3.61458,-18.46834 4.51754,-22.70784 0.46857,-2.2 1.35265,-6.925 1.96461,-10.5 2.08406,-12.17469 3.9694,-21.56373 5.6337,-28.05591 0.31963,-1.24684 2.08615,-1.57052 8.89307,-1.6295 9.92488,-0.086 9.32137,-1.42037 6.41583,14.18541 -1.12641,6.05 -2.4716,13.475 -2.9893,16.5 -0.5177,3.025 -1.38928,7.75 -1.93685,10.5 -1.10955,5.57231 -2.50328,12.85358 -3.97184,20.75 -0.53701,2.8875 -1.34186,6.825 -1.78854,8.75 l -0.81215,3.5 -8.71147,0.28893 C 434.46096,483.06258 434,482.96775 434,480.99677 Z m 23.33309,0.42888 c -0.33227,-0.8659 -0.11643,-3.2284 0.47964,-5.25 0.59608,-2.02161 1.37133,-5.47565 1.72279,-7.67565 0.35145,-2.2 1.04772,-6.025 1.54726,-8.5 1.13531,-5.62493 2.47908,-13.18093 4.17929,-23.5 l 1.3181,-8 8.83428,-0.29075 8.83428,-0.29074 -0.48569,2.54074 c -0.57152,2.9897 0.12857,3.18399 2.84932,0.79075 4.00866,-3.52613 6.73744,-4.42647 13.41588,-4.42647 7.64336,0 11.1259,1.64007 13.58657,6.39848 1.95915,3.78859 1.92758,8.12731 -0.14396,19.77799 -2.49238,14.01763 -3.33586,18.94192 -4.19656,24.5 l -0.77429,5 -7.90514,0.29486 c -4.34783,0.16217 -8.31862,-0.11862 -8.82398,-0.62398 -0.55845,-0.55845 -0.45647,-3.22355 0.26001,-6.79486 2.59307,-12.92528 3.01029,-15.13325 4.09892,-21.69176 1.32183,-7.96352 0.34592,-11.27577 -3.61521,-12.26995 C 486.32496,439.86081 481.2579,445.01282 479.15293,455 476.56449,467.28107 475,476.04276 475,478.25784 475,482.09338 473.13952,483 465.26862,483 c -5.74819,0 -7.46185,-0.33998 -7.93553,-1.57435 z m 166.27929,0.75618 c -0.6355,-1.02826 0.21321,-6.53551 3.72661,-24.18183 1.36881,-6.875 2.99704,-15.65 3.61827,-19.5 1.84421,-11.42923 0.98472,-10.61593 10.87212,-10.28778 L 650.5,428.5 l -0.3229,2.76022 -0.32291,2.76021 3.31857,-3.03104 c 4.56277,-4.16744 13.74386,-6.55135 15.33236,-3.98111 0.34273,0.55455 -0.14155,4.15455 -1.07619,8 L 665.72959,442 h -4.33087 c -9.61348,0 -14.42005,4.99416 -16.84268,17.5 -0.85237,4.4 -1.99971,10.25 -2.54965,13 -0.54994,2.75 -1.11385,6.125 -1.25314,7.5 -0.24464,2.41502 -0.53085,2.50983 -8.42007,2.7891 -4.49175,0.159 -8.41611,-0.11427 -8.7208,-0.60727 z m 141.96948,-0.0494 c -0.2949,-0.47716 0.18347,-4.41466 1.06304,-8.75 0.87957,-4.33535 1.95578,-9.90745 2.39158,-12.38245 2.62997,-14.93641 4.26267,-23.62537 5.82506,-31 1.1131,-5.25395 2.97586,-14.99874 3.82308,-20 0.3261,-1.925 0.99272,-4.01088 1.48138,-4.63528 1.03279,-1.31968 15.63847,-1.49012 16.44084,-0.19185 0.28777,0.46562 -0.36395,5.4547 -1.44827,11.08686 -1.08432,5.63215 -2.51026,13.39027 -3.16876,17.24027 -0.6585,3.85 -1.6006,8.03367 -2.09354,9.29705 -0.49295,1.26338 -0.89627,3.46117 -0.89627,4.88398 0,1.42281 -0.41831,4.21414 -0.92958,6.20295 -0.51126,1.98881 -1.44781,6.31602 -2.08122,9.61602 -0.63341,3.3 -1.53971,7.8 -2.014,10 -0.47429,2.2 -1.12131,5.2375 -1.43783,6.75 -0.56923,2.72015 -0.66147,2.75 -8.49741,2.75 -4.35706,0 -8.16321,-0.3904 -8.4581,-0.86755 z M 790.08438,480.75 c 0.15019,-4.00451 2.23866,-16.19958 5.69425,-33.25 1.11467,-5.5 3.02961,-15.4 4.25541,-22 1.2258,-6.6 2.778,-14.025 3.44933,-16.5 l 1.22061,-4.5 8.14801,-0.29044 C 820.2522,403.94577 821,404.09099 821,405.79188 c 0,1.03002 -2.24508,13.76072 -4.98907,28.29044 -2.74399,14.52972 -5.70107,30.46768 -6.5713,35.41768 -2.46991,14.04932 -2.0053,13.5 -11.41819,13.5 -7.67687,0 -8.01782,-0.0967 -7.93706,-2.25 z m 46.36679,1.171 c -0.36677,-0.59345 -0.1984,-2.95595 0.37416,-5.25 0.57256,-2.29405 1.55116,-7.096 2.17467,-10.671 0.62351,-3.575 1.52351,-8.3 2,-10.5 0.47649,-2.2 1.36705,-6.925 1.97901,-10.5 0.61197,-3.575 1.57859,-8.975 2.14806,-12 1.00333,-5.32973 1.48426,-7.6291 3.92172,-18.75 l 1.15069,-5.25 18.15026,0.006 c 9.98264,0.003 19.85006,0.47761 21.92759,1.05455 11.39349,3.164 15.65907,16.01688 9.43854,28.43987 -2.87814,5.74792 -7.49243,9.40953 -14.93069,11.84805 -1.5626,0.51228 -1.48754,1.0761 0.84558,6.3517 3.57079,8.0742 9.35351,23.54706 9.3621,25.05025 0.005,0.90788 -2.45469,1.25 -8.98774,1.25 h -8.99487 l -1.89108,-4.25 c -1.04008,-2.3375 -3.35369,-8.42948 -5.14135,-13.53772 -3.47567,-9.9318 -5.20275,-11.83766 -9.31158,-10.27548 -2.02228,0.76887 -2.5597,1.80104 -2.99391,5.75014 -0.63891,5.81082 -1.35791,10.10126 -2.85943,17.06306 l -1.13233,5.25 h -8.28127 c -4.84637,0 -8.55787,-0.44755 -8.94813,-1.079 z m 40.84849,-43.57468 c 4.23598,-2.18881 5.63011,-4.17436 5.66854,-8.07327 0.0474,-4.80609 -3.08303,-6.44219 -11.61596,-6.07107 L 864.5,424.5 l -0.65265,4 c -0.35896,2.2 -0.98034,5.6875 -1.38084,7.75 l -0.72819,3.75 h 6.1805 c 3.79219,0 7.4172,-0.63903 9.38084,-1.65368 z m 74.40538,44.02539 c -0.97735,-0.97736 -0.88084,-4.95582 0.22454,-9.25569 0.86679,-3.3718 1.61547,-7.15538 4.02995,-20.36602 0.52774,-2.8875 1.79139,-9.525 2.80811,-14.75 l 1.84858,-9.5 8.19189,-0.29044 L 977,427.91912 v 2.55463 2.55463 l 4.03268,-2.6687 c 7.87989,-5.21467 18.7999,-4.98864 24.29132,0.5028 4.0427,4.04263 4.5098,10.45472 1.6858,23.13752 -1.1634,5.225 -2.5869,13.1 -3.1632,17.5 -1.5162,11.57471 -1.4455,11.5 -10.88178,11.5 H 985 v -3.05718 c 0,-1.68145 0.41295,-4.94395 0.91766,-7.25 0.50471,-2.30605 1.44519,-6.89282 2.08996,-10.19282 0.64477,-3.3 1.61771,-8.10002 2.1621,-10.66671 2.13232,-10.05347 -5.03957,-14.3861 -12.50079,-7.55189 -3.70281,3.39165 -4.49905,6.09734 -7.71564,26.2186 -0.43961,2.75 -1.1886,6.575 -1.66442,8.5 l -0.86511,3.5 -7.50684,0.28837 c -4.12876,0.15861 -7.82411,-0.0289 -8.21188,-0.41666 z M 362,474.01435 c 0,-9.81399 1.69102,-13.31728 11.00704,-22.80333 7.49643,-7.63325 13.55883,-15.07423 17.71747,-21.7464 C 393.30388,425.32626 398,414.78288 398,413.13023 c 0,-0.95163 0.44127,-2.1715 0.9806,-2.71083 1.6439,-1.6439 2.40246,-20.27841 1.09581,-26.9194 -1.1627,-5.9094 -1.72029,-7.56505 -4.88331,-14.5 -1.4815,-3.24819 -5.38501,-8.63381 -9.83145,-13.56432 -14.33274,-15.89307 -48.94375,-27.44185 -82.2176,-27.43384 -6.92701,0.002 -30.20227,2.20275 -37.64405,3.55989 -12.82387,2.33868 -40.44677,10.62868 -52.5,15.75596 -3.68106,1.56587 -25.28109,2.73455 -26.57765,1.43799 -0.57074,-0.57074 8.31025,-5.09237 23.07765,-11.74966 9.73384,-4.3881 39.78166,-13.46632 53,-16.01265 3.3,-0.6357 7.8,-1.55053 10,-2.03295 2.2,-0.48241 10.67606,-1.64658 18.83568,-2.58703 13.06419,-1.50574 17.36287,-1.56832 36,-0.52407 26.15345,1.4654 38.63421,3.81094 55.16432,10.36716 23.55881,9.34397 38.84852,23.70841 45.53937,42.78352 1.78729,5.09543 2.2803,8.66088 2.28152,16.5 10e-4,9.05621 -1.95697,20.56723 -4.33767,25.496 -8.57411,17.75105 -13.46315,24.54862 -28.44889,39.55452 -10.30609,10.31995 -32.45411,28.43165 -34.78433,28.44514 -0.4125,0.002 -0.75,-2.2392 -0.75,-4.98131 z"
       id="path1" />
  </g>
</svg>
