<?xml version="1.0" encoding="UTF-8" standalone="no"?>
<svg
   width="241"
   height="80"
   viewBox="0 0 241 80"
   version="1.1"
   id="svg24"
   sodipodi:docname="kaeser.svg"
   inkscape:version="1.4.3 (0d15f75, 2025-12-25)"
   xmlns:inkscape="http://www.inkscape.org/namespaces/inkscape"
   xmlns:sodipodi="http://sodipodi.sourceforge.net/DTD/sodipodi-0.dtd"
   xmlns="http://www.w3.org/2000/svg"
   xmlns:svg="http://www.w3.org/2000/svg">
  <defs
     id="defs24" />
  <sodipodi:namedview
     id="namedview24"
     pagecolor="#ffe221"
     bordercolor="#000000"
     borderopacity="0.25"
     inkscape:showpageshadow="2"
     inkscape:pageopacity="0.0"
     inkscape:pagecheckerboard="0"
     inkscape:deskcolor="#d1d1d1"
     inkscape:zoom="5.202076"
     inkscape:cx="125.23846"
     inkscape:cy="30.660836"
     inkscape:window-width="1920"
     inkscape:window-height="991"
     inkscape:window-x="-9"
     inkscape:window-y="-9"
     inkscape:window-maximized="1"
     inkscape:current-layer="svg24" />
  <path
     id="path2"
     d="M 77.216797 10.552734 L 60.488281 10.568359 C 56.812981 19.804259 51.912553 30.468091 48.626953 39.587891 C 46.867653 35.328891 44.092522 30.727137 42.169922 26.460938 C 43.422022 22.943838 47.037438 13.851747 48.648438 10.560547 L 33.326172 10.556641 C 31.476572 15.237941 28.575366 20.260228 26.572266 25.048828 C 26.835466 20.390828 26.752206 15.288837 26.753906 10.585938 C 22.301406 10.581837 17.082406 10.452172 12.691406 10.638672 C 12.595206 20.542072 12.407484 32.364269 12.708984 42.230469 L 26.734375 42.236328 C 26.735475 37.158528 26.814544 31.860481 26.714844 26.800781 C 28.784244 31.624081 32.176322 37.81585 33.919922 42.28125 C 43.560222 42.19155 53.320369 42.368881 62.917969 42.238281 L 63.609375 39.462891 C 67.069875 39.473491 70.732834 39.432272 74.177734 39.513672 L 74.652344 42.25 C 79.604944 42.2441 84.740934 42.30915 89.677734 42.21875 L 80.759766 19.5625 C 79.732266 16.9582 78.085697 13.113334 77.216797 10.552734 z M 68.544922 27.890625 C 69.328622 28.580825 70.616872 32.041434 70.763672 33.115234 C 70.377672 33.432434 68.7952 33.330178 68.1875 33.330078 C 67.6673 33.334778 67.271159 33.291381 66.755859 33.238281 L 66.490234 32.740234 C 66.596234 31.313134 67.837722 29.276025 68.544922 27.890625 z "
     style="fill:#ffffff;fill-opacity:1" />
  <path
     id="path4"
     d="M 208.85742 10.371094 C 202.27742 10.383894 195.49377 10.529441 193.00977 10.587891 L 193.01758 42.226562 L 207.58008 42.259766 C 207.57408 40.326166 207.34477 34.913569 208.13477 33.480469 L 208.54102 33.34375 C 209.75102 34.08275 212.7153 40.631997 213.5293 42.279297 L 226.125 42.240234 L 229.74414 42.25 L 224.54492 31.59375 C 227.14692 30.17475 229.20302 27.844803 230.04102 24.970703 C 230.92602 21.936703 230.27967 18.289741 228.76367 15.556641 C 227.64767 13.543641 225.75742 11.587166 223.48242 10.947266 C 221.81242 10.477616 215.43742 10.358294 208.85742 10.371094 z M 207.6582 18.560547 C 211.8642 19.291147 217.15887 16.739591 214.92188 24.150391 C 213.54487 24.709191 209.38973 24.551369 207.67773 24.542969 C 207.56473 22.707369 207.6402 20.439447 207.6582 18.560547 z "
     style="fill:#ffffff;fill-opacity:1" />
  <path
     fill="#FEFEFE"
     d="M136.658 8.59813C142.959 8.1326 150.121 10.204 155.639 13.1802C154.506 15.028 153.054 17.9682 151.985 19.9594C148.782 18.3637 144.68 16.6513 141.039 16.7609C139.431 16.8092 138.19 18.8772 138.662 19.7775C140.844 23.9354 148.626 21.9854 152.178 25.4129C153.919 27.0926 154.93 28.1604 155.235 30.6879C155.785 38.5875 151.533 42.8268 144.302 43.7392C137.502 44.6087 129.882 42.672 124.037 39.129L127.708 32.1254C129.574 33.0813 140.514 38.7366 140.639 32.7863C140.501 30.9642 136.474 29.8428 135.067 29.7132C125.899 28.8693 121.728 20.7415 126.792 12.9627C128.677 10.0678 133.062 9.03629 136.658 8.59813Z"
     id="path6" />
  <path
     fill="#FEFEFE"
     d="M91.8366 10.6272C100.579 10.5328 111.347 10.2979 120.02 10.6676L119.993 18.6886C115.846 18.6516 110.727 18.8323 106.672 18.5791L106.575 22.0662C110.272 22.0188 113.97 22.0234 117.667 22.08C117.583 24.707 117.628 27.6239 117.611 30.2752C116.174 30.2715 107.292 30.0825 106.693 30.5336C106.611 31.7833 106.647 33.1912 106.652 34.4559C110.321 34.2126 116.159 34.4113 119.999 34.4389L119.991 42.2317L91.7884 42.2327C91.7875 32.4069 91.412 20.2435 91.8366 10.6272Z"
     id="path7" />
  <path
     fill="#FEFEFE"
     d="M159.465 10.5825C168.782 10.5358 178.098 10.5399 187.415 10.5947C187.391 13.261 187.337 15.9873 187.433 18.6469L174.229 18.7014L174.25 22.0602L185.314 22.0445C185.304 24.7333 185.244 27.603 185.4 30.2718C183.804 30.2761 175.427 30.1751 174.392 30.4338L174.237 30.9375L174.241 34.4386C178.625 34.3598 183.011 34.3672 187.395 34.4608C187.277 36.8056 187.378 39.8632 187.39 42.2597L159.446 42.2154C159.206 32.1476 159.35 20.6585 159.465 10.5825Z"
     id="path8" />
  <path
     id="path9"
     d="M 41.128906 48.722656 C 40.74221 48.719442 40.343384 48.735834 39.933594 48.773438 C 28.815194 51.928138 30.095725 72.797931 43.453125 71.207031 C 54.000197 67.970437 53.116481 48.822307 41.128906 48.722656 z M 40.548828 52.503906 C 48.708728 52.149106 48.525644 65.281328 42.777344 67.486328 C 42.183844 67.518428 40.894031 67.601847 40.394531 67.373047 C 34.696331 64.763147 35.114728 55.221306 40.548828 52.503906 z "
     style="fill:#ffffff;fill-opacity:1" />
  <path
     id="path11"
     style="fill:#ffffff;fill-opacity:1"
     d="M 162.57422 48.708984 C 162.19037 48.717952 161.79433 48.747406 161.38867 48.798828 C 150.27267 52.175528 152.12448 73.013122 165.02148 71.232422 C 175.86761 67.970738 174.47363 48.430976 162.57422 48.708984 z M 163.22656 52.490234 C 163.69469 52.497134 164.15119 52.53705 164.42969 52.65625 C 169.99669 55.03875 169.81291 64.864269 164.50391 67.480469 C 156.41491 68.018569 156.01098 55.875291 161.95898 52.525391 C 162.27898 52.510291 162.75844 52.483334 163.22656 52.490234 z " />
  <path
     fill="#FEFEFE"
     d="M67.4147 49.0238L73.2482 49.0382C73.3241 56.2193 73.2609 63.5215 73.2561 70.7108L69.3207 70.6262C69.539 66.9889 69.2485 62.6595 69.3598 58.85C69.5079 57.2131 69.4653 55.4574 69.4592 53.8063C68.5755 56.5211 66.7383 67.4289 66.1371 70.6702L62.1295 70.6615C61.2982 65.4639 59.7536 59.9837 59.1286 54.8638L58.8902 54.9902C58.5283 58.1195 58.7874 67.1222 58.8111 70.6889L54.8269 70.6746C55.2143 65.2622 54.8811 54.6931 54.8161 49.056C56.7837 49.0069 58.8648 49.0388 60.8425 49.0393C61.5366 54.3153 63.1609 61.4823 64.206 66.7921C64.716 61.764 66.4012 54.184 67.4147 49.0238Z"
     id="path13" />
  <path
     id="path14"
     style="fill:#ffffff;fill-opacity:1"
     d="M 184.51758 48.853516 C 181.60883 48.724941 178.51042 49.015569 176.79492 49.042969 C 176.85392 56.232369 176.86322 63.421828 176.82422 70.611328 L 180.74609 70.757812 C 180.75909 67.898613 180.71702 64.854019 180.79102 62.011719 C 189.36702 61.994719 186.99014 62.625353 187.61914 69.439453 C 188.17114 71.320453 190.58289 70.657478 192.33789 70.767578 C 190.92589 67.065978 191.76969 65.328134 191.05469 61.802734 C 190.37969 61.272534 189.66994 60.688991 188.96094 60.212891 C 192.31094 57.919591 193.11161 54.663341 191.09961 51.181641 C 190.14511 49.529841 187.42633 48.982091 184.51758 48.853516 z M 183.89453 52.65625 C 186.88408 52.617812 189.17033 53.033734 187.64258 57.771484 C 186.17958 58.693384 182.56591 58.352641 180.75391 58.306641 L 180.78516 52.703125 C 181.82266 52.732225 182.89802 52.669063 183.89453 52.65625 z " />
  <path
     id="path16"
     style="fill:#ffffff;fill-opacity:1"
     d="M 104.67578 48.8125 C 102.12431 48.749922 99.413591 49.047322 97.314453 48.998047 L 97.277344 70.664062 L 101.21094 70.6875 C 101.20694 67.9061 101.13305 64.764519 101.24805 62.011719 C 109.08905 61.971619 107.67539 62.4957 108.02539 69.5625 C 108.46939 71.1735 111.15059 70.740828 112.68359 70.736328 C 110.96559 65.971928 113.15745 62.60305 109.43945 60.34375 C 110.96245 59.01405 112.46887 57.555406 112.54688 55.378906 C 112.74 50.018906 108.92824 48.916797 104.67578 48.8125 z M 101.22852 52.677734 C 105.56552 52.952634 109.83841 51.308253 108.06641 57.814453 C 106.42041 58.624753 103.11889 58.343834 101.21289 58.302734 L 101.22852 52.677734 z " />
  <path
     id="path18"
     d="M 83.488281 48.910156 C 81.771214 48.929783 80.015159 49.033606 78.412109 49.003906 C 78.126309 55.854906 78.323672 63.725756 78.326172 70.660156 L 82.240234 70.671875 L 82.28125 62.828125 C 82.89015 62.872925 83.834363 62.973516 84.414062 62.978516 C 86.269963 62.939316 87.741166 62.917613 89.572266 62.445312 C 91.596366 60.768012 92.357325 59.575447 92.640625 56.935547 C 93.4327 49.554872 88.639483 48.851277 83.488281 48.910156 z M 82.269531 52.714844 C 86.792331 52.626444 90.421803 52.639084 88.158203 58.583984 C 86.222603 59.434784 84.370813 59.268216 82.257812 59.291016 L 82.269531 52.714844 z "
     style="fill:#ffffff;fill-opacity:1" />
  <path
     fill="#FEFEFE"
     d="M117.507 49.0151L131.17 49.0086L131.167 52.6945L121.49 52.6889L121.417 57.7054C124.225 57.5595 127.616 57.6759 130.468 57.706C130.389 58.7522 130.452 60.3157 130.464 61.4033C129.209 61.3908 122.073 61.1734 121.495 61.5674C121.403 63.3438 121.45 65.2299 121.463 67.0159L131.516 66.9605L131.534 70.7279C126.991 70.6058 122.084 70.6825 117.512 70.6675C117.417 63.5228 117.502 56.1751 117.507 49.0151Z"
     id="path20" />
  <path
     fill="#FEFEFE"
     d="M141.054 48.7844C146.795 48.3108 149.17 50.1856 150.157 55.7144C148.984 55.6862 147.636 55.7301 146.447 55.7393C145.857 53.467 143.666 51.5779 141.298 52.1519C140.691 52.298 140.169 52.68 139.845 53.2131C136.734 58.4328 145.536 57.4943 147.836 59.1698C153.253 63.1157 150.832 69.6039 144.899 71.2412C138.909 71.7033 136.15 70.3572 135.043 64.2977L138.797 64.2127C139.634 67.0134 140.447 67.8084 143.538 67.7327C145.607 67.6821 147.213 66.3138 146.987 64.1289C145.499 60.6209 136.396 62.3676 135.558 56.8408C134.87 52.3047 136.616 49.7249 141.054 48.7844Z"
     id="path21" />
  <path
     fill="#FEFEFE"
     d="M220.372 48.8023C226.231 48.3029 229.024 49.845 229.797 55.7593L226.124 55.6287C225.611 53.9122 225.801 54.0902 224.503 52.9357C221.737 50.4749 217.113 54.2154 219.55 56.4759C222.22 58.7782 229.355 57.7848 230.214 62.1663C231.169 67.0406 229.277 69.9716 224.665 71.2244C218.617 71.8533 216.006 70.1963 214.716 64.2971L218.552 64.2419L218.612 64.3962C218.741 64.7288 218.814 65.0701 218.923 65.4045C219.605 67.4832 222.773 68.1937 224.667 67.5817C225.221 67.4026 226.066 66.8565 226.241 66.3101C227.997 60.8451 221.004 62.0129 217.937 60.3095C214.976 58.6643 214.841 56.2404 215.462 53.1574C215.972 50.6263 218.075 49.5213 220.372 48.8023Z"
     id="path22" />
  <path
     fill="#FEFEFE"
     d="M197.235 49.0002C201.731 49.0217 206.226 49.0144 210.721 48.9783L210.741 52.7326L201.139 52.6794C201.022 54.3063 201.041 56.0509 201.028 57.6899C204.026 57.68 207.024 57.6891 210.021 57.7172L210.025 61.429C207.131 61.3828 204.253 61.314 201.36 61.4161L201.062 61.7727C200.981 63.5026 201.064 65.2869 201.116 67.0213C204.409 66.9456 207.922 66.9889 211.23 66.977L211.228 70.6468C206.516 70.7089 201.803 70.7052 197.09 70.6359C197.313 63.4478 196.963 56.1572 197.235 49.0002Z"
     id="path23" />
  <path
     fill="#FEFEFE"
     d="M19.7476 48.7592C25.59 47.9918 28.0382 51.2588 29.2735 56.3806L25.4882 56.4818C24.65 53.7268 23.1809 51.9282 20.0386 52.6397C16.3671 53.4711 16.1339 59.7608 16.6991 62.5982C17.6154 67.1985 21.7883 70.2584 24.9783 65.131C25.1425 64.4305 25.1858 64.0593 25.6539 63.5165C26.5462 63.1117 28.1642 63.3951 29.3108 63.4426C28.9594 64.9567 28.6819 66.1872 27.9684 67.5902C26.2943 71.1528 20.6932 72.4041 17.4306 70.5279C11.4302 67.0773 11.0253 55.8061 15.5813 51.0489C16.888 49.6845 18.0045 49.2509 19.7476 48.7592Z"
     id="path24" />
</svg>
