<?xml version="1.0" encoding="UTF-8" standalone="no"?>
<!-- Created with Inkscape (http://www.inkscape.org/) -->

<svg
   version="1.1"
   id="svg1"
   width="160"
   height="63.360001"
   viewBox="0 0 160 63.360001"
   sodipodi:docname="north_logo.svg"
   inkscape:version="1.4.3 (0d15f75, 2025-12-25)"
   xmlns:inkscape="http://www.inkscape.org/namespaces/inkscape"
   xmlns:sodipodi="http://sodipodi.sourceforge.net/DTD/sodipodi-0.dtd"
   xmlns="http://www.w3.org/2000/svg"
   xmlns:svg="http://www.w3.org/2000/svg">
  <defs
     id="defs1" />
  <sodipodi:namedview
     id="namedview1"
     pagecolor="#758013"
     bordercolor="#000000"
     borderopacity="0.25"
     inkscape:showpageshadow="2"
     inkscape:pageopacity="0.0"
     inkscape:pagecheckerboard="0"
     inkscape:deskcolor="#d1d1d1"
     inkscape:zoom="5.540625"
     inkscape:cx="60.823463"
     inkscape:cy="24.63621"
     inkscape:window-width="1920"
     inkscape:window-height="991"
     inkscape:window-x="-9"
     inkscape:window-y="-9"
     inkscape:window-maximized="1"
     inkscape:current-layer="g1" />
  <g
     inkscape:groupmode="layer"
     inkscape:label="Image"
     id="g1">
    <path
       style="fill:#ffffff;fill-opacity:1"
       d="M 3.3285472,57.840001 C 3.5376059,56.79745 5.12,46.525182 5.12,46.210608 c 0,-0.09207 0.6082946,-0.123126 1.3517658,-0.06901 1.3459727,0.09798 1.3648292,0.117106 4.4000002,4.463479 3.489441,4.996889 3.180261,5.055653 4.025407,-0.76508 l 0.545937,-3.76 h 1.238445 c 0.681145,0 1.238445,0.06705 1.238445,0.149007 0,0.303508 -1.614135,10.92254 -1.789238,11.770994 -0.163388,0.791687 -0.316649,0.88 -1.527193,0.88 -1.128016,0 -1.429988,-0.142286 -1.867624,-0.88 C 11.599112,56.083663 7.04,49.812584 7.04,50.165204 c 0,0.493382 -0.9337702,7.067833 -1.1355022,7.994797 -0.1315164,0.604321 -0.3677883,0.72 -1.4705944,0.72 -1.3117981,0 -1.3135692,-0.0017 -1.1053562,-1.04 z m 15.6994048,0.266522 c -0.466591,-0.712107 -0.449262,-1.150078 0.2184,-5.52 0.646767,-4.233154 0.819256,-4.841701 1.59481,-5.626523 l 0.869607,-0.88 h 4.824616 c 4.397948,0 4.881214,0.0566 5.464615,0.64 0.352,0.352 0.64,0.937617 0.64,1.30137 0,1.280505 -1.30245,9.022653 -1.616624,9.609693 -0.576728,1.077626 -1.470357,1.248938 -6.514962,1.248938 -4.906643,0 -4.980489,-0.01042 -5.480462,-0.773478 z m 10.462921,-5.453477 c 0.299275,-2.104825 0.473762,-3.940825 0.387747,-4.08 -0.259068,-0.419181 -7.087761,-0.306584 -7.352163,0.121228 -0.312425,0.505514 -1.335657,7.58986 -1.126462,7.799055 0.09124,0.09124 1.826584,0.125568 3.856317,0.07628 l 3.690423,-0.08961 z m 3.965449,5.346955 C 33.718594,56.560399 35.2,46.676406 35.2,46.36612 35.2,46.208754 37.72,46.08 40.8,46.08 c 5.275697,0 5.639214,0.03921 6.277132,0.677133 0.598004,0.598003 0.652484,0.90651 0.466208,2.64 -0.381174,3.547209 -1.269222,5.002868 -3.052081,5.002868 -0.90788,0 -0.830685,0.285247 0.628741,2.323312 0.704,0.983125 1.28,1.870567 1.28,1.972093 0,0.101527 -0.626873,0.184595 -1.393051,0.184595 -1.369539,0 -1.41819,-0.03781 -2.88255,-2.24 l -1.4895,-2.24 h -2.040578 -2.040578 l -0.226165,1.810166 c -0.320261,2.563279 -0.391853,2.669834 -1.793814,2.669834 -1.175821,0 -1.229741,-0.04404 -1.077442,-0.88 z M 44.871733,50.56 c 0.13663,-0.792 0.180904,-1.62 0.09839,-1.84 -0.10802,-0.287989 -1.176511,-0.4 -3.815668,-0.4 H 37.488815 L 37.201622,50 c -0.157956,0.924 -0.229677,1.792473 -0.15938,1.929939 0.0703,0.137467 1.804797,0.209467 3.854443,0.16 l 3.72663,-0.08994 z m 7.140236,7.440001 C 52.230484,56.767108 53.44,48.72194 53.44,48.50137 53.44,48.401617 52.432,48.32 51.2,48.32 c -1.994831,0 -2.24,-0.06718 -2.24,-0.613828 0,-1.626626 -0.0017,-1.626172 6.134511,-1.626172 h 5.746038 L 60.740275,47.12 60.64,48.16 58.32,48.25402 C 57.044,48.30573 56,48.423346 56,48.515389 c 0,0.299001 -1.282804,8.578538 -1.469514,9.484612 -0.160394,0.778367 -0.325306,0.88 -1.427912,0.88 -1.184376,0 -1.238792,-0.04391 -1.090605,-0.88 z m 8.294053,0.16 c 0.08702,-0.396 0.5384,-3.24 1.003071,-6.320001 0.464672,-3.08 1.008218,-5.709303 1.207882,-5.842896 0.199664,-0.133592 0.723025,-0.205592 1.163025,-0.16 0.723081,0.07493 0.799696,0.221351 0.796835,1.522896 -0.0017,0.792 -0.100687,1.98 -0.219881,2.64 l -0.216717,1.2 h 3.782603 3.782602 l 0.230224,-2.16 c 0.306197,-2.872793 0.580843,-3.342621 1.86391,-3.188535 1.242046,0.14916 1.245059,0.230201 0.258352,6.948536 -0.962417,6.552936 -0.781571,6.08 -2.324923,6.08 h -1.314802 l 0.200898,-1.28 c 0.110495,-0.704 0.291303,-1.856 0.401798,-2.56 l 0.200898,-1.28 h -3.685285 -3.685286 l -0.179461,1.04 c -0.0987,0.572 -0.27508,1.724 -0.391947,2.56 l -0.212486,1.52 h -1.409763 c -1.295521,0 -1.396941,-0.05835 -1.251547,-0.72 z m 15.650657,-0.101207 c -0.520338,-0.794136 -0.513134,-1.070222 0.142036,-5.44313 0.379597,-2.533608 0.857999,-4.875286 1.063114,-5.203729 0.724344,-1.159859 1.59874,-1.392604 5.843971,-1.555542 6.816586,-0.261631 7.022383,-0.03316 6.022842,6.686358 -0.962966,6.473634 -0.597174,6.155804 -7.210318,6.264931 l -5.313505,0.08768 z m 10.077319,-3.418793 c 0.367977,-2.166503 0.830639,-5.355327 0.840114,-5.790358 0.0032,-0.148696 -1.643683,-0.28218 -3.659826,-0.29663 l -3.665714,-0.02627 -0.231419,0.93663 c -0.434694,1.759352 -1.142998,6.844119 -0.976564,7.010552 0.09134,0.09134 1.783295,0.166079 3.759895,0.166079 h 3.593817 z m 4.011766,3.733828 c 0.10683,-0.278395 0.194236,-0.782395 0.194236,-1.12 0,-0.574659 0.274463,-0.613828 4.301115,-0.613828 2.365613,0 4.3627,-0.108 4.437971,-0.24 0.07527,-0.132 0.234295,-0.78 0.353386,-1.44 l 0.216528,-1.2 h -3.549045 c -3.355287,0 -3.592552,-0.04351 -4.345935,-0.796889 -0.716962,-0.716962 -0.775809,-0.965704 -0.586724,-2.48 0.115591,-0.925712 0.408694,-2.116447 0.651341,-2.646078 0.772761,-1.686727 1.44635,-1.898334 6.439904,-2.023092 4.069989,-0.101683 4.581059,-0.05522 4.768609,0.433529 0.11553,0.301079 0.0763,0.926568 -0.0872,1.389973 l -0.29731,0.842556 -4.145335,0.03587 c -4.083189,0.03533 -4.148546,0.04733 -4.359398,0.8 C 93.505043,51.21784 93.476268,51.2 97.076845,51.2 c 4.814465,0 5.490745,0.687561 4.798065,4.878122 -0.10892,0.658967 -0.53246,1.558967 -0.9412,2 -0.73407,0.792078 -0.80633,0.801879 -5.912667,0.801879 -4.582453,0 -5.147458,-0.05748 -4.975279,-0.506172 z m 13.312966,0.266172 c -0.005,-0.886985 1.69903,-11.582116 1.93854,-12.169293 0.29465,-0.722374 0.34588,-0.728333 5.39958,-0.628171 6.4643,0.128119 6.59582,0.205033 6.30456,3.687025 -0.20972,2.507207 -0.80226,4.015711 -1.78368,4.540952 -0.33861,0.181218 -2.40877,0.329487 -4.60036,0.329487 h -3.9847 l -0.2193,1.52 c -0.42304,2.93216 -0.44004,2.96 -1.80806,2.96 -0.68492,0 -1.24588,-0.108 -1.24658,-0.24 z m 10.72214,-6.859322 c 0.0525,-0.05537 0.14586,-0.803538 0.20734,-1.662589 L 114.4,48.556179 110.97159,48.51809 107.54318,48.48 l -0.27438,1.6 c -0.1509,0.88 -0.24196,1.672 -0.20234,1.76 0.0763,0.169597 6.85152,0.112299 7.01441,-0.05932 z m 3.35662,6.699322 c -0.008,-1.24055 1.74318,-11.985245 2.00801,-12.321973 0.3215,-0.408792 2.09168,-0.438563 2.33842,-0.03933 0.0744,0.120372 -0.22155,2.572908 -0.65766,5.45008 -1.23478,8.146334 -0.95827,7.311221 -2.42076,7.311221 -0.79773,0 -1.26643,-0.147855 -1.26801,-0.4 z m 8.32251,0.126668 c 0,-0.150332 0.29037,-2.202332 0.64526,-4.56 0.35489,-2.357668 0.67889,-4.555298 0.72,-4.883623 0.0658,-0.525333 -0.17482,-0.60212 -2.00526,-0.64 -2.03017,-0.04201 -2.08247,-0.06459 -2.18312,-0.942397 -0.19573,-1.707014 0.17102,-1.820649 5.87613,-1.820649 2.86806,0 5.43622,0.08503 5.70703,0.188946 0.36279,0.139216 0.44066,0.455043 0.29585,1.2 -0.25795,1.327034 -0.50192,1.450096 -2.74257,1.383395 -1.04059,-0.03098 -1.94592,0.03097 -2.01186,0.137663 -0.0659,0.106691 -0.41313,2.123587 -0.77153,4.48199 -0.93448,6.149182 -0.7686,5.728007 -2.25603,5.728007 -0.70064,0 -1.2739,-0.122999 -1.2739,-0.273332 z m 5.83253,-0.446668 c 0.25638,-0.396 1.9513,-3.24 3.7665,-6.320001 1.81519,-3.08 3.34893,-5.658939 3.40831,-5.730976 0.23694,-0.287483 2.72989,-0.185113 2.97866,0.122315 0.20724,0.256101 2.0488,6.21341 3.74305,12.108421 0.14532,0.505652 -0.01,0.567008 -1.21266,0.48 -1.30905,-0.09468 -1.39746,-0.164938 -1.7361,-1.379759 l -0.35682,-1.28 -3.33294,-0.09003 -3.33294,-0.09003 -0.79211,1.450027 c -0.75344,1.379225 -0.86064,1.450027 -2.1956,1.450027 -1.38025,0 -1.39577,-0.01192 -0.93735,-0.72 z M 140.74915,51.28 c -0.34575,-1.188 -0.66457,-2.294447 -0.70849,-2.458773 -0.0622,-0.232558 -2.18082,3.194145 -2.70733,4.378774 -0.0587,0.132 0.82734,0.24 1.9689,0.24 h 2.07556 z m 6.22286,6.400001 c 1.27677,-8.815359 1.66434,-11.174161 1.88481,-11.471267 0.31386,-0.422973 2.10157,-0.519674 2.34437,-0.126813 0.14935,0.241656 -0.84721,7.817664 -1.29412,9.83808 -0.15766,0.712741 -0.12371,0.72 3.36683,0.72 H 156.8 v 1.12 1.12 h -5.0009 -5.0009 z M 56.316746,37.36 C 54.756966,36.298423 54.042919,35.166944 54.030929,33.737891 54.011487,31.420699 57.618156,7.2584619 58.151137,6.1352871 58.435531,5.5359715 59.241474,4.6303574 59.942121,4.1228112 61.043063,3.3252926 61.505816,3.2 63.350413,3.2 c 3.292201,0 3.878984,0.6447267 8.630255,9.48249 l 3.906172,7.265806 -0.34342,1.972064 C 75.354539,23.004996 75.2,24.053758 75.2,24.250943 c 0,0.216287 0.793439,0.396313 2,0.453788 1.1,0.0524 1.979372,0.239269 1.95416,0.415269 -0.02521,0.176 -0.146725,1.076 -0.270028,2 l -0.224188,1.68 h 2.750028 c 3.146237,0 2.967173,-0.261159 2.325655,3.391887 -0.451213,2.569374 -0.985666,3.546577 -2.622533,4.795076 -2.409843,1.838077 -6.333898,1.13718 -7.982118,-1.42573 C 72.720239,34.922555 70.71633,31.16 68.677845,27.2 c -2.038486,-3.96 -3.709934,-7.128 -3.714329,-7.04 -0.0044,0.088 -0.422307,3.430139 -0.92869,7.426974 -1.008146,7.957192 -1.305326,8.867808 -3.229833,9.896836 -1.505427,0.804946 -3.19198,0.758422 -4.488247,-0.12381 z M 95.84,37.790387 C 94.81566,37.336012 93.452992,35.721075 93.122971,34.570359 92.903737,33.805937 92.99505,32.307815 93.449273,29.216896 93.796173,26.856297 94.08,24.860795 94.08,24.782449 94.08,24.704102 92.909448,24.64 91.478774,24.64 h -2.601226 l 0.212388,-1.68 c 0.116813,-0.924 0.29403,-2.140748 0.393815,-2.703884 L 89.66518,19.232231 87.63259,19.136116 85.6,19.04 85.712632,17.76 c 0.06195,-0.704 0.178446,-1.388 0.258886,-1.52 C 86.051957,16.108 88.178721,16 90.69766,16 h 4.579888 l 0.208924,-1.68 C 96.692149,4.6248823 97.469303,3.2 101.55151,3.2 c 1.98812,0 2.09089,0.040809 3.20313,1.2719324 0.63202,0.6995628 1.25129,1.6715628 1.37617,2.16 0.22707,0.8881462 -3.14881,26.1278536 -3.75994,28.1111366 -0.16661,0.540688 -0.79959,1.464458 -1.40663,2.052822 -0.91975,0.89146 -1.385414,1.087138 -2.793972,1.174069 C 97.240621,38.027334 96.192,37.946526 95.84,37.790387 Z M 79.527066,26.96 c 0.107837,-0.66 0.269803,-1.596 0.359926,-2.08 L 80.050851,24 h -2.126989 c -1.871292,0 -2.108397,-0.06732 -1.972325,-0.56 0.08507,-0.308 0.247593,-1.244 0.361171,-2.08 l 0.206507,-1.52 h 2.032454 2.032454 l 0.267938,-2 0.267939,-2 2.186395,-0.09522 c 1.974094,-0.08598 2.170909,-0.03937 2.026899,0.48 C 85.245571,16.54115 85.08087,17.484 84.967292,18.32 l -0.206507,1.52 h 2.105704 c 2.019075,0 2.09894,0.02962 1.941291,0.72 -0.09043,0.396 -0.215841,1.296 -0.278696,2 l -0.114283,1.28 -2.0474,0.16 -2.047401,0.16 -0.274376,1.6 c -0.150908,0.88 -0.326388,1.78 -0.389957,2 -0.07736,0.267737 -0.811466,0.4 -2.220124,0.4 H 79.331 Z M 75.84,18.890994 c 0,-0.31499 1.447026,-10.1847524 1.775485,-12.1100867 0.09937,-0.582501 0.693298,-1.626501 1.319833,-2.32 C 80.049265,3.2279015 80.122711,3.2 82.254451,3.2 c 2.02327,0 2.259846,0.075324 3.290995,1.0478221 1.645753,1.5521452 1.872971,2.8771893 1.219591,7.1121779 l -0.543071,3.52 -2.778787,0.09228 -2.778786,0.09228 -0.193763,1.18772 C 79.946334,19.46609 80.178874,19.2 77.894574,19.2 76.764558,19.2 75.84,19.060947 75.84,18.890994 Z"
       id="path1"
       inkscape:label="path1" />
  </g>
</svg>
