<?xml version="1.0" encoding="UTF-8" standalone="no"?>
<!-- Created with Inkscape (http://www.inkscape.org/) -->

<svg
   version="1.1"
   id="svg1"
   width="972.53296"
   height="357.77878"
   viewBox="0 0 972.53296 357.77878"
   sodipodi:docname="quincy.svg"
   inkscape:version="1.4.3 (0d15f75, 2025-12-25)"
   xmlns:inkscape="http://www.inkscape.org/namespaces/inkscape"
   xmlns:sodipodi="http://sodipodi.sourceforge.net/DTD/sodipodi-0.dtd"
   xmlns="http://www.w3.org/2000/svg"
   xmlns:svg="http://www.w3.org/2000/svg">
  <defs
     id="defs1" />
  <sodipodi:namedview
     id="namedview1"
     pagecolor="#1cff28"
     bordercolor="#000000"
     borderopacity="0.25"
     inkscape:showpageshadow="2"
     inkscape:pageopacity="0.0"
     inkscape:pagecheckerboard="0"
     inkscape:deskcolor="#d1d1d1"
     inkscape:zoom="0.89467593"
     inkscape:cx="500.73997"
     inkscape:cy="198.39586"
     inkscape:window-width="1920"
     inkscape:window-height="991"
     inkscape:window-x="-9"
     inkscape:window-y="-9"
     inkscape:window-maximized="1"
     inkscape:current-layer="g1" />
  <g
     inkscape:groupmode="layer"
     inkscape:label="Image"
     id="g1"
     transform="translate(-92.148641,-233.12363)">
    <path
       style="fill:#ffffff;fill-opacity:1"
       d="M 513.80718,590.89791 C 506.48823,590.84176 499.15,590.4261 497.5,589.97422 c -1.65,-0.45188 -7.69453,-1.8046 -13.4323,-3.00605 -5.73776,-1.20144 -14.06276,-3.31283 -18.5,-4.69197 -4.43723,-1.37913 -13.4677,-4.51652 -20.0677,-6.97197 -6.6,-2.45545 -13.9076,-5.3284 -16.2391,-6.38434 C 426.92939,567.86395 424.80316,567 424.53594,567 c -0.26722,0 -3.43339,-1.35 -7.03594,-3 -3.60255,-1.65 -6.73242,-3 -6.95527,-3 -0.22286,0 -3.47409,-1.39962 -7.22496,-3.11026 C 399.5689,556.17909 386.6,549.90612 374.5,543.94979 c -12.1,-5.95633 -27.4,-13.77986 -34,-17.38562 -6.6,-3.60577 -12.675,-6.55502 -13.5,-6.55389 -0.825,0.001 -2.85,0.72078 -4.5,1.59924 -1.65,0.87846 -4.575,2.16818 -6.5,2.86604 -1.925,0.69785 -5.525,2.17942 -8,3.29235 -2.475,1.11294 -7.875,3.36485 -12,5.00424 -4.125,1.63939 -13.575,5.01285 -21,7.49657 -7.425,2.48373 -18.225,5.72056 -24,7.19295 -5.775,1.47239 -11.85,3.06509 -13.5,3.53932 -1.65,0.47423 -6.6,1.3849 -11,2.02371 -4.4,0.63881 -9.88677,1.56958 -12.19282,2.06838 C 212.00113,555.59189 200.44155,556 188.61923,556 c -15.51428,0 -23.39052,-0.42077 -28.30718,-1.51223 -3.74663,-0.83173 -9.28705,-2.25422 -12.31205,-3.16109 -3.025,-0.90687 -6.175,-1.95246 -7,-2.32352 -0.825,-0.37107 -4.18116,-1.98608 -7.45813,-3.58892 -3.55393,-1.7383 -8.84753,-5.73885 -13.11872,-9.91424 -3.98138,-3.89208 -8.32298,-9.3046 -9.77866,-12.19068 -1.43994,-2.85488 -3.63511,-8.70488 -4.87816,-13 -1.87229,-6.46933 -2.2575,-10.21157 -2.24495,-21.80932 0.009,-8.05712 0.57329,-16.3347 1.32999,-19.5 0.72316,-3.025 1.98749,-7.75 2.80963,-10.5 0.82214,-2.75 2.89365,-8.6 4.60336,-13 1.70972,-4.4 5.34386,-12.275 8.07587,-17.5 2.73201,-5.225 7.05975,-12.65 9.61719,-16.5 2.55744,-3.85 6.76324,-10.01168 9.34623,-13.69263 2.58299,-3.68095 4.69635,-6.98273 4.69635,-7.33731 0,-0.35457 -4.90625,-5.89289 -10.90277,-12.30737 -5.99653,-6.41448 -13.81687,-15.28532 -17.37855,-19.71298 -3.56167,-4.42766 -8.62609,-11.40266 -11.25426,-15.5 -2.62817,-4.09734 -5.986009,-10.37495 -7.461868,-13.95025 -1.47586,-3.57529 -3.259358,-8.90148 -3.963329,-11.83596 -0.703972,-2.93449 -1.066705,-7.22732 -0.806074,-9.53963 0.260631,-2.31232 1.284172,-5.91178 2.274535,-7.99882 1.015108,-2.13918 3.499353,-4.86695 5.694446,-6.25265 2.14157,-1.35192 6.4597,-2.94034 9.59582,-3.52983 3.13613,-0.58949 9.52705,-0.83091 14.20205,-0.53648 4.675,0.29442 10.525,1.00065 13,1.56939 2.475,0.56874 7.65,1.76147 11.5,2.6505 3.85,0.88904 10.15,2.51312 14,3.60907 3.85,1.09595 10.15,3.12249 14,4.50341 3.85,1.38093 8.8,3.20607 11,4.05587 2.2,0.8498 4.9,1.89937 6,2.33238 1.1,0.433 4.025,1.54107 6.5,2.46238 2.475,0.92131 6.075,2.35905 8,3.19497 1.925,0.83592 4.4,1.90605 5.5,2.37805 1.1,0.47201 2.70348,0.98863 3.56329,1.14804 0.85981,0.15942 5.58481,-2.68651 10.5,-6.32428 4.91519,-3.63777 10.96171,-8.03234 13.43671,-9.76572 2.475,-1.73337 9.45,-6.44164 15.5,-10.46282 6.05,-4.02119 13.7,-8.99289 17,-11.04824 3.3,-2.05535 6.88295,-4.27072 7.96212,-4.92304 1.07916,-0.65233 3.69601,-2.22272 5.81521,-3.48976 2.1192,-1.26704 5.51125,-3.23992 7.53788,-4.38418 2.02664,-1.14425 7.95979,-4.24627 13.18479,-6.89338 5.225,-2.6471 14.88269,-7.08672 21.46153,-9.86582 C 336.04038,247.27381 342.00898,245 342.7251,245 c 0.71612,0 2.08343,-0.4372 3.03847,-0.97155 0.95504,-0.53435 4.88643,-1.91192 8.73643,-3.06125 3.85,-1.14934 9.025,-2.53404 11.5,-3.07712 2.475,-0.54308 8.1,-1.66136 12.5,-2.48506 4.4,-0.82371 14.75,-1.75649 23,-2.07284 11.75154,-0.45062 16.94908,-0.21042 24,1.10911 4.95,0.92635 10.8,2.29699 13,3.04585 2.2,0.74886 5.8,2.0996 8,3.00163 2.2,0.90204 6.37279,2.81487 9.27287,4.25074 2.90007,1.43587 5.76767,3.20688 6.37244,3.93558 0.60477,0.7287 1.71948,1.32491 2.47713,1.32491 0.75766,0 1.37756,0.35298 1.37756,0.78439 0,0.43142 1.2375,1.5385 2.75,2.46019 1.5125,0.92169 4.80058,3.60621 7.30684,5.96561 2.50626,2.35939 6.35768,6.76481 8.5587,9.78981 2.20103,3.025 4.71558,7.075 5.58788,9 0.87231,1.925 2.07078,4.625 2.66327,6 0.59248,1.375 1.76486,5.56542 2.60528,9.31205 0.84041,3.74663 1.52803,9.76975 1.52803,13.38471 0,3.61495 -0.48414,9.54953 -1.07587,13.18794 -0.59173,3.63842 -1.5224,8.4153 -2.06816,10.6153 -0.54577,2.2 -2.11807,7.6 -3.49401,12 -1.37594,4.4 -5.13157,13.4 -8.34584,20 -3.21427,6.6 -8.62766,16.23948 -12.02976,21.42107 -3.4021,5.18158 -6.7033,9.96922 -7.336,10.63919 -0.6327,0.66997 -2.05036,2.47746 -3.15036,4.01665 -1.1,1.53919 -3.77274,5.07655 -5.93943,7.86081 -2.16668,2.78425 -9.48331,10.72595 -16.25918,17.64822 -6.77587,6.92226 -13.40249,13.16539 -14.72582,13.87362 -2.20966,1.18257 -2.94359,0.88985 -8.99081,-3.58594 -3.6216,-2.68049 -6.58474,-5.50775 -6.58475,-6.28279 0,-0.77505 4.38749,-5.73114 9.74999,-11.01353 5.3625,-5.2824 13.35,-13.67729 17.75,-18.65531 4.4,-4.97802 8.91116,-10.14693 10.0248,-11.48647 1.11364,-1.33953 4.73157,-6.03552 8.03984,-10.43552 3.30828,-4.4 8.18396,-11.35281 10.83485,-15.45068 2.6509,-4.09788 7.41515,-12.64788 10.58724,-19 3.17208,-6.35213 6.89645,-14.92432 8.27636,-19.04932 1.37992,-4.125 3.12273,-9.75 3.87293,-12.5 0.82381,-3.01988 1.33601,-9.75229 1.29335,-17 -0.0667,-11.32531 -0.24753,-12.3696 -3.21692,-18.57366 -2.00472,-4.18852 -5.09317,-8.41493 -8.51205,-11.64836 -2.95116,-2.79109 -7.67764,-6.24623 -10.50329,-7.6781 -2.82565,-1.43186 -7.06344,-3.22185 -9.41732,-3.97774 -2.35389,-0.7559 -6.30479,-1.85571 -8.77979,-2.44402 -2.475,-0.58831 -6.96337,-1.34794 -9.97414,-1.68806 -3.01078,-0.34013 -10.43983,-0.59481 -16.509,-0.56597 -6.06916,0.0289 -15.3058,0.70822 -20.52585,1.50971 -5.22006,0.8015 -11.96601,1.93316 -14.99101,2.51482 -3.025,0.58165 -6.625,1.45398 -8,1.93849 -1.375,0.48452 -4.525,1.43485 -7,2.11185 -2.475,0.677 -8.325,2.49586 -13,4.04189 -4.675,1.54604 -10.3,3.54798 -12.5,4.44877 -2.2,0.90078 -5.9076,2.50912 -8.2391,3.57408 -2.33151,1.06497 -4.46064,1.9363 -4.7314,1.9363 -0.27076,0 -4.43816,1.88835 -9.26089,4.19633 -4.82274,2.30797 -13.04361,6.62745 -18.26861,9.59882 -5.225,2.97138 -14.675,8.61347 -21,12.53799 -6.325,3.92452 -16.24168,10.51755 -22.03707,14.65117 -5.79539,4.13363 -12.86373,9.31569 -15.70741,11.51569 -2.84368,2.2 -5.1895,4.5625 -5.21292,5.25 -0.0234,0.6875 0.60026,1.25 1.38597,1.25 0.78572,0 2.02322,0.5625 2.75,1.25 0.72679,0.6875 6.27143,3.725 12.32143,6.75 6.05,3.025 11.225,5.73107 11.5,6.01349 0.275,0.28242 2.75,1.63242 5.5,3 2.75,1.36758 5.15,2.82401 5.33333,3.23651 0.18334,0.4125 1.08334,0.78553 2,0.82895 0.94031,0.0445 1.14799,0.29007 0.47653,0.56338 -0.65458,0.26643 -3.80458,-0.97507 -7,-2.7589 -3.19542,-1.78384 -10.58693,-5.63736 -16.42557,-8.56338 C 252.04564,335.39402 246.75814,333 246.13429,333 245.51043,333 245,332.55 245,332 c 0,-0.55 -0.87344,-1 -1.94098,-1 -1.06754,0 -2.2191,-0.45 -2.55902,-1 -0.33992,-0.55 -1.54902,-1 -2.68688,-1 -1.13787,0 -5.94882,3.24309 -10.69099,7.20687 -4.74217,3.96377 -15.65974,14.20127 -24.26126,22.75 C 194.25935,367.50559 184.4323,377.875 181.02298,382 l -6.19877,7.5 4.83789,4.3923 c 2.66085,2.41577 11.8129,9.85296 20.3379,16.52709 8.525,6.67413 24.05,18.44916 34.5,26.16673 10.45,7.71757 26.54527,19.18039 35.76727,25.47292 9.222,6.29253 17.547,11.89096 18.5,12.44096 0.953,0.55 1.95773,1.23849 2.23273,1.52998 0.275,0.29149 5.82177,3.89149 12.32616,8 6.50439,4.10851 13.70439,8.54946 16,9.86878 2.29561,1.31932 4.32384,2.78182 4.50717,3.25 0.18334,0.46818 0.7371,0.85124 1.23059,0.85124 0.49348,0 3.35937,1.575 6.36863,3.5 3.00926,1.925 6.07223,3.5 6.80662,3.5 0.73438,0 4.91849,-1.84717 9.29803,-4.10482 4.37954,-2.25765 12.2378,-6.375 17.4628,-9.14967 5.225,-2.77466 11.17856,-6.10249 13.23013,-7.39517 2.05157,-1.29269 3.95533,-2.35034 4.23058,-2.35034 0.27525,0 3.09669,-1.64701 6.26987,-3.66002 3.17318,-2.01301 10.94442,-7.04876 17.26942,-11.19056 6.325,-4.14179 13.075,-8.73223 15,-10.20097 1.925,-1.46873 8.09461,-6.0954 13.71024,-10.28148 5.61563,-4.18608 11.24063,-8.47554 12.5,-9.53212 1.25937,-1.05659 7.46476,-6.35331 13.78976,-11.77048 6.325,-5.41716 16.225,-14.58739 22,-20.37826 5.775,-5.79088 12.08524,-12.31925 14.02275,-14.50749 1.93751,-2.18824 6.68946,-7.80362 10.55988,-12.47862 3.87043,-4.675 8.64911,-10.75 10.6193,-13.5 1.97018,-2.75 5.93466,-8.55852 8.80995,-12.90783 2.87529,-4.34931 7.61348,-12.67431 10.52931,-18.5 2.91583,-5.82569 6.21627,-13.06717 7.3343,-16.09217 1.11804,-3.025 3.40343,-10.78206 5.07865,-17.23792 2.49948,-9.6323 3.04586,-13.71332 3.04586,-22.75 0,-9.85 -0.22138,-11.23346 -2.09788,-13.10996 -1.15383,-1.15383 -2.50383,-3.51336 -3,-5.24339 C 547.40596,256.92869 547,254.72273 547,253.7566 547,252.58467 547.77408,252 549.32569,252 c 1.27912,0 3.23636,1.0125 4.34942,2.25 1.87641,2.0862 2.01048,3.45117 1.84168,18.75 -0.10014,9.075 -0.71902,19.425 -1.3753,23 -0.65628,3.575 -1.63159,7.28139 -2.16736,8.23643 -0.53577,0.95504 -0.97413,2.53639 -0.97413,3.51412 0,0.97773 -0.9311,4.24633 -2.06912,7.26357 -1.13801,3.01723 -2.6637,7.06088 -3.3904,8.98588 -0.72671,1.925 -2.80359,6.425 -4.61529,10 -1.81171,3.575 -5.55461,10.325 -8.31756,15 -2.76295,4.675 -8.0619,12.69655 -11.77544,17.82566 -3.71354,5.12911 -8.45746,11.38198 -10.54204,13.89527 -2.08458,2.51329 -5.57896,6.64174 -7.76528,9.17434 -2.18632,2.5326 -10.51132,11.16539 -18.5,19.18398 -7.98868,8.01859 -18.12487,17.69359 -22.52487,21.5 -4.4,3.80641 -8.225,7.15983 -8.5,7.45205 -0.275,0.29221 -4.1,3.44221 -8.5,7 -4.4,3.55778 -8.225,6.71538 -8.5,7.01688 -0.275,0.3015 -2.075,1.64509 -4,2.98575 -1.925,1.34067 -4.175,2.98832 -5,3.66145 -0.825,0.67314 -4.65,3.54238 -8.5,6.3761 -3.85,2.83373 -11.5,8.08054 -17,11.65959 -5.5,3.57905 -11.125,7.23343 -12.5,8.12084 -1.375,0.88741 -3.4,2.12418 -4.5,2.74838 -1.1,0.62421 -7.10332,4.09156 -13.34072,7.70523 -6.23739,3.61367 -14.22323,8.06075 -17.7463,9.88239 -3.52307,1.82165 -6.40725,3.58979 -6.40928,3.9292 -0.002,0.33942 1.80932,1.81691 4.02522,3.28333 2.21591,1.46642 5.59091,3.55122 7.5,4.63289 1.9091,1.08167 5.15858,2.94172 7.22108,4.13345 2.0625,1.19173 5.55,3.1847 7.75,4.42882 2.2,1.24413 6.925,3.85868 10.5,5.81011 3.575,1.95144 17.75,9.14187 31.5,15.97874 13.75,6.83686 27.475,13.5243 30.5,14.86097 3.025,1.33667 9.775,4.12866 15,6.20443 5.225,2.07577 10.4,4.15352 11.5,4.61722 1.1,0.4637 5.40883,1.98831 9.57518,3.38801 4.16635,1.39971 8.33495,2.54492 9.26357,2.54492 0.92861,0 2.46978,0.43181 3.42482,0.95959 0.95504,0.52777 3.98643,1.45413 6.73643,2.05857 2.75,0.60445 8.49696,1.65751 12.77103,2.34014 4.52657,0.72297 10.44479,0.96441 14.17516,0.5783 3.52228,-0.36457 8.06756,-1.52609 10.10063,-2.58116 2.03306,-1.05506 4.64911,-3.5609 5.81343,-5.56851 l 2.11694,-3.65022 -1.98859,-2.81835 c -1.28457,-1.82057 -1.98043,-4.40824 -1.96553,-7.30911 0.018,-3.50346 0.41531,-4.56628 1.80717,-4.83433 0.98126,-0.18897 2.88337,0.84255 4.22693,2.29227 1.44212,1.55607 2.44283,3.8437 2.44283,5.58433 0,1.62166 -0.42961,2.94848 -0.95469,2.94848 -0.52507,0 -1.2251,1.6875 -1.55562,3.75 -0.33051,2.0625 -1.22472,5.17287 -1.98714,6.91193 -0.76241,1.73907 -3.32488,4.4807 -5.69438,6.09253 -2.36949,1.61182 -6.41994,3.45145 -9.00099,4.08806 -2.58105,0.63662 -10.68105,1.11154 -18,1.05539 z M 203,541.91298 c 7.425,0.039 18.45,-0.59443 24.5,-1.40758 6.05,-0.81315 13.475,-1.90481 16.5,-2.42592 3.025,-0.52111 10.4161,-2.12162 16.42468,-3.55669 6.00857,-1.43507 13.88357,-3.54118 17.5,-4.68023 3.61642,-1.13906 10.20116,-3.32637 14.63274,-4.86069 4.43159,-1.53433 11.74409,-4.24652 16.25,-6.02709 4.50592,-1.78057 8.18961,-3.73632 8.18598,-4.34609 -0.004,-0.60978 -3.90599,-3.35869 -8.67191,-6.10869 -4.76593,-2.75 -10.95046,-6.29483 -13.7434,-7.87741 -2.79295,-1.58257 -6.51057,-3.94507 -8.26137,-5.25 C 284.56592,494.06767 282.86877,493 282.54528,493 c -0.32349,0 -2.26601,-1.06022 -4.31672,-2.35604 -2.05071,-1.29581 -7.10356,-4.55037 -11.22856,-7.23233 -4.125,-2.68196 -8.4,-5.37155 -9.5,-5.97685 -1.1,-0.60531 -9.2,-6.09606 -18,-12.20168 -8.8,-6.10562 -19.3126,-13.49332 -23.36133,-16.41711 -4.04873,-2.9238 -12.59873,-9.3418 -19,-14.26224 -6.40127,-4.92043 -16.92841,-13.38311 -23.39364,-18.80594 -6.46523,-5.42284 -12.13666,-9.6238 -12.60317,-9.33549 -0.4665,0.28832 -3.10399,3.801 -5.86108,7.80595 -2.75708,4.00495 -7.52153,12.00673 -10.58767,17.78173 -3.06613,5.775 -6.94135,14.06363 -8.61161,18.41918 -1.67025,4.35555 -3.98955,11.72213 -5.15399,16.37018 -1.5432,6.15992 -2.10748,11.47552 -2.08144,19.60738 0.0305,9.50813 0.43089,12.26051 2.71044,18.62982 1.47109,4.11039 4.28189,9.49844 6.24623,11.97344 1.96433,2.475 5.39981,6.1577 7.63439,8.18378 2.23458,2.02607 6.53787,5.00467 9.56287,6.6191 3.025,1.61443 8.2,3.84048 11.5,4.94677 3.3,1.10629 9.375,2.56354 13.5,3.23833 4.125,0.67479 7.95,1.36802 8.5,1.54051 0.55,0.17249 7.075,0.34551 14.5,0.38449 z M 157.58028,375 c 0.38637,0 6.97572,-6.51866 14.643,-14.48591 7.66727,-7.96725 18.96615,-18.87798 25.10861,-24.24607 6.14246,-5.36809 11.75273,-10.31441 12.46726,-10.99182 0.71454,-0.6774 2.27121,-1.9125 3.45927,-2.74465 1.35248,-0.94732 1.80146,-1.85293 1.20085,-2.42216 -0.5276,-0.50004 -4.33427,-2.33641 -8.45927,-4.08082 -4.125,-1.74442 -10.65,-4.29095 -14.5,-5.65897 -3.85,-1.36801 -10.15,-3.52262 -14,-4.78801 -3.85,-1.2654 -10.375,-3.22069 -14.5,-4.34511 -4.125,-1.12441 -10.65,-2.73439 -14.5,-3.57772 -3.85,-0.84334 -9.25,-1.79823 -12,-2.12198 -2.75,-0.32376 -7.925,-0.64004 -11.5,-0.70284 -3.575,-0.0628 -8.34626,0.39837 -10.6028,1.02484 -2.25654,0.62647 -5.29404,2.24304 -6.75,3.59238 -2.19075,2.03031 -2.6472,3.3256 -2.6472,7.51199 0,3.06805 0.85388,6.9235 2.16994,9.79775 1.19347,2.6065 5.10079,9.0141 8.68292,14.2391 4.43154,6.46396 12.02771,15.01282 23.76896,26.75 9.49078,9.4875 17.57209,17.25 17.95846,17.25 z M 662.5,575.7796 c -1.65,0.009 -4.47659,-0.45697 -6.2813,-1.03533 -1.80472,-0.57835 -4.61722,-2.57307 -6.25,-4.4327 -2.42661,-2.76376 -2.9687,-4.27481 -2.9687,-8.27516 0,-4.1515 0.49486,-5.41871 3.26169,-8.3524 1.82552,-1.93561 5.0178,-3.94593 7.25,-4.56563 2.19357,-0.60897 4.87327,-1.10974 5.95488,-1.1128 1.08161,-0.003 3.89411,0.73056 6.25,1.63028 2.35589,0.89972 4.28343,2.19462 4.28343,2.87755 0,0.68294 -0.67459,1.80156 -1.4991,2.48584 -1.19572,0.99236 -2.10974,0.9912 -4.51651,-0.006 -1.67391,-0.69335 -4.60896,-0.99158 -6.59189,-0.6698 -1.96596,0.31903 -4.43352,1.57056 -5.48348,2.78117 -1.04996,1.21062 -1.90902,3.6746 -1.90902,5.47553 0,2.34633 0.74681,3.86185 2.63486,5.34699 1.44917,1.13992 4.00472,2.07258 5.679,2.07258 1.67428,0 4.54302,-0.542 6.37498,-1.20445 2.85227,-1.03139 3.57622,-0.95906 5.03867,0.50339 1.61044,1.61044 1.56781,1.80743 -0.74765,3.45445 -1.35052,0.96063 -3.58597,2.03087 -4.96767,2.3783 -1.38171,0.34742 -3.86219,0.63898 -5.51219,0.64791 z m 44.30912,-0.37817 c -2.92002,0.23804 -6.40112,0.20338 -7.73578,-0.077 -1.33467,-0.2804 -3.46424,-1.18966 -4.73239,-2.02058 -1.26815,-0.83093 -3.21365,-2.97982 -4.32334,-4.77533 C 688.90792,566.73299 688,563.79516 688,562 c 0,-1.79516 0.88462,-4.69527 1.96582,-6.44469 1.0812,-1.74942 2.9937,-3.66962 4.25,-4.26712 1.2563,-0.59749 3.77309,-1.6473 5.59288,-2.3329 2.64487,-0.99646 4.35804,-0.99482 8.53893,0.008 2.87663,0.69009 5.89829,1.76813 6.71479,2.39563 0.81651,0.62751 2.48649,2.43911 3.71107,4.02578 1.32761,1.72017 2.22651,4.29672 2.22651,6.38196 0,1.92341 -0.90792,4.96617 -2.01761,6.76168 -1.10969,1.79551 -3.10808,3.97906 -4.44088,4.85235 -1.3328,0.87328 -4.81237,1.78254 -7.73239,2.02058 z M 704.05307,570 c 2.08085,0 4.5118,-0.27953 5.40213,-0.62118 0.89032,-0.34165 2.28668,-1.91277 3.103,-3.49137 0.86862,-1.67971 1.22144,-3.91726 0.85064,-5.39464 -0.34848,-1.38844 -1.76871,-3.41732 -3.15608,-4.50863 C 708.8654,554.89288 706.41139,554 704.7994,554 c -1.61199,0 -3.9138,0.5235 -5.11514,1.16334 -1.20134,0.63984 -2.73245,1.87734 -3.40246,2.75 -0.67,0.87266 -1.2325,3.0165 -1.25,4.76408 -0.0227,2.26512 0.72472,3.7725 2.60306,5.25 1.61108,1.26727 4.10489,2.07258 6.41821,2.07258 z m 201.72905,5.94356 c -1.25517,-0.0311 -3.85164,-0.59355 -5.76994,-1.25 -1.9183,-0.65646 -3.63295,-1.9507 -3.81033,-2.87609 -0.17937,-0.93578 0.63956,-2.19741 1.84518,-2.84264 1.56765,-0.83898 2.47014,-0.85766 3.26033,-0.0675 0.60095,0.60095 2.5295,1.09264 4.28565,1.09264 1.96618,0 3.42232,-0.59758 3.78983,-1.55528 0.42204,-1.09983 -0.41573,-1.97834 -2.86089,-3 C 904.62021,564.65013 902.68397,564 902.21921,564 c -0.46477,0 -2.05422,-1.26212 -3.53212,-2.80472 C 897.20919,559.65269 896,557.87386 896,557.24233 c 0,-0.63152 0.50837,-2.26398 1.12972,-3.62769 0.62135,-1.3637 2.39529,-3.00368 3.9421,-3.64439 1.5468,-0.64071 4.30093,-1.18176 6.12028,-1.20233 1.81934,-0.0206 4.5454,0.46208 6.0579,1.07258 1.5125,0.6105 2.75,1.74104 2.75,2.5123 0,0.77127 -0.64623,1.93864 -1.43608,2.59415 -1.0455,0.86769 -1.97953,0.90099 -3.43426,0.12244 -1.099,-0.58816 -3.1262,-1.06939 -4.5049,-1.06939 -1.3787,0 -2.79702,0.46971 -3.15183,1.0438 -0.35481,0.5741 -0.12528,1.67017 0.51008,2.43573 0.63535,0.76555 2.48487,1.68396 4.11004,2.04091 1.62517,0.35695 4.29408,1.77587 5.9309,3.15317 1.63683,1.3773 2.97605,3.39376 2.97605,4.48103 0,1.08726 -0.48622,2.88536 -1.08049,3.99576 -0.59427,1.1104 -2.60482,2.65582 -4.46788,3.43426 -1.86307,0.77844 -4.41435,1.38994 -5.66951,1.3589 z m 38.14652,-0.58401 c -2.43575,0.29463 -5.91231,0.0909 -7.72567,-0.45271 -1.81337,-0.54362 -3.56241,-1.67994 -3.88675,-2.52516 -0.32434,-0.84522 0.11725,-2.24372 0.9813,-3.10777 1.31996,-1.31996 2.04574,-1.37437 4.5418,-0.34047 1.63393,0.6768 4.02602,1.08115 5.31574,0.89855 1.28971,-0.18259 2.34494,-0.95259 2.34494,-1.7111 0,-0.75851 -2.47053,-2.55851 -5.49007,-4 -3.20449,-1.52978 -6.11012,-3.74667 -6.97947,-5.32506 -1.36771,-2.48324 -1.31986,-2.9326 0.58558,-5.5 1.14124,-1.53771 3.832,-3.3884 5.97947,-4.11264 3.13919,-1.05871 4.64232,-1.07542 7.6688,-0.0852 2.07038,0.67738 4.22933,1.7919 4.79768,2.47672 0.74776,0.90099 0.44973,1.65391 -1.07832,2.72419 -1.6341,1.14457 -2.74232,1.24103 -4.90021,0.42652 -1.53369,-0.5789 -3.52989,-0.76807 -4.436,-0.42036 -0.9061,0.3477 -1.64746,1.22423 -1.64746,1.94782 0,0.7236 2.8125,2.65023 6.25,4.28139 6.01966,2.85645 6.25928,3.11317 6.50173,6.96575 0.20199,3.20969 -0.20726,4.32836 -2.07136,5.66194 -1.2777,0.91407 -4.31598,1.90299 -6.75173,2.19761 z m 41.89177,0.1858 c -2.92623,0.22846 -6.67041,-0.0831 -8.32041,-0.69227 -1.65,-0.6092 -4.0705,-2.06287 -5.37888,-3.23036 -1.30838,-1.1675 -3.0088,-3.60167 -3.7787,-5.40929 -1.06139,-2.49198 -1.15383,-4.20009 -0.38235,-7.06513 0.5596,-2.07821 2.03501,-4.71862 3.27869,-5.86758 1.24368,-1.14896 4.0037,-2.80715 6.13336,-3.68487 2.12967,-0.87772 4.74512,-1.59585 5.81211,-1.59585 1.06698,0 4.16697,0.72841 6.88886,1.6187 2.86246,0.93626 5.99823,2.86578 7.43789,4.57672 1.71081,2.03318 2.48902,4.16431 2.48902,6.81621 0,2.12199 -0.42205,4.96825 -0.93789,6.325 -0.51584,1.35676 -2.50915,3.6653 -4.42959,5.13009 -2.47943,1.89115 -5.03414,2.78367 -8.81211,3.07863 z M 984,570 c 2.25963,0 4.76907,-0.81711 6.36514,-2.07258 1.88805,-1.48514 2.63486,-3.00066 2.63486,-5.34699 0,-1.88312 -0.88554,-4.29544 -2.08412,-5.67742 -1.66134,-1.91555 -3.06004,-2.40301 -6.89501,-2.40301 -3.32759,0 -5.45991,0.58735 -6.91588,1.90499 -1.43134,1.29534 -2.10499,3.11226 -2.10499,5.67742 0,2.88435 0.62028,4.26034 2.63486,5.84501 C 979.23093,569.18289 981.74037,570 984,570 Z m -244.03742,4.79591 c -1.39559,0.16275 -2.85809,-0.0248 -3.25,-0.41667 -0.39192,-0.39191 -0.70569,-5.70007 -0.69727,-11.79591 0.008,-6.09583 0.39311,-11.67921 0.85487,-12.40751 0.50491,-0.79637 2.19283,-1.19497 4.23468,-1 3.09207,0.29524 3.7109,0.94271 6.93241,7.25327 1.94549,3.811 3.97115,7.07372 4.50146,7.25049 0.5303,0.17676 2.06481,-1.81633 3.41002,-4.42909 1.34521,-2.61277 3.2877,-5.98799 4.31664,-7.50049 1.43023,-2.10238 2.679,-2.75 5.3027,-2.75 H 769 v 13 13 h -3 c -2.15515,0 -3.02612,-0.49283 -3.09274,-1.75 -0.051,-0.9625 -0.0198,-3.61668 0.0693,-5.89817 0.0891,-2.2815 -0.25037,-4.40304 -0.75439,-4.71454 -0.50402,-0.3115 -2.3782,2.34268 -4.16483,5.89817 -2.27633,4.53 -3.81459,6.46454 -5.1403,6.46454 -1.33587,0 -2.99764,-2.13068 -5.65444,-7.25 l -3.7626,-7.25 -0.5,7 c -0.47112,6.59561 -0.64659,7.01709 -3.03742,7.29591 z M 788.97012,575 h -3.02987 L 786.22012,562.25 786.5,549.5 h 8.33819 c 7.89665,0 8.4659,0.14858 10.75,2.80576 1.32649,1.54317 2.39563,3.56817 2.37585,4.5 -0.0198,0.93183 -1.0983,2.99333 -2.3967,4.58111 -1.88039,2.29946 -3.38173,2.98497 -7.37853,3.36901 -4.05628,0.38976 -5.12737,0.89049 -5.58965,2.61313 -0.31452,1.17205 -0.578,3.36849 -0.58551,4.88099 -0.0119,2.39191 -0.40818,2.75 -3.04353,2.75 z m 7.69655,-16 c 2.60387,0 3.33333,-0.41427 3.33333,-1.89301 0,-1.04116 -0.7118,-2.16616 -1.58179,-2.5 C 797.54823,554.27314 796.02571,554 795.03484,554 c -0.99087,0 -2.03012,0.87394 -2.30945,1.9421 -0.27932,1.06815 -0.25681,2.19315 0.05,2.5 0.30685,0.30684 2.0579,0.5579 3.89124,0.5579 z m 29.44521,16 c -1.5282,0 -3.07855,-0.3 -3.44521,-0.66667 C 822.3,573.96667 822,569.27096 822,563.89843 c 0,-5.37253 0.45686,-10.96986 1.01524,-12.43852 1.00218,-2.63593 1.11925,-2.66557 9.09674,-2.3033 7.44888,0.33828 8.27535,0.59237 10.55785,3.24593 1.82839,2.12563 2.31523,3.56166 1.86062,5.48819 -0.33865,1.4351 -1.49654,3.3564 -2.57309,4.26956 -1.07655,0.91316 -1.95736,2.0462 -1.95736,2.51787 0,0.47166 1.125,2.51316 2.5,4.53665 1.375,2.0235 2.5,4.15296 2.5,4.73214 0,0.57918 -1.52809,1.05305 -3.39575,1.05305 -2.98404,0 -3.78789,-0.61108 -6.62993,-5.04002 -1.7788,-2.77202 -3.73821,-4.87434 -4.35425,-4.67183 -0.61604,0.2025 -1.25723,2.47051 -1.42486,5.04002 -0.285,4.36838 -0.48527,4.67183 -3.08333,4.67183 z M 833,559 c 2.73087,0 4,-0.43707 4,-1.37756 0,-0.75765 -0.66916,-1.9329 -1.48701,-2.61166 -0.85288,-0.70782 -2.55869,-0.96514 -4,-0.6034 C 829.88698,554.81549 829,555.7373 829,557.01905 829,558.66349 829.67949,559 833,559 Z m 37.36313,16 H 859.94025 L 860.22012,562.25 860.5,549.5 h 10 c 9.56162,0 10.01381,0.0971 10.31492,2.21465 0.23855,1.67761 -0.31599,2.37301 -2.28679,2.86765 -1.43094,0.35914 -3.93023,0.38728 -5.55398,0.0625 -1.62375,-0.32475 -3.6322,-0.32954 -4.46321,-0.0106 -0.83102,0.31889 -1.51094,1.41018 -1.51094,2.42509 0,1.56514 0.94889,1.8905 6.25,2.14301 5.98979,0.28532 6.26317,0.41221 6.56642,3.04772 0.31602,2.74649 0.30826,2.75 -6.08333,2.75 -3.51987,0 -6.65081,0.25106 -6.95766,0.5579 -0.30685,0.30685 -0.32936,1.43185 -0.05,2.5 0.44001,1.68261 1.41646,1.9421 7.30791,1.9421 4.54081,0 6.9449,0.4153 7.23606,1.25 0.23981,0.6875 0.22917,1.8125 -0.0237,2.5 -0.32753,0.89065 -3.45609,1.25 -10.88257,1.25 z m 148.65067,0 h -2.8766 l -0.3186,-9.75 c -0.1752,-5.3625 -0.077,-11.1 0.2187,-12.75 0.5235,-2.92301 0.7011,-3.00775 6.9172,-3.30206 3.5202,-0.16666 7.7618,0.25614 9.4627,0.94323 1.6955,0.6849 3.4134,1.72083 3.8175,2.30206 0.4041,0.58122 0.7416,2.67453 0.75,4.65178 0.01,2.33959 -0.6831,4.22708 -1.9847,5.40499 -1.1,0.99549 -2,2.23797 -2,2.76108 0,0.52311 1.35,2.65563 3,4.73892 1.65,2.08329 3,4.06055 3,4.3939 0,0.33336 -1.6875,0.60523 -3.75,0.60417 -3.3805,-0.002 -4.0874,-0.49696 -7.1738,-5.02539 -1.8831,-2.7629 -3.9081,-4.86436 -4.5,-4.6699 -0.5919,0.19446 -1.2134,2.45588 -1.381,5.02539 -0.2876,4.40908 -0.4666,4.67183 -3.1814,4.67183 z m 6.5269,-15 c 0.7126,0 2.0075,-0.27314 2.8775,-0.60699 0.87,-0.33384 1.5818,-1.45027 1.5818,-2.48095 0,-1.18126 -0.9554,-2.11374 -2.5846,-2.52266 -1.7272,-0.43349 -3.1087,-0.1247 -4.1641,0.93076 -1.3016,1.3016 -1.3532,1.85217 -0.293,3.12965 0.7076,0.85261 1.8697,1.55019 2.5824,1.55019 z M 686.53733,530.39711 c -4.97053,0.2676 -11.18715,0.0983 -13.8147,-0.3763 -2.62755,-0.47456 -6.67755,-1.97941 -9,-3.3441 -2.32245,-1.36468 -5.20013,-3.80967 -6.39486,-5.43329 -1.19472,-1.62363 -2.74231,-4.93011 -3.43909,-7.34773 -0.87889,-3.04955 -1.21054,-11.08308 -1.08297,-26.23276 0.10114,-12.01039 0.43778,-22.24789 0.7481,-22.75 C 653.86413,464.41082 659.46492,464 666,464 c 7.04813,0 12.14009,0.41766 12.51646,1.02664 0.34897,0.56464 0.58732,9.29667 0.52965,19.40449 -0.0884,15.4913 0.16635,18.94654 1.62172,21.9985 0.94961,1.99135 3.05696,4.28433 4.68301,5.0955 1.62604,0.81118 4.63105,1.47487 6.6778,1.47487 2.04675,0 5.19792,-0.29531 7.00261,-0.65625 1.85467,-0.37093 4.95238,-2.32738 7.125,-4.5 L 710,504 v -18.8 c 0,-13.28889 0.35177,-19.15177 1.2,-20 0.79706,-0.79706 5.14244,-1.2 12.94098,-1.2 6.6076,0 12.00642,0.42948 12.34808,0.9823 0.3339,0.54027 0.85504,14.05702 1.15808,30.03723 0.30305,15.98021 0.27284,30.16317 -0.0671,31.5177 C 736.96448,528.98969 736.90966,529 724.48095,529 H 712 v -3 c 0,-1.65 -0.50938,-3 -1.13197,-3 -0.62258,0 -2.76008,1.0125 -4.75,2.25 -1.98991,1.2375 -5.17623,2.79237 -7.0807,3.45527 -1.90447,0.66291 -7.52947,1.42423 -12.5,1.69184 z M 947,529.4006 c -5.775,0.22959 -12.075,0.21345 -14,-0.0359 -1.925,-0.24933 -5.75,-1.14823 -8.5,-1.99756 -2.75,-0.84932 -7.475,-2.71307 -10.5,-4.14166 -3.025,-1.42859 -8.05502,-5.14527 -11.17783,-8.25929 -4.48738,-4.47476 -6.02458,-6.85466 -7.33167,-11.35089 -1.10169,-3.78967 -1.42194,-7.06163 -0.95924,-9.80032 0.38203,-2.26122 1.27988,-5.51209 1.99523,-7.22417 0.71535,-1.71207 3.11056,-5.16904 5.32269,-7.68215 2.52212,-2.86528 6.74977,-5.95162 11.33643,-8.276 4.02292,-2.03869 10.01439,-4.35558 13.31439,-5.14865 3.3,-0.79306 9.86181,-1.73842 14.58179,-2.10079 6.39095,-0.49065 10.51734,-0.22823 16.16354,1.02793 4.16996,0.92773 9.42065,2.57524 11.6682,3.66114 2.24756,1.0859 4.08647,2.41684 4.08647,2.95764 0,0.5408 -1.18486,1.9928 -2.63302,3.22666 -1.44816,1.23387 -3.13566,2.69986 -3.75,3.25777 -0.61434,0.55791 -3.05404,2.52768 -5.42156,4.37726 l -4.30459,3.36288 -3.85502,-1.73837 c -2.54603,-1.1481 -6.37195,-1.73837 -11.26746,-1.73837 -5.54366,0 -8.44452,0.52653 -11.50618,2.08847 -2.25156,1.14866 -5.03164,3.40563 -6.17796,5.01548 -1.36116,1.91158 -2.08421,4.47002 -2.08421,7.37476 0,2.98309 0.74093,5.51771 2.25,7.69692 1.2375,1.78705 3.6,3.94669 5.25,4.79918 1.65,0.8525 3.78139,1.93192 4.73643,2.39871 0.95504,0.46678 4.65843,0.8487 8.22976,0.8487 3.58353,0 8.26184,-0.70762 10.43982,-1.57907 l 3.94649,-1.57907 6.46581,4.82907 c 3.55619,2.65599 7.02549,5.70831 7.70954,6.78293 1.06945,1.68009 0.92176,2.17051 -1.05405,3.5 -1.26378,0.85038 -4.58738,2.32985 -7.38579,3.28771 -3.05947,1.04723 -9.27425,1.90801 -15.58801,2.15903 z m -349,-0.77573 c -34.46873,0.0926 -47.92305,-0.20429 -52,-1.14731 -3.025,-0.6997 -8.23569,-2.17513 -11.5793,-3.27873 -3.34362,-1.10359 -8.50064,-3.2873 -11.46004,-4.85268 -2.95941,-1.56538 -8.33111,-5.77115 -11.93712,-9.34615 -3.60602,-3.575 -7.53579,-8.525 -8.73283,-11 -1.19704,-2.475 -2.67063,-7.59913 -3.27465,-11.38695 -0.83111,-5.21201 -0.80027,-8.25208 0.12679,-12.5 0.67374,-3.08718 2.98311,-8.42642 5.13194,-11.86499 2.14882,-3.43857 6.22855,-8.28375 9.06608,-10.76706 2.83752,-2.48332 8.75913,-6.28082 13.15913,-8.43891 4.4,-2.15808 11.375,-4.64669 15.5,-5.53024 4.125,-0.88355 12.33849,-1.87395 18.25219,-2.20087 6.38576,-0.35303 14.5077,-0.0997 20,0.62368 5.0863,0.66995 10.82281,1.69608 12.74781,2.28028 1.925,0.58421 4.4,1.39009 5.5,1.79085 1.1,0.40076 4.94218,2.13351 8.53818,3.85056 3.596,1.71704 9.01367,5.32827 12.03927,8.02494 3.0256,2.69667 6.73471,6.68316 8.24248,8.85886 1.50776,2.1757 3.62759,6.38038 4.71073,9.34372 1.08313,2.96334 1.96934,7.67659 1.96934,10.47387 0,2.79729 -0.73568,7.30364 -1.63484,10.01412 -0.89916,2.71048 -2.79535,6.50314 -4.21375,8.42814 -1.4184,1.925 -3.04523,3.96631 -3.61516,4.53625 -0.56994,0.56993 -2.72375,2.31084 -4.78625,3.86869 -2.0625,1.55784 -3.75,3.22903 -3.75,3.71375 0,0.48472 6.0199,0.88131 13.37756,0.88131 10.30374,0 13.64694,0.3246 14.54998,1.41269 0.70512,0.84962 1.05286,3.9386 0.87244,7.75 L 644.5,528.5 Z m -33.0656,-18.695 c 5.98374,0.0445 11.6529,-0.54611 15.5,-1.61474 3.33608,-0.92667 8.18897,-2.98158 10.78421,-4.56645 2.59523,-1.58488 5.99,-4.53919 7.54392,-6.56514 1.55393,-2.02595 3.36805,-4.94221 4.03139,-6.48059 0.66335,-1.53838 1.20608,-5.21357 1.20608,-8.1671 0,-3.03948 -0.8128,-7.25049 -1.87285,-9.70294 -1.03006,-2.3831 -3.57197,-5.86721 -5.64869,-7.74247 -2.07671,-1.87525 -6.97143,-4.78393 -10.87715,-6.46372 -6.73535,-2.89678 -7.77125,-3.0518 -20.10131,-3.00824 -11.92245,0.0421 -13.49099,0.26885 -18.92348,2.73542 -3.25792,1.47921 -7.92647,4.33078 -10.37457,6.33681 -2.44809,2.00603 -5.28514,5.48377 -6.30455,7.72831 -1.09668,2.41467 -1.86244,6.40956 -1.87544,9.78393 -0.0121,3.13662 0.52077,6.96162 1.18412,8.5 0.66334,1.53838 2.50587,4.4905 4.0945,6.56028 1.58864,2.06978 4.95014,4.97147 7.47,6.44821 2.51986,1.47673 6.86483,3.46422 9.65549,4.41664 3.31305,1.1307 8.34809,1.756 14.50833,1.80179 z M 768.25,528.77903 755,529.05805 754.9864,500.27903 c -0.008,-15.82847 -0.26746,-29.72445 -0.57765,-30.87995 -0.32389,-1.20654 0.0687,-2.73359 0.92212,-3.58704 1.16299,-1.163 4.00877,-1.4539 13.08875,-1.33797 6.38145,0.0815 12.05427,0.59977 12.60625,1.15175 0.63991,0.63991 0.90769,12.21442 0.7389,31.9389 L 781.5,528.5 Z m 45.19434,-0.001 c -7.18062,0.15272 -13.36812,-0.0348 -13.75,-0.41666 C 799.31245,527.97912 799,513.81822 799,496.89235 c 0,-16.92587 0.4,-31.02153 0.88889,-31.32368 0.48888,-0.30215 5.47802,-0.79661 11.08697,-1.0988 5.60895,-0.30219 11.05895,-0.27621 12.11112,0.0577 1.31112,0.41613 1.91302,1.52987 1.91302,3.53978 0,1.61293 0.48237,2.93261 1.07193,2.93261 0.58956,0 3.00886,-1.13512 5.37622,-2.52248 2.36737,-1.38737 6.85695,-3.18737 9.97686,-4 3.11992,-0.81264 8.95846,-1.47752 12.97456,-1.47752 4.01609,0 8.83163,0.49447 10.70121,1.09882 1.86957,0.60434 4.77375,1.70871 6.45372,2.45414 1.67998,0.74543 4.22934,2.44413 5.66524,3.77489 1.43591,1.33075 3.64885,4.38889 4.91763,6.79585 2.21687,4.20552 2.30798,5.29334 2.33476,27.8763 l 0.0279,23.5 -13.15754,0.27838 -13.15754,0.27838 -0.35884,-19.27838 c -0.29194,-15.68415 -0.67253,-19.85662 -2.04135,-22.37988 -0.92538,-1.70583 -2.81467,-3.84333 -4.19843,-4.75 -1.64636,-1.07873 -4.63604,-1.6485 -8.64999,-1.6485 -3.3804,0 -7.5528,0.67324 -9.29445,1.49971 -1.73822,0.82484 -3.83123,2.51234 -4.65113,3.75 -1.14792,1.7328 -1.60571,6.84957 -1.99073,22.25029 l -0.5,20 z M 1021.607,529 c -11.2902,0 -13.4883,-0.24836 -14,-1.58179 -0.3339,-0.86998 -0.6142,-7.50748 -0.623,-14.75 L 1006.968,499.5 1003.8846,496 c -1.6959,-1.925 -4.50119,-5.11441 -6.23405,-7.08757 -1.73286,-1.97316 -6.97565,-7.76006 -11.65065,-12.85978 -4.675,-5.09972 -8.5,-9.76303 -8.5,-10.36292 0,-0.72577 4.41923,-1.1357 13.20802,-1.22518 7.26441,-0.074 13.59148,0.12876 14.06008,0.45049 0.4686,0.32173 4.3616,4.97246 8.6511,10.33496 4.2895,5.3625 7.9523,9.75 8.1394,9.75 0.1872,0 2.4753,-3.0375 5.0847,-6.75 2.6093,-3.7125 6.4356,-8.4511 8.5028,-10.53023 l 3.7585,-3.78024 12.7159,0.28024 c 7.3351,0.16165 12.8564,0.70353 13.0478,1.28056 0.1826,0.55017 -1.5213,3.02517 -3.7863,5.5 -2.2651,2.47482 -7.5526,8.28997 -11.7501,12.92257 -4.1976,4.63259 -9.0923,10.03259 -10.8771,12 l -3.2452,3.5771 V 514.25 529 Z M 767.62788,456.99626 c -2.29745,-0.002 -5.51728,-0.85095 -7.26117,-1.91432 -1.7233,-1.05082 -3.8608,-2.94927 -4.75,-4.21877 C 754.72752,449.59367 754,447.55129 754,446.32455 c 0,-1.22675 0.51921,-3.36998 1.15379,-4.76274 0.63459,-1.39276 3.02666,-3.43894 5.31573,-4.54705 2.28906,-1.10812 5.83431,-2.01476 7.87832,-2.01476 2.04402,0 5.16444,0.61289 6.93428,1.36198 1.76983,0.7491 4.02461,2.26828 5.01062,3.37598 0.98601,1.10769 2.03916,3.53244 2.34033,5.38832 0.41026,2.52817 2.2e-4,4.0702 -1.63513,6.14922 -1.2005,1.52617 -3.7711,3.43853 -5.71245,4.24968 -1.94136,0.81115 -5.38728,1.47314 -7.65761,1.47108 z"
       id="path1" />
  </g>
</svg>
