<?xml version="1.0" encoding="UTF-8" standalone="no"?>
<!-- Created with Inkscape (http://www.inkscape.org/) -->

<svg
   version="1.1"
   id="svg1"
   width="751"
   height="287"
   viewBox="0 0 751 287"
   sodipodi:docname="rayo.svg"
   inkscape:version="1.4.3 (0d15f75, 2025-12-25)"
   xmlns:inkscape="http://www.inkscape.org/namespaces/inkscape"
   xmlns:sodipodi="http://sodipodi.sourceforge.net/DTD/sodipodi-0.dtd"
   xmlns="http://www.w3.org/2000/svg"
   xmlns:svg="http://www.w3.org/2000/svg">
  <defs
     id="defs1" />
  <sodipodi:namedview
     id="namedview1"
     pagecolor="#45ffff"
     bordercolor="#000000"
     borderopacity="0.25"
     inkscape:showpageshadow="2"
     inkscape:pageopacity="0.0"
     inkscape:pagecheckerboard="0"
     inkscape:deskcolor="#d1d1d1"
     inkscape:zoom="2.3608522"
     inkscape:cx="375.28821"
     inkscape:cy="143.38043"
     inkscape:window-width="1920"
     inkscape:window-height="991"
     inkscape:window-x="-9"
     inkscape:window-y="-9"
     inkscape:window-maximized="1"
     inkscape:current-layer="g1" />
  <g
     inkscape:groupmode="layer"
     inkscape:label="Image"
     id="g1">
    <path
       style="fill:#ffffff;fill-opacity:1"
       d="M 26,179 V 89.97595 L 63.75,90.237975 101.5,90.5 l 0.29206,7.75 0.29207,7.75 -30.042066,0 L 42,106 V 122.5 139 H 64.5 87 v 8 8 H 64.5 42 v 47.5 47.5 h 30.038933 30.038937 l -0.28894,8.75 L 101.5,267.5 63.75,267.76203 26,268.02405 Z m 94,0.012 V 90 h 8 8 v 80 80 h 30.03893 30.03894 l -0.28894,8.75 -0.28893,8.75 -37.75,0.26203 -37.75,0.26202 z m 134,0.03 V 90 l 8.41203,0 c 9.88593,0 21.7033,2.072732 28.19875,4.945979 15.69738,6.943701 28.60567,21.348131 33.65342,37.554021 4.23353,13.59184 2.61622,31.8595 -3.98027,44.95729 -4.58453,9.10291 -16.59307,19.55069 -30.10264,26.19016 -0.17529,0.0862 1.22817,2.33822 3.1188,5.00459 1.89064,2.66638 5.95763,9.79796 9.03777,15.84796 6.76819,13.29409 12.7424,20.41366 20.18523,24.0551 L 328,251.2347 v 7.99106 7.99106 l -2.75,-0.64594 c -5.67154,-1.33218 -15.38668,-6.8431 -20.82382,-11.81234 -4.78439,-4.37266 -6.69549,-7.30869 -12.77606,-19.6279 -5.67566,-11.49886 -8.39126,-15.78985 -13.1688,-20.80837 -3.31027,-3.47725 -6.68527,-6.3224 -7.5,-6.32257 -1.27524,-2.5e-4 -1.48132,4.13856 -1.48132,29.75 V 267.5 l -7.75,0.29206 -7.75,0.29207 z m 32.50825,9.10087 c 15.64373,-7.32058 24.5468,-21.37393 24.62732,-38.8738 0.0656,-14.264 -5.98031,-26.47818 -17.19201,-34.73176 C 287.98552,110.15131 277.50734,106 272.39466,106 L 270,106 v 43.13929 43.13929 l 5.13487,-0.60815 c 2.82419,-0.33448 7.94221,-1.92185 11.37338,-3.5275 z m 48.52093,78.02443 c 0.016,-0.91705 9.59817,-40.81736 21.29361,-88.66736 l 21.26443,-87 3.15188,-0.309293 c 2.89382,-0.28397 3.23563,0.0026 4.17478,3.5 0.5626,2.095111 5.2851,21.134293 10.49445,42.309293 5.20936,21.175 14.44858,58.69771 20.53161,83.38379 C 422.02297,244.06987 427,265.1263 427,266.17585 c 0,1.73867 -0.68881,1.88232 -7.75,1.61621 L 411.5,267.5 408.55142,254.25 405.60283,241 l -24.55141,4.7e-4 -24.55142,4.8e-4 -3.03825,13.24952 -3.03824,13.24953 -7.71176,0.16736 c -6.60944,0.14344 -7.70758,-0.071 -7.68257,-1.5 z M 400.95099,223.75 C 400.80518,220.03163 381.15268,143.73987 380.66525,145 379.79936,147.23855 361,222.69791 361,223.93499 361,224.65284 367.51939,225 381,225 c 15.35947,0 19.98863,-0.29003 19.95099,-1.25 z M 468,222.76354 v -45.32058 l -14.13896,-20.97148 c -7.77643,-11.53431 -20.62225,-30.55142 -28.54626,-42.26024 -7.92402,-11.70882 -14.66639,-21.963938 -14.98305,-22.789145 -0.49104,-1.279633 0.79135,-1.457836 8.71632,-1.211235 L 428.34011,90.5 431.4866,95 c 1.73057,2.475 12.31721,18.1125 23.52587,34.75 11.20866,16.6375 20.62871,30.24124 20.93345,30.23053 0.30475,-0.0107 6.08639,-8.2232 12.84811,-18.25 C 495.55574,131.70374 506.14724,116.075 512.3307,107 l 11.24265,-16.5 9.21332,-0.287526 C 537.854,90.054335 542,90.317233 542,90.796691 c 0,0.479459 -1.70162,3.308846 -3.78137,6.287526 C 536.13888,100.0629 528.18554,111.725 520.54455,123 c -7.64099,11.275 -18.98476,27.99019 -25.20837,37.14486 l -11.31565,16.64486 -0.26027,45.35514 L 483.5,267.5 l -7.75,0.29206 -7.75,0.29207 z m 138.06058,44.2087 c -29.32306,-4.0642 -54.67326,-22.80608 -68.05871,-50.31709 -5.85263,-12.02886 -7.83457,-19.63455 -8.63975,-33.15515 -2.06269,-34.63658 17.21313,-67.89575 48.39708,-83.505983 10.60906,-5.310747 18.47835,-7.675092 30.00532,-9.015174 37.95296,-4.412266 74.49103,16.638607 90.62682,52.213317 6.09788,13.44404 7.08893,18.5625 7.03006,36.30784 -0.049,14.75601 -0.27084,16.66087 -2.85382,24.5 -8.76801,26.61016 -27.06527,46.94344 -51.33453,57.04675 -13.07255,5.44212 -31.35607,7.84046 -45.17247,5.92549 z M 638.5,248.5654 c 11.25264,-3.7648 21.70398,-9.98098 29.53291,-17.5654 18.40719,-17.83229 26.13047,-41.29057 21.52286,-65.37236 -4.89955,-25.60767 -24.23389,-47.76592 -49.05577,-56.22071 -6.32841,-2.15558 -10.43663,-2.82129 -19.66139,-3.18604 -14.73092,-0.58245 -23.54903,1.24817 -36.1509,7.50482 -7.63894,3.79263 -10.72187,6.10297 -18.28878,13.70559 -7.63396,7.66998 -9.85031,10.66936 -13.74894,18.60636 -6.25478,12.73374 -8.03951,20.06727 -8.02192,32.96234 0.0286,20.97989 8.59411,39.95397 24.59555,54.48348 7.51145,6.8205 22.96359,14.69217 33.27638,16.95176 10.56751,2.3154 25.86566,1.52081 36,-1.86984 z m 79,-123.45544 c -4.84098,-2.23426 -7.8876,-5.40003 -9.95227,-10.34149 -2.01372,-4.8195 -1.92594,-8.33914 0.33193,-13.30984 4.73781,-10.430249 17.14146,-14.288479 26.23479,-8.160485 12.2816,8.276565 10.87155,25.715145 -2.57308,31.822195 -5.11943,2.32543 -8.98654,2.32257 -14.04137,-0.0104 z m 16.1027,-5.19287 c 4.19358,-3.91766 5.67396,-7.68603 5.15227,-13.11533 C 737.96712,98.602415 731.38346,93.420433 722.80176,94.245026 715.03371,94.991438 710,100.95655 710,109.41554 c 0,3.65189 0.61076,5.21048 3.19533,8.15414 4.0968,4.66601 6.11982,5.48544 12.56236,5.08847 3.88429,-0.23934 5.93354,-0.95536 7.84501,-2.74106 z M 716,108.5 V 99 h 6.42857 c 4.51082,0 6.89736,0.468783 8,1.57143 2.15116,2.15116 1.97067,5.02933 -0.46834,7.46834 -2.00536,2.00536 -2.00813,2.0855 -0.16397,4.75 3.4983,5.05447 3.50911,5.21023 0.36153,5.21023 -2.32312,0 -3.40469,-0.75329 -5.02529,-3.5 -1.13578,-1.925 -2.53023,-3.5 -3.09877,-3.5 -0.56855,0 -1.03373,1.575 -1.03373,3.5 0,3.06667 -0.30952,3.5 -2.5,3.5 -2.49123,0 -2.5,-0.0333 -2.5,-9.5 z m 10.44423,-2.40976 C 727.52111,104.34782 725.7697,102 723.39301,102 721.50713,102 721,102.52981 721,104.5 c 0,1.98388 0.50393,2.5 2.44098,2.5 1.34254,0 2.694,-0.40939 3.00325,-0.90976 z M 253.2073,35.544306 253.5,17.088612 250,16.794306 C 247.68636,16.599758 246.5,15.991561 246.5,15 c 0,-1.197034 1.7673,-1.558358 8.75,-1.788933 8.2335,-0.271877 8.75,-0.168577 8.75,1.75 C 264,16.624609 263.35561,17 260.5,17 H 257 v 18.5 c 0,17.962245 -0.0594,18.5 -2.0427,18.5 -1.99372,0 -2.03569,-0.442536 -1.75,-18.455694 z M 286,33.5 V 13 h 8.5 c 7.83333,0 8.5,0.156863 8.5,2 0,1.811152 -0.66667,2 -7.06037,2 l -7.06036,0 0.31036,3.75 0.31037,3.75 5.25,0.30226 c 3.68084,0.211917 5.25,0.719352 5.25,1.69774 0,0.978388 -1.56916,1.485823 -5.25,1.69774 L 289.5,28.5 289.21617,39.25 288.93234,50 h 7.03383 C 302.33333,50 303,50.18956 303,52 c 0,1.843137 -0.66667,2 -8.5,2 H 286 Z m 36.90336,18.319784 c 0.49881,-1.275881 2.47989,-5.967678 4.4024,-10.426215 l 3.49548,-8.106431 -3.90062,-8.760649 C 323.06625,15.914627 322.2644,12.984981 323.75,13.015313 c 1.90296,0.03885 3.25742,1.98174 5.78734,8.301571 1.50089,3.749286 3.07677,6.449286 3.50195,6 0.42518,-0.449286 1.89804,-3.51216 3.27302,-6.806387 2.37457,-5.689079 4.87681,-8.654709 6.19238,-7.339144 0.33033,0.330337 -1.22308,4.869087 -3.45204,10.086111 C 336.82369,28.474488 335,33.048741 335,33.422469 c 0,0.373729 1.8,4.908618 4,10.077531 2.2,5.168913 4,9.645968 4,9.949012 C 343,53.752055 342.17155,54 341.15899,54 c -1.3456,0 -2.60498,-1.897739 -4.68002,-7.052242 -1.56146,-3.878733 -3.14927,-7.243992 -3.52847,-7.478354 -0.37921,-0.234361 -2.05311,2.826647 -3.71978,6.802242 -2.23955,5.342095 -3.57883,7.311803 -5.1323,7.548138 -1.82637,0.277855 -1.98307,0.01562 -1.19506,-2 z M 369,35.5 V 17 h -3.5 c -2.85561,0 -3.5,-0.375391 -3.5,-2.038933 0,-1.918405 0.51657,-2.021853 8.73875,-1.75 7.39149,0.244388 8.79033,0.558731 9.07332,2.038933 0.26816,1.402595 -0.37479,1.75 -3.23875,1.75 L 373,17 v 18.5 c 0,17.833333 -0.0721,18.5 -2,18.5 -1.92793,0 -2,-0.666667 -2,-18.5 z m 32.22929,-1.75 C 401.4594,16.53698 401.72496,13.5 403,13.5 c 1.27504,0 1.5406,3.03698 1.77071,20.25 C 405.03551,53.558665 404.99692,54 403,54 c -1.99692,0 -2.03551,-0.441335 -1.77071,-20.25 z m 28,0.01301 C 429.4748,15.4098 429.6629,13.494719 431.25,13.18969 432.86593,12.87912 433,14.276334 433,31.426676 V 50 h 7 c 6.33333,0 7,0.190476 7,2 0,1.852192 -0.66667,2 -9.02071,2 h -9.0207 z M 469,33.5 V 13 h 8.5 c 7.83333,0 8.5,0.156863 8.5,2 0,1.811152 -0.66667,2 -7.06037,2 l -7.06036,0 0.31036,3.75 0.31037,3.75 5.25,0.30226 c 3.68084,0.211917 5.25,0.719352 5.25,1.69774 0,0.978388 -1.56916,1.485823 -5.25,1.69774 L 472.5,28.5 472.21617,39.25 471.93234,50 h 7.03383 C 485.33333,50 486,50.18956 486,52 c 0,1.843137 -0.66667,2 -8.5,2 H 469 Z m 37.75,19.419901 C 505.7875,52.359296 505,51.007148 505,49.915126 c 0,-1.653122 0.3238,-1.812204 1.93426,-0.95031 2.85951,1.530365 7.70116,1.256906 9.49431,-0.536245 2.95598,-2.955974 2.3437,-6.396547 -2.38017,-13.375009 -7.54136,-11.140656 -8.59098,-15.020669 -5.08223,-18.786876 2.63925,-2.832896 5.2173,-3.527628 8.48303,-2.286 3.78506,1.439077 2.65175,3.519314 -1.91731,3.519314 -6.63865,0 -6.65824,2.004977 -0.1251,12.803157 3.46881,5.733352 5.97534,11.126974 6.3017,13.560138 0.47436,3.536638 0.16199,4.420067 -2.50637,7.088434 -2.35454,2.354534 -3.91922,3.04135 -6.8752,3.017862 -2.1048,-0.01672 -4.61442,-0.489085 -5.57692,-1.04969 z M 53.666667,37.333333 C 53.3,36.966667 53,36.066667 53,35.333333 53,34.232439 68.166667,34 140,34 c 86.33333,0 87,0.01533 87,2 0,1.984556 -0.66667,2 -86.33333,2 C 93.183333,38 54.033333,37.7 53.666667,37.333333 Z M 541,36 c 0,-1.984674 0.66667,-2 87,-2 86.33333,0 87,0.01533 87,2 0,1.984674 -0.66667,2 -87,2 -86.33333,0 -87,-0.01533 -87,-2 z"
       id="path1" />
  </g>
</svg>
